# Blender 4.4.0
# www.blender.org
o convex_7
v 0.307932 0.610625 0.678514
v 0.308338 0.611019 0.678305
v 0.307932 0.611117 0.678374
v 0.307932 0.509647 0.678514
v 0.358779 0.594173 0.644639
v 0.392428 0.611019 0.611008
v 0.344782 0.613777 0.647467
v 0.307932 0.611413 0.677886
v 0.308338 0.510042 0.678305
v 0.307932 -0.384174 0.594419
v 0.308338 -0.384174 0.594210
v 0.375592 0.594173 0.627841
v 0.358779 0.577327 0.644639
v 0.409242 0.594173 0.594210
v 0.426033 0.594173 0.577377
v 0.428828 0.613777 0.563372
v 0.384022 0.619393 0.602626
v 0.370003 0.622249 0.605420
v 0.307932 0.621166 0.654836
v 0.325151 0.459602 0.661472
v 0.392428 0.476448 0.611008
v 0.375592 0.526887 0.627841
v 0.358779 -0.196110 0.577377
v 0.307932 -0.384174 0.552371
v 0.353324 -0.384174 0.559216
v 0.347577 -0.375505 0.566166
v 0.358779 -0.364373 0.560578
v 0.409242 0.526887 0.594210
v 0.479291 0.613777 0.496145
v 0.426033 0.577327 0.577377
v 0.476497 0.594173 0.510114
v 0.386816 0.622249 0.588587
v 0.319539 0.622249 0.639051
v 0.307932 0.622249 0.639051
v 0.375592 0.140120 0.594210
v 0.409242 0.358723 0.577377
v 0.375592 -0.044792 0.577377
v 0.375592 -0.212956 0.560578
v 0.392428 -0.011199 0.560578
v 0.436694 -0.384174 0.321738
v 0.307932 -0.314328 0.552371
v 0.364391 -0.384174 0.549368
v 0.375592 -0.347527 0.543745
v 0.459660 0.510042 0.526947
v 0.512919 0.613777 0.412050
v 0.504512 0.622249 0.386835
v 0.470885 0.622249 0.470896
v 0.437235 0.622249 0.521325
v 0.487698 0.588558 0.487729
v 0.482086 0.582942 0.498939
v 0.307932 0.622249 0.588587
v 0.392428 -0.162517 0.543745
v 0.409242 0.039339 0.543745
v 0.470885 -0.384174 0.321738
v 0.436694 -0.370185 0.321738
v 0.307932 0.593779 0.560788
v 0.313950 0.582942 0.549368
v 0.409242 -0.384174 0.476518
v 0.381204 -0.358758 0.532535
v 0.442847 0.308284 0.526947
v 0.448459 0.297053 0.515737
v 0.529732 0.613777 0.361586
v 0.521326 0.588558 0.403633
v 0.538162 0.588558 0.353169
v 0.521326 0.622249 0.336371
v 0.521326 0.571712 0.403633
v 0.437235 -0.384174 0.420466
v 0.410730 -0.384174 0.473550
v 0.414854 -0.384174 0.465308
v 0.431645 -0.384174 0.431677
v 0.470885 0.622249 0.321738
v 0.459660 0.616634 0.321738
v 0.307932 0.616339 0.575665
v 0.398018 -0.173747 0.532535
v 0.538162 0.506692 0.321738
v 0.470885 -0.384174 0.336371
v 0.437235 -0.283690 0.321738
v 0.307932 0.594862 0.561067
v 0.453508 0.605108 0.321738
v 0.452967 0.587474 0.321738
v 0.538162 0.605404 0.336371
v 0.532550 0.616634 0.330749
v 0.538162 0.554964 0.353169
v 0.521326 0.622249 0.321738
v 0.307932 0.607177 0.564979
v 0.538162 0.605404 0.321738
v 0.538162 0.521272 0.336371
v 0.532550 0.616634 0.321738
vn 0.2240 0.2668 0.9374
vn -1.0000 0.0001 -0.0000
vn -1.0000 -0.0000 -0.0000
vn 0.4577 -0.0000 0.8891
vn 0.4576 -0.0000 0.8891
vn 0.5967 0.2966 0.7456
vn 0.5648 0.4278 0.7057
vn 0.3267 0.8257 0.4598
vn 0.2827 0.8200 0.4976
vn 0.5551 -0.0000 0.8318
vn 0.4561 -0.0833 0.8860
vn 0.5167 -0.0802 0.8524
vn 0.7068 0.0005 0.7074
vn 0.7068 -0.0000 0.7074
vn 0.7069 0.0003 0.7073
vn 0.7080 0.0024 0.7062
vn 0.7456 0.3137 0.5879
vn 0.4349 0.8165 0.3796
vn 0.3799 0.8165 0.4347
vn 0.2516 0.9084 0.3340
vn 0.2489 0.9096 0.3326
vn 0.2540 0.8908 0.3769
vn 0.6087 -0.0611 0.7911
vn 0.6088 -0.0608 0.7910
vn 0.6087 -0.0605 0.7911
vn 0.5631 -0.0774 0.8228
vn 0.5872 -0.0733 0.8061
vn -0.0000 -1.0000 -0.0000
vn 0.5989 -0.2202 0.7699
vn 0.5989 -0.2154 0.7713
vn 0.5748 -0.0813 0.8142
vn 0.7069 -0.0000 0.7073
vn 0.7080 -0.0000 0.7062
vn 0.7628 0.3003 0.5726
vn 0.7999 -0.0000 0.6001
vn 0.7632 0.2992 0.5726
vn 0.3336 0.9089 0.2504
vn 0.3340 0.9085 0.2513
vn 0.2394 0.9410 0.2391
vn -0.0000 1.0000 -0.0000
vn 0.0885 0.9872 0.1328
vn -0.0000 0.9977 0.0685
vn 0.6095 -0.0700 0.7897
vn 0.6097 -0.0700 0.7895
vn 0.7910 -0.0609 0.6088
vn 0.7069 -0.0001 0.7073
vn 0.6329 -0.0702 0.7711
vn 0.7368 -0.0672 0.6728
vn 0.7766 -0.0648 0.6266
vn 0.7855 -0.0637 0.6156
vn 0.6665 -0.0741 0.7418
vn 0.6322 -0.0702 0.7716
vn -0.8731 -0.0000 -0.4875
vn 0.6472 -0.2283 0.7273
vn 0.6007 -0.2184 0.7691
vn 0.7664 -0.1380 0.6274
vn 0.7453 -0.0828 0.6616
vn 0.6670 -0.0741 0.7414
vn 0.7914 -0.0604 0.6083
vn 0.7913 -0.0609 0.6084
vn 0.4109 0.8968 0.1643
vn 0.4106 0.8969 0.1642
vn 0.3111 0.9274 0.2076
vn 0.3324 0.9096 0.2492
vn 0.8981 0.1631 0.4085
vn 0.9129 0.1825 0.3651
vn 0.8042 -0.0423 0.5928
vn 0.8943 -0.0003 0.4475
vn 0.8614 -0.0718 0.5029
vn 0.7946 -0.0635 0.6038
vn 0.8065 -0.0734 0.5867
vn 0.7982 -0.0666 0.5987
vn 0.7987 -0.0665 0.5981
vn 0.7951 -0.0636 0.6031
vn -0.0005 -0.0000 -1.0000
vn -0.0000 -0.0000 -1.0000
vn -0.0001 -0.0000 -1.0000
vn -0.8830 0.0044 -0.4694
vn -0.8727 0.0042 -0.4882
vn 0.8323 -0.2112 0.5124
vn 0.8089 -0.1604 0.5657
vn 0.8580 -0.0781 0.5077
vn 0.8613 -0.0718 0.5031
vn 0.8298 -0.0691 0.5538
vn 0.8303 -0.0692 0.5529
vn 0.4451 0.8831 0.1483
vn 0.9282 0.2061 0.3097
vn 0.9282 0.2071 0.3092
vn 0.9285 -0.0000 0.3713
vn 0.9063 -0.0758 0.4158
vn 0.9207 -0.0743 0.3831
vn 0.8859 -0.0773 0.4574
vn 0.8913 -0.0775 0.4468
vn 0.8916 -0.0775 0.4461
vn 0.8920 -0.0775 0.4453
vn 0.8922 -0.0775 0.4449
vn -0.4316 0.8627 -0.2635
vn -0.5723 0.7458 -0.3411
vn 0.8588 -0.0780 0.5064
vn 0.8607 -0.0743 0.5036
vn 0.8601 -0.0741 0.5048
vn 0.9972 -0.0753 -0.0000
vn -0.8705 0.0054 -0.4922
vn -0.8494 0.1317 -0.5110
vn -0.8535 0.0702 -0.5164
vn -0.8534 0.0262 -0.5206
vn -0.8535 0.0154 -0.5209
vn 0.8765 -0.0797 0.4748
vn 0.8803 -0.0776 0.4680
vn 0.8613 0.4927 0.1244
vn 0.4932 0.8609 0.1248
vn 0.9425 0.2360 0.2367
vn 0.9486 -0.0000 0.3165
vn 1.0000 -0.0000 -0.0000
vn 0.4474 0.8943 -0.0000
vn 0.9258 -0.0749 0.3705
vn 0.9385 -0.0733 0.3374
vn -0.7788 0.4157 -0.4697
vn -0.7371 0.5130 -0.4399
vn 0.9945 -0.0739 0.0736
vn 0.9864 -0.0733 0.1470
vn -0.8462 0.1613 -0.5078
vn 0.8945 0.4470 -0.0000
s 0
f 1//1 2//1 3//1
f 1//2 3//2 8//2
f 1//2 8//2 19//2
f 1//3 19//3 34//3
f 1//3 34//3 51//3
f 1//3 51//3 73//3
f 1//3 73//3 85//3
f 1//3 85//3 78//3
f 1//2 78//2 56//2
f 1//3 56//3 41//3
f 1//3 41//3 24//3
f 1//3 24//3 10//3
f 1//3 10//3 4//3
f 1//4 4//4 9//4
f 1//5 9//5 2//5
f 2//6 5//6 6//6
f 2//7 6//7 7//7
f 2//8 7//8 8//8
f 2//9 8//9 3//9
f 2//10 9//10 13//10
f 2//10 13//10 5//10
f 4//11 10//11 11//11
f 4//12 11//12 9//12
f 5//13 12//13 6//13
f 5//14 13//14 22//14
f 5//14 22//14 12//14
f 6//15 12//15 14//15
f 6//16 14//16 15//16
f 6//17 15//17 16//17
f 6//18 16//18 17//18
f 6//19 17//19 7//19
f 7//20 17//20 18//20
f 7//21 18//21 19//21
f 7//22 19//22 8//22
f 9//23 20//23 21//23
f 9//24 21//24 22//24
f 9//25 22//25 13//25
f 9//26 11//26 23//26
f 9//27 23//27 20//27
f 10//28 24//28 40//28
f 10//28 40//28 54//28
f 10//28 54//28 76//28
f 10//28 76//28 67//28
f 10//28 67//28 70//28
f 10//28 70//28 69//28
f 10//28 69//28 68//28
f 10//28 68//28 58//28
f 10//28 58//28 42//28
f 10//28 42//28 25//28
f 10//28 25//28 11//28
f 11//29 25//29 26//29
f 11//30 26//30 27//30
f 11//31 27//31 23//31
f 12//32 22//32 28//32
f 12//32 28//32 14//32
f 14//33 28//33 30//33
f 14//33 30//33 15//33
f 15//34 29//34 16//34
f 15//35 30//35 31//35
f 15//36 31//36 29//36
f 16//37 29//37 32//37
f 16//38 32//38 17//38
f 17//39 32//39 18//39
f 18//40 32//40 48//40
f 18//40 48//40 47//40
f 18//40 47//40 46//40
f 18//40 46//40 65//40
f 18//40 65//40 84//40
f 18//40 84//40 71//40
f 18//40 71//40 51//40
f 18//40 51//40 34//40
f 18//40 34//40 33//40
f 18//41 33//41 19//41
f 19//42 33//42 34//42
f 20//43 23//43 35//43
f 20//44 35//44 21//44
f 21//45 36//45 28//45
f 21//46 28//46 22//46
f 21//47 35//47 37//47
f 21//48 37//48 38//48
f 21//49 38//49 39//49
f 21//50 39//50 36//50
f 23//51 27//51 37//51
f 23//52 37//52 35//52
f 24//53 41//53 55//53
f 24//53 55//53 40//53
f 25//54 42//54 27//54
f 25//55 27//55 26//55
f 27//56 42//56 43//56
f 27//57 43//57 38//57
f 27//58 38//58 37//58
f 28//59 44//59 30//59
f 28//60 36//60 44//60
f 29//61 45//61 46//61
f 29//62 46//62 47//62
f 29//63 47//63 48//63
f 29//64 48//64 32//64
f 29//65 31//65 49//65
f 29//66 49//66 63//66
f 29//66 63//66 45//66
f 30//67 44//67 31//67
f 31//68 50//68 49//68
f 31//69 44//69 50//69
f 36//70 39//70 44//70
f 38//71 43//71 52//71
f 38//72 52//72 39//72
f 39//73 52//73 53//73
f 39//74 53//74 44//74
f 40//75 55//75 77//75
f 40//76 77//76 80//76
f 40//77 80//77 79//77
f 40//76 79//76 72//76
f 40//76 72//76 71//76
f 40//76 71//76 84//76
f 40//76 84//76 88//76
f 40//76 88//76 86//76
f 40//76 86//76 75//76
f 40//76 75//76 54//76
f 41//78 56//78 57//78
f 41//79 57//79 55//79
f 42//80 58//80 59//80
f 42//81 59//81 43//81
f 43//82 59//82 52//82
f 44//83 60//83 61//83
f 44//69 61//69 50//69
f 44//84 53//84 52//84
f 44//85 52//85 60//85
f 45//86 62//86 65//86
f 45//86 65//86 46//86
f 45//87 63//87 64//87
f 45//88 64//88 62//88
f 49//89 66//89 63//89
f 49//90 50//90 67//90
f 49//91 67//91 66//91
f 50//92 61//92 58//92
f 50//93 58//93 68//93
f 50//94 68//94 69//94
f 50//95 69//95 70//95
f 50//96 70//96 67//96
f 51//97 71//97 72//97
f 51//98 72//98 73//98
f 52//99 59//99 74//99
f 52//100 74//100 61//100
f 52//101 61//101 60//101
f 54//102 75//102 76//102
f 55//103 57//103 77//103
f 56//104 78//104 79//104
f 56//105 79//105 57//105
f 57//106 79//106 80//106
f 57//107 80//107 77//107
f 58//108 74//108 59//108
f 58//109 61//109 74//109
f 62//110 81//110 82//110
f 62//111 82//111 65//111
f 62//112 64//112 81//112
f 63//113 66//113 83//113
f 63//113 83//113 64//113
f 64//114 83//114 87//114
f 64//114 87//114 75//114
f 64//114 75//114 86//114
f 64//114 86//114 81//114
f 65//115 82//115 88//115
f 65//115 88//115 84//115
f 66//116 67//116 76//116
f 66//117 76//117 83//117
f 72//118 79//118 85//118
f 72//119 85//119 73//119
f 75//120 87//120 76//120
f 76//121 87//121 83//121
f 78//122 85//122 79//122
f 81//123 86//123 88//123
f 81//123 88//123 82//123
