# Blender 4.4.0
# www.blender.org
mtllib coacd_convex_piece_1.mtl
o convex_0
v -0.491704 0.538118 0.462901
v -0.487699 0.504525 0.470898
v -0.487699 0.588558 0.487727
v -0.491704 0.593385 0.462901
v -0.416009 -0.384174 0.462901
v -0.482092 0.588558 0.498946
v -0.483494 0.596931 0.496127
v -0.490703 0.605404 0.462901
v -0.413940 -0.384174 0.467043
v -0.369117 -0.384174 0.462901
v -0.476485 0.588558 0.510137
v -0.409201 -0.384174 0.476508
v -0.433031 0.596931 0.563415
v -0.460365 0.605404 0.521356
v -0.475084 0.613777 0.496127
v -0.483494 0.613777 0.479327
v -0.487733 0.611314 0.462901
v -0.364378 -0.384174 0.465288
v -0.369117 -0.369890 0.462901
v -0.459664 0.538118 0.526966
v -0.426022 0.571712 0.577424
v -0.426022 0.588558 0.577424
v -0.375592 -0.384174 0.526966
v -0.409902 0.605404 0.588615
v -0.424620 0.613777 0.563415
v -0.439339 0.618013 0.538185
v -0.472981 0.618013 0.487727
v -0.482092 0.616634 0.470898
v -0.482092 0.616634 0.462901
v -0.150776 -0.384174 0.639361
v -0.364378 -0.369890 0.465288
v -0.385938 0.588558 0.462901
v -0.381166 0.588558 0.465288
v -0.392380 0.504525 0.611025
v -0.375592 0.538118 0.627854
v -0.375592 0.588558 0.627854
v -0.392380 0.605404 0.611025
v -0.358771 -0.384174 0.543795
v -0.399388 0.613777 0.597044
v -0.388875 0.618013 0.605444
v -0.437236 0.622249 0.521356
v -0.470878 0.622249 0.470898
v -0.470878 0.622249 0.462901
v -0.150776 -0.384174 0.672990
v -0.150776 -0.335705 0.639361
v -0.393648 0.605404 0.462901
v -0.150776 0.605995 0.656190
v -0.150776 0.605404 0.656104
v -0.308341 -0.384174 0.594225
v -0.358771 0.571712 0.644654
v -0.358771 0.588558 0.644654
v -0.308341 0.605404 0.678283
v -0.340548 0.613777 0.647473
v -0.382567 0.613777 0.613815
v -0.304836 0.618013 0.672674
v -0.369985 0.622249 0.605444
v -0.386773 0.622249 0.588615
v -0.298528 0.613777 0.681103
v -0.420415 0.622249 0.462901
v -0.168198 -0.384174 0.672674
v -0.150776 0.571712 0.756790
v -0.151377 0.571712 0.756790
v -0.396718 0.610723 0.462901
v -0.150776 0.616437 0.661368
v -0.257877 -0.384174 0.627854
v -0.291520 0.554964 0.695112
v -0.291520 0.588558 0.695112
v -0.273297 0.613777 0.697903
v -0.291520 0.616634 0.683893
v -0.285913 0.622249 0.672674
v -0.410336 0.619688 0.462901
v -0.151377 0.622249 0.672674
v -0.179412 -0.384174 0.667093
v -0.235449 0.588558 0.723132
v -0.277502 0.546492 0.702132
v -0.150776 0.589149 0.756790
v -0.151377 0.588558 0.756790
v -0.395183 0.613777 0.466698
v -0.405229 0.617619 0.462901
v -0.150776 0.622052 0.672616
v -0.222500 -0.384174 0.645546
v -0.257877 0.588558 0.711941
v -0.271194 0.605404 0.702132
v -0.239654 0.613777 0.714732
v -0.257877 0.616634 0.700722
v -0.218661 0.622249 0.706332
v -0.150776 0.622249 0.673307
v -0.237552 0.605404 0.718932
v -0.150776 0.605404 0.753165
v -0.153479 0.605404 0.752561
v -0.155582 0.613777 0.748361
v -0.224235 0.616634 0.717522
v -0.168198 0.622249 0.723132
v -0.150776 0.617718 0.742234
v -0.150776 0.618604 0.739961
v -0.150776 0.622249 0.723765
v -0.150776 0.607669 0.752273
v -0.150776 0.613777 0.748361
vn -0.9636 -0.0525 0.2621
vn -0.9872 -0.0000 0.1593
vn -0.0000 -0.0000 -1.0000
vn -0.9848 -0.0808 0.1537
vn -0.9186 -0.0776 0.3874
vn -0.8945 0.0007 0.4471
vn -0.9420 0.2135 0.2588
vn -0.9813 0.0817 0.1742
vn -0.8919 -0.0771 0.4455
vn -0.8918 -0.0771 0.4457
vn -0.0000 -1.0000 -0.0000
vn -0.8941 0.0011 0.4479
vn -0.8915 -0.0771 0.4464
vn -0.8914 -0.0771 0.4466
vn -0.7435 0.3693 0.5576
vn -0.7432 0.3710 0.5567
vn -0.8165 0.4076 0.4088
vn -0.9250 0.2684 0.2691
vn -0.7588 0.3170 0.5690
vn -0.7588 0.3169 0.5691
vn -0.8818 0.4432 0.1611
vn 0.4499 -0.0000 -0.8931
vn 0.4498 -0.0000 -0.8931
vn -0.8066 -0.0733 0.5866
vn -0.8000 -0.0000 0.6000
vn -0.8298 -0.0765 0.5527
vn -0.8069 -0.0736 0.5861
vn -0.7430 0.3702 0.5575
vn -0.7477 0.3342 0.5738
vn -0.7426 0.3716 0.5572
vn -0.7427 0.3715 0.5572
vn -0.7424 0.3726 0.5568
vn -0.6266 0.6217 0.4700
vn -0.4587 0.8343 0.3059
vn -0.5370 0.7996 0.2688
vn -0.5006 0.8418 0.2020
vn -0.7517 0.6525 0.0961
vn -0.6861 0.7275 -0.0000
vn 0.6317 -0.0000 -0.7752
vn 0.4474 0.0079 -0.8943
vn 0.4498 0.0079 -0.8931
vn -0.8065 -0.0735 0.5867
vn -0.7073 -0.0006 0.7069
vn -0.7071 -0.0000 0.7071
vn -0.7749 -0.0740 0.6278
vn -0.7071 0.0017 0.7071
vn -0.7448 0.3258 0.5823
vn -0.7050 -0.0800 0.7047
vn -0.7390 0.3463 0.5778
vn -0.6261 0.6223 0.4698
vn -0.6261 0.6224 0.4697
vn -0.2706 0.9410 0.2031
vn -0.2706 0.9410 0.2030
vn -0.2970 0.9341 0.1980
vn -0.4414 0.8817 0.1668
vn -0.4477 0.8942 -0.0000
vn 1.0000 -0.0000 -0.0000
vn 0.6306 0.0110 -0.7760
vn 0.4383 0.2006 -0.8762
vn 0.5872 0.3304 -0.7389
vn 0.6290 0.1119 -0.7693
vn 0.6372 0.0137 -0.7706
vn -0.7048 -0.0800 0.7048
vn -0.6282 -0.0740 0.7745
vn -0.7067 -0.0000 0.7075
vn -0.7067 -0.0000 0.7076
vn -0.6269 -0.0740 0.7756
vn -0.7067 0.0026 0.7076
vn -0.5656 0.4249 0.7068
vn -0.5656 0.4250 0.7067
vn -0.5652 0.4273 0.7056
vn -0.5823 0.4589 0.6710
vn -0.6611 0.4496 0.6006
vn -0.5965 0.2978 0.7453
vn -0.2111 0.9412 0.2638
vn -0.2138 0.9533 0.2133
vn -0.5334 0.5216 0.6659
vn -0.5316 0.5255 0.6642
vn -0.5301 0.5291 0.6626
vn -0.0000 1.0000 -0.0000
vn -0.0000 1.0000 -0.0003
vn -0.0000 -0.0873 0.9962
vn -0.0181 -0.0873 0.9960
vn 0.5856 0.3380 -0.7368
vn 0.5804 0.3618 -0.7296
vn -0.5528 -0.0792 0.8295
vn -0.6102 -0.0738 0.7888
vn -0.6002 -0.0000 0.7999
vn -0.6001 -0.0000 0.7999
vn -0.5885 0.1959 0.7844
vn -0.5199 0.3464 0.7808
vn -0.5192 0.2861 0.8053
vn -0.4939 0.5705 0.6563
vn -0.2043 0.9124 0.3546
vn -0.2107 0.9414 0.2635
vn -0.4863 0.4796 0.7304
vn 0.2348 0.9242 -0.3012
vn -0.3834 -0.0743 0.9206
vn -0.3850 -0.0743 0.9199
vn -0.4441 -0.0804 0.8924
vn -0.0001 -0.0000 1.0000
vn -0.0000 -0.0000 1.0000
vn -0.3717 -0.0000 0.9284
vn 0.5148 0.5543 -0.6540
vn 0.4727 0.5834 -0.6604
vn 0.4735 0.6419 -0.6032
vn 0.3391 0.8369 -0.4297
vn 0.3326 0.8438 -0.4212
vn -0.4458 -0.0806 0.8915
vn -0.4845 -0.0797 0.8712
vn -0.4478 -0.0000 0.8941
vn -0.4413 0.1648 0.8821
vn -0.5129 0.2809 0.8112
vn -0.4474 0.0002 0.8943
vn -0.4236 0.3214 0.8469
vn -0.2445 0.8374 0.4888
vn -0.1830 0.9125 0.3658
vn -0.1829 0.9127 0.3654
vn 0.2638 0.9039 -0.3368
vn 0.2775 0.9239 -0.2634
vn -0.4465 -0.0004 0.8948
vn -0.3655 0.1820 0.9129
vn -0.4404 0.1651 0.8825
vn -0.2093 0.2128 0.9544
vn -0.2131 0.2128 0.9536
vn -0.3651 0.1836 0.9127
vn -0.4406 0.1654 0.8823
vn -0.4234 0.3190 0.8479
vn -0.3480 0.3491 0.8701
vn -0.3480 0.3490 0.8701
vn -0.2501 0.7392 0.6253
vn -0.2436 0.8383 0.4878
vn -0.1831 0.9122 0.3666
vn -0.1433 0.9113 0.3859
vn -0.1288 0.9240 0.3602
vn -0.1039 0.9443 0.3121
vn -0.2036 0.3588 0.9110
vn -0.2311 0.3892 0.8917
vn -0.0000 0.5393 0.8421
vn -0.0000 0.8410 0.5410
vn -0.1614 0.8828 0.4412
vn -0.0080 0.9756 0.2196
s 0
f 1//1 2//1 3//1
f 1//2 3//2 4//2
f 1//3 4//3 8//3
f 1//3 8//3 17//3
f 1//3 17//3 29//3
f 1//3 29//3 43//3
f 1//3 43//3 59//3
f 1//3 59//3 71//3
f 1//3 71//3 79//3
f 1//3 79//3 63//3
f 1//3 63//3 46//3
f 1//3 46//3 32//3
f 1//3 32//3 19//3
f 1//3 19//3 10//3
f 1//3 10//3 5//3
f 1//4 5//4 2//4
f 2//5 5//5 3//5
f 3//6 6//6 7//6
f 3//7 7//7 8//7
f 3//8 8//8 4//8
f 3//9 5//9 9//9
f 3//10 9//10 6//10
f 5//11 10//11 18//11
f 5//11 18//11 30//11
f 5//11 30//11 44//11
f 5//11 44//11 60//11
f 5//11 60//11 73//11
f 5//11 73//11 81//11
f 5//11 81//11 65//11
f 5//11 65//11 49//11
f 5//11 49//11 38//11
f 5//11 38//11 23//11
f 5//11 23//11 12//11
f 5//11 12//11 9//11
f 6//12 11//12 7//12
f 6//13 9//13 12//13
f 6//14 12//14 11//14
f 7//15 13//15 14//15
f 7//16 14//16 15//16
f 7//17 15//17 16//17
f 7//18 16//18 8//18
f 7//19 11//19 22//19
f 7//20 22//20 13//20
f 8//21 16//21 17//21
f 10//22 19//22 31//22
f 10//23 31//23 18//23
f 11//24 20//24 21//24
f 11//25 21//25 22//25
f 11//26 12//26 23//26
f 11//27 23//27 20//27
f 13//28 24//28 14//28
f 13//29 22//29 24//29
f 14//30 24//30 39//30
f 14//31 39//31 25//31
f 14//32 25//32 15//32
f 15//33 25//33 26//33
f 15//34 26//34 27//34
f 15//35 27//35 16//35
f 16//36 27//36 28//36
f 16//37 28//37 17//37
f 17//38 28//38 29//38
f 18//39 31//39 45//39
f 18//39 45//39 30//39
f 19//40 32//40 33//40
f 19//41 33//41 31//41
f 20//42 23//42 21//42
f 21//43 34//43 35//43
f 21//44 35//44 36//44
f 21//44 36//44 22//44
f 21//45 23//45 34//45
f 22//46 36//46 37//46
f 22//47 37//47 24//47
f 23//48 38//48 34//48
f 24//49 37//49 39//49
f 25//50 39//50 40//50
f 25//51 40//51 26//51
f 26//52 40//52 57//52
f 26//53 57//53 41//53
f 26//54 41//54 42//54
f 26//54 42//54 27//54
f 27//55 42//55 28//55
f 28//56 42//56 43//56
f 28//56 43//56 29//56
f 30//57 45//57 48//57
f 30//57 48//57 47//57
f 30//57 47//57 64//57
f 30//57 64//57 80//57
f 30//57 80//57 87//57
f 30//57 87//57 96//57
f 30//57 96//57 95//57
f 30//57 95//57 94//57
f 30//57 94//57 98//57
f 30//57 98//57 97//57
f 30//57 97//57 89//57
f 30//57 89//57 76//57
f 30//57 76//57 61//57
f 30//57 61//57 44//57
f 31//58 33//58 45//58
f 32//59 46//59 33//59
f 33//60 46//60 47//60
f 33//61 47//61 48//61
f 33//62 48//62 45//62
f 34//63 38//63 49//63
f 34//64 49//64 35//64
f 35//65 50//65 51//65
f 35//66 51//66 36//66
f 35//67 49//67 50//67
f 36//68 51//68 37//68
f 37//69 52//69 58//69
f 37//70 58//70 53//70
f 37//71 53//71 54//71
f 37//72 54//72 40//72
f 37//73 40//73 39//73
f 37//74 51//74 52//74
f 40//75 55//75 56//75
f 40//76 56//76 57//76
f 40//77 54//77 53//77
f 40//78 53//78 58//78
f 40//79 58//79 55//79
f 41//80 57//80 56//80
f 41//80 56//80 70//80
f 41//80 70//80 86//80
f 41//80 86//80 93//80
f 41//80 93//80 96//80
f 41//80 96//80 87//80
f 41//81 87//81 72//81
f 41//80 72//80 59//80
f 41//80 59//80 43//80
f 41//80 43//80 42//80
f 44//82 61//82 62//82
f 44//83 62//83 60//83
f 46//84 63//84 47//84
f 47//85 63//85 64//85
f 49//86 65//86 66//86
f 49//87 66//87 50//87
f 50//88 66//88 67//88
f 50//89 67//89 51//89
f 51//90 67//90 52//90
f 52//91 68//91 58//91
f 52//92 67//92 68//92
f 55//93 58//93 69//93
f 55//94 69//94 70//94
f 55//95 70//95 56//95
f 58//96 68//96 69//96
f 59//97 72//97 71//97
f 60//98 62//98 74//98
f 60//99 74//99 75//99
f 60//100 75//100 73//100
f 61//101 76//101 77//101
f 61//102 77//102 62//102
f 62//103 77//103 74//103
f 63//104 78//104 64//104
f 63//105 79//105 78//105
f 64//106 78//106 79//106
f 64//107 79//107 71//107
f 64//108 71//108 80//108
f 65//109 81//109 75//109
f 65//110 75//110 66//110
f 66//111 75//111 67//111
f 67//112 82//112 83//112
f 67//113 83//113 68//113
f 67//114 75//114 82//114
f 68//115 83//115 84//115
f 68//116 84//116 85//116
f 68//116 85//116 69//116
f 69//117 85//117 86//117
f 69//118 86//118 70//118
f 71//119 72//119 80//119
f 72//120 87//120 80//120
f 73//109 75//109 81//109
f 74//121 82//121 75//121
f 74//122 77//122 88//122
f 74//123 88//123 82//123
f 76//124 89//124 77//124
f 77//125 89//125 90//125
f 77//126 90//126 88//126
f 82//127 88//127 83//127
f 83//128 88//128 84//128
f 84//129 88//129 90//129
f 84//130 90//130 91//130
f 84//131 91//131 92//131
f 84//132 92//132 85//132
f 85//133 92//133 86//133
f 86//134 92//134 94//134
f 86//135 94//135 95//135
f 86//136 95//136 93//136
f 89//137 97//137 90//137
f 90//138 97//138 91//138
f 91//139 97//139 98//139
f 91//140 98//140 94//140
f 91//141 94//141 92//141
f 93//142 95//142 96//142
