# Blender 4.4.0
# www.blender.org
o convex_22
v 0.007941 -0.193864 -0.570873
v 0.000922 -0.193864 -0.570873
v 0.041576 -0.193864 -0.579982
v 0.020466 0.335008 -0.682679
v 0.016818 0.335008 -0.681766
v -0.020176 -0.193864 -0.574564
v -0.016818 0.335008 -0.681766
v -0.029592 0.335008 -0.683373
v 0.042037 -0.193864 -0.580220
v 0.042037 -0.193398 -0.580220
v 0.033635 0.335008 -0.686687
v -0.037718 -0.193864 -0.579982
v -0.033635 0.335008 -0.684207
v 0.042274 -0.193864 -0.580676
v 0.058855 -0.193398 -0.613857
v 0.061950 0.335008 -0.727568
v 0.044842 0.335008 -0.695121
v 0.038640 0.335008 -0.689684
v -0.034978 0.335008 -0.684881
v -0.044395 0.335008 -0.694883
v -0.037836 -0.193398 -0.580220
v -0.038179 -0.193864 -0.580676
v 0.059092 -0.193864 -0.614313
v 0.067270 0.335008 -0.739971
v -0.044948 0.335008 -0.695836
v -0.046818 -0.193864 -0.597505
v 0.062305 -0.193864 -0.627212
v 0.067270 -0.184960 -0.639080
v 0.067270 0.285879 -0.756779
v 0.061660 0.335008 -0.751183
v -0.050110 0.335008 -0.706155
v -0.054772 -0.193864 -0.613380
v 0.063938 -0.193864 -0.639080
v 0.063056 -0.193398 -0.647494
v 0.067270 -0.168135 -0.655888
v 0.061660 0.285879 -0.767991
v 0.067270 0.134507 -0.756779
v 0.058855 0.294265 -0.769400
v 0.050453 0.335008 -0.756779
v -0.066928 0.335008 -0.739792
v -0.062937 -0.193864 -0.630209
v 0.062937 -0.193864 -0.647017
v 0.061910 -0.193864 -0.647950
v 0.063056 -0.176573 -0.664302
v 0.067270 -0.134537 -0.672697
v 0.061660 0.134507 -0.767991
v 0.067270 0.050485 -0.739971
v 0.063056 0.126120 -0.765193
v 0.050453 0.285879 -0.773607
v 0.050453 0.134507 -0.773607
v -0.050453 0.335008 -0.756779
v -0.066585 0.335008 -0.741300
v -0.067270 0.285879 -0.756779
v -0.067270 -0.168135 -0.655888
v -0.063175 -0.193864 -0.631122
v -0.063056 -0.193398 -0.630665
v 0.057077 -0.193864 -0.651463
v 0.056050 -0.179369 -0.667100
v 0.063056 -0.109273 -0.697919
v 0.067270 -0.100887 -0.689505
v 0.061660 0.050485 -0.751183
v 0.067270 -0.016814 -0.723142
v 0.063056 -0.025201 -0.731556
v 0.063056 0.042047 -0.748365
v -0.050453 0.285879 -0.773607
v 0.050453 0.050485 -0.756779
v -0.050453 0.134507 -0.773607
v -0.061660 0.291470 -0.767991
v -0.061660 0.335008 -0.751183
v -0.067270 0.134507 -0.756779
v -0.067270 -0.134537 -0.672697
v -0.064465 -0.182164 -0.653090
v -0.063175 -0.193864 -0.637293
v 0.051374 -0.193864 -0.654975
v 0.050453 -0.100887 -0.706334
v 0.056050 -0.112069 -0.700718
v 0.044842 -0.190551 -0.661504
v -0.044842 -0.179369 -0.667100
v 0.061660 -0.016814 -0.734354
v 0.050453 -0.016814 -0.739971
v 0.056050 0.039252 -0.751183
v 0.056050 -0.027996 -0.734354
v -0.050453 0.050485 -0.756779
v -0.061660 0.056077 -0.751183
v -0.061660 0.140098 -0.767991
v -0.067270 0.050485 -0.739971
v -0.064465 -0.148514 -0.669918
v -0.067270 -0.100887 -0.689505
v -0.061660 -0.095296 -0.700718
v -0.058855 -0.176573 -0.664302
v -0.056050 -0.190551 -0.661504
v -0.059316 -0.193864 -0.646561
v -0.049518 -0.193864 -0.654975
v -0.050453 -0.100887 -0.706334
v -0.050453 -0.016814 -0.739971
v -0.061660 -0.011171 -0.734354
v -0.067270 -0.016814 -0.723142
v -0.056050 -0.039230 -0.728758
v -0.056050 -0.123303 -0.695121
v -0.058763 -0.193864 -0.647395
vn -0.0000 -1.0000 -0.0000
vn 0.2564 0.1941 0.9469
vn 0.2381 0.1955 0.9514
vn -0.0000 0.2052 0.9787
vn -0.1223 0.1997 0.9722
vn -0.1690 0.1957 0.9660
vn 0.4587 -0.0000 0.8886
vn 0.2886 0.1935 0.9377
vn 0.2856 0.1937 0.9386
vn -0.0000 1.0000 -0.0000
vn -0.0000 1.0000 -0.0001
vn -0.1982 0.1941 0.9607
vn -0.2899 0.1872 0.9386
vn 0.8873 -0.0000 0.4612
vn 0.8943 0.0175 0.4471
vn 0.8943 0.0173 0.4471
vn 0.8908 0.0906 0.4454
vn 0.8805 0.0963 0.4642
vn 0.6509 0.1580 0.7426
vn 0.5056 0.1781 0.8442
vn -0.4414 0.1768 0.8797
vn -0.7211 0.1384 0.6789
vn -0.7661 0.1272 0.6300
vn -0.8310 0.0705 0.5518
vn 0.9155 0.0795 0.3945
vn 0.9161 0.0792 0.3930
vn -0.8607 0.0978 0.4996
vn -0.8434 0.1039 0.5271
vn -0.8862 0.0877 0.4549
vn 0.9479 -0.2138 0.2361
vn 0.9404 0.0648 0.3338
vn 0.8840 0.1513 -0.4423
vn 1.0000 -0.0000 -0.0000
vn -0.8910 0.0861 0.4458
vn -0.8907 0.0861 0.4463
vn 0.9289 -0.3476 0.1278
vn 0.9302 -0.3481 -0.1168
vn 0.9428 -0.2356 -0.2359
vn 0.8943 -0.0000 -0.4475
vn 0.4191 0.3464 -0.8393
vn 0.8219 0.1844 -0.5389
vn -0.8911 0.0860 0.4455
vn -0.8966 0.0834 0.4350
vn 0.9273 -0.3557 -0.1169
vn 0.4926 -0.6805 -0.5424
vn 0.4946 -0.6143 -0.6149
vn 0.9370 -0.1563 -0.3125
vn 0.4488 -0.0000 -0.8936
vn 0.9200 -0.0769 -0.3842
vn 0.8943 -0.0004 -0.4475
vn 0.1486 0.3204 -0.9355
vn 0.4480 -0.0000 -0.8940
vn 0.4477 -0.0000 -0.8942
vn -0.0000 0.3240 -0.9460
vn -0.9718 0.0831 -0.2207
vn -0.9999 0.0027 0.0123
vn -0.9799 0.0335 0.1968
vn -0.9759 0.0373 0.2150
vn -0.9508 0.0559 0.3046
vn -0.9679 -0.0004 0.2514
vn 0.4522 -0.6391 -0.6221
vn 0.4916 -0.6153 -0.6162
vn 0.4721 -0.3939 -0.7886
vn 0.4722 -0.3939 -0.7886
vn 0.9367 -0.1565 -0.3132
vn 0.6183 -0.1542 -0.7707
vn 0.4410 -0.1761 -0.8801
vn 0.9242 -0.0927 -0.3705
vn 0.9241 -0.0927 -0.3708
vn 0.9199 -0.0770 -0.3845
vn 0.6214 -0.1538 -0.7682
vn -0.0000 -0.0000 -1.0000
vn 0.4397 -0.1764 -0.8806
vn -0.0000 -0.1964 -0.9805
vn -0.4222 0.3265 -0.8457
vn -0.2982 0.3093 -0.9030
vn -0.8820 0.1697 -0.4396
vn -0.9114 0.1352 -0.3887
vn -0.8943 -0.0000 -0.4475
vn -1.0000 -0.0000 -0.0000
vn -0.8026 -0.2669 -0.5334
vn -0.9747 -0.2100 -0.0759
vn -0.9876 -0.1572 -0.0000
vn 0.3934 -0.6612 -0.6388
vn 0.0048 -0.4469 -0.8946
vn 0.3306 -0.6660 -0.6687
vn -0.0000 -0.4475 -0.8943
vn -0.0000 -0.4471 -0.8945
vn 0.4607 -0.3297 -0.8240
vn 0.4606 -0.3297 -0.8241
vn 0.9330 -0.1337 -0.3341
vn 0.4419 -0.2175 -0.8703
vn 0.4380 -0.2181 -0.8721
vn 0.4373 -0.2182 -0.8725
vn 0.4368 -0.2181 -0.8727
vn 0.4360 -0.2177 -0.8732
vn 0.4362 -0.2200 -0.8725
vn 0.4373 -0.2183 -0.8724
vn -0.4480 -0.0000 -0.8940
vn 0.4354 -0.2181 -0.8734
vn -0.0000 -0.2423 -0.9702
vn -0.5066 -0.1693 -0.8454
vn -0.5077 -0.1690 -0.8448
vn -0.8700 -0.0967 -0.4835
vn -0.8020 -0.2672 -0.5343
vn -0.8020 -0.2669 -0.5344
vn -0.8017 -0.2672 -0.5347
vn -0.8018 -0.2673 -0.5345
vn -0.8015 -0.2679 -0.5346
vn -0.8080 -0.5031 -0.3066
vn -0.7126 -0.6357 -0.2967
vn -0.0000 -0.8918 -0.4525
vn 0.1863 -0.3650 -0.9122
vn 0.1862 -0.3650 -0.9122
vn -0.0000 -0.3715 -0.9284
vn -0.0005 -0.4472 -0.8944
vn -0.5178 -0.2073 -0.8300
vn -0.5198 -0.2074 -0.8287
vn -0.8612 -0.1234 -0.4930
vn -0.8615 -0.1232 -0.4925
vn -0.8015 -0.2673 -0.5349
vn -0.8295 -0.2074 -0.5185
vn -0.8290 -0.2076 -0.5193
vn -0.6813 -0.2718 -0.6797
vn -0.6803 -0.2723 -0.6805
vn -0.8012 -0.2675 -0.5352
vn -0.8006 -0.2680 -0.5360
vn -0.2150 -0.9407 -0.2622
vn -0.4279 -0.8581 -0.2838
vn -0.0012 -0.4471 -0.8945
vn -0.3489 -0.3481 -0.8701
vn -0.5359 -0.2669 -0.8010
s 0
f 1//1 2//1 6//1
f 1//1 6//1 12//1
f 1//1 12//1 22//1
f 1//1 22//1 26//1
f 1//1 26//1 32//1
f 1//1 32//1 41//1
f 1//1 41//1 55//1
f 1//1 55//1 73//1
f 1//1 73//1 92//1
f 1//1 92//1 100//1
f 1//1 100//1 93//1
f 1//1 93//1 74//1
f 1//1 74//1 57//1
f 1//1 57//1 43//1
f 1//1 43//1 42//1
f 1//1 42//1 33//1
f 1//1 33//1 27//1
f 1//1 27//1 23//1
f 1//1 23//1 14//1
f 1//1 14//1 9//1
f 1//1 9//1 3//1
f 1//2 3//2 4//2
f 1//3 4//3 5//3
f 1//4 5//4 7//4
f 1//4 7//4 2//4
f 2//5 7//5 8//5
f 2//6 8//6 6//6
f 3//7 9//7 10//7
f 3//8 10//8 11//8
f 3//9 11//9 4//9
f 4//10 11//10 18//10
f 4//10 18//10 17//10
f 4//10 17//10 16//10
f 4//10 16//10 24//10
f 4//10 24//10 30//10
f 4//10 30//10 39//10
f 4//10 39//10 51//10
f 4//10 51//10 69//10
f 4//10 69//10 52//10
f 4//10 52//10 40//10
f 4//10 40//10 31//10
f 4//10 31//10 25//10
f 4//11 25//11 20//11
f 4//10 20//10 19//10
f 4//10 19//10 13//10
f 4//10 13//10 8//10
f 4//10 8//10 7//10
f 4//10 7//10 5//10
f 6//12 8//12 13//12
f 6//13 13//13 12//13
f 9//14 14//14 10//14
f 10//15 14//15 23//15
f 10//16 23//16 15//16
f 10//17 15//17 16//17
f 10//18 16//18 17//18
f 10//19 17//19 18//19
f 10//20 18//20 11//20
f 12//21 13//21 19//21
f 12//22 19//22 20//22
f 12//23 20//23 21//23
f 12//24 21//24 22//24
f 15//25 23//25 16//25
f 16//26 23//26 24//26
f 20//27 25//27 22//27
f 20//28 22//28 21//28
f 22//29 25//29 26//29
f 23//30 27//30 28//30
f 23//31 28//31 24//31
f 24//32 29//32 36//32
f 24//32 36//32 30//32
f 24//33 28//33 35//33
f 24//33 35//33 45//33
f 24//33 45//33 60//33
f 24//33 60//33 62//33
f 24//33 62//33 47//33
f 24//33 47//33 37//33
f 24//33 37//33 29//33
f 25//34 31//34 32//34
f 25//35 32//35 26//35
f 27//36 33//36 28//36
f 28//37 33//37 34//37
f 28//38 34//38 44//38
f 28//38 44//38 35//38
f 29//39 37//39 46//39
f 29//39 46//39 36//39
f 30//40 38//40 39//40
f 30//41 36//41 38//41
f 31//42 40//42 32//42
f 32//43 40//43 41//43
f 33//44 42//44 34//44
f 34//45 42//45 43//45
f 34//46 43//46 44//46
f 35//47 44//47 45//47
f 36//48 46//48 38//48
f 37//49 47//49 48//49
f 37//50 48//50 46//50
f 38//51 49//51 39//51
f 38//52 46//52 50//52
f 38//53 50//53 49//53
f 39//54 49//54 65//54
f 39//54 65//54 51//54
f 40//55 52//55 53//55
f 40//56 53//56 54//56
f 40//57 54//57 55//57
f 40//58 55//58 56//58
f 40//59 56//59 41//59
f 41//60 56//60 55//60
f 43//61 57//61 58//61
f 43//62 58//62 44//62
f 44//63 58//63 76//63
f 44//64 76//64 59//64
f 44//65 59//65 60//65
f 44//65 60//65 45//65
f 46//66 48//66 61//66
f 46//67 61//67 50//67
f 47//68 62//68 63//68
f 47//69 63//69 64//69
f 47//70 64//70 48//70
f 48//71 64//71 61//71
f 49//72 50//72 67//72
f 49//72 67//72 65//72
f 50//73 61//73 66//73
f 50//74 66//74 83//74
f 50//74 83//74 67//74
f 51//75 68//75 69//75
f 51//76 65//76 68//76
f 52//77 69//77 68//77
f 52//78 68//78 53//78
f 53//79 68//79 85//79
f 53//79 85//79 70//79
f 53//80 70//80 86//80
f 53//80 86//80 97//80
f 53//80 97//80 88//80
f 53//80 88//80 71//80
f 53//80 71//80 54//80
f 54//81 71//81 72//81
f 54//82 72//82 73//82
f 54//83 73//83 55//83
f 57//84 74//84 58//84
f 58//85 75//85 76//85
f 58//86 74//86 77//86
f 58//87 77//87 91//87
f 58//87 91//87 78//87
f 58//88 78//88 94//88
f 58//88 94//88 75//88
f 59//89 76//89 82//89
f 59//90 82//90 63//90
f 59//91 63//91 62//91
f 59//91 62//91 60//91
f 61//92 64//92 63//92
f 61//93 63//93 79//93
f 61//94 79//94 80//94
f 61//95 80//95 81//95
f 61//96 81//96 66//96
f 63//97 82//97 80//97
f 63//98 80//98 79//98
f 65//99 67//99 85//99
f 65//99 85//99 68//99
f 66//100 81//100 80//100
f 66//101 80//101 95//101
f 66//101 95//101 83//101
f 67//102 83//102 84//102
f 67//103 84//103 85//103
f 70//104 85//104 84//104
f 70//104 84//104 86//104
f 71//105 87//105 72//105
f 71//106 88//106 89//106
f 71//107 89//107 87//107
f 72//108 87//108 90//108
f 72//109 90//109 91//109
f 72//110 91//110 73//110
f 73//111 91//111 92//111
f 74//112 93//112 91//112
f 74//112 91//112 77//112
f 75//113 80//113 82//113
f 75//114 82//114 76//114
f 75//115 94//115 95//115
f 75//115 95//115 80//115
f 78//116 91//116 94//116
f 83//117 95//117 84//117
f 84//118 95//118 96//118
f 84//119 96//119 97//119
f 84//120 97//120 86//120
f 87//121 89//121 90//121
f 88//122 97//122 89//122
f 89//123 97//123 96//123
f 89//124 96//124 98//124
f 89//125 98//125 99//125
f 89//126 99//126 90//126
f 90//127 99//127 91//127
f 91//128 93//128 100//128
f 91//129 100//129 92//129
f 91//130 99//130 94//130
f 94//131 99//131 98//131
f 94//131 98//131 95//131
f 95//132 98//132 96//132
