# Blender 4.4.0
# www.blender.org
o convex_18
v 0.067434 -0.538163 0.138505
v -0.092219 -0.538163 0.138505
v 0.067434 -0.605428 0.138505
v 0.067434 -0.519899 -0.201810
v -0.092219 -0.519899 -0.200051
v -0.092219 -0.605428 0.138505
v -0.084077 -0.622249 -0.151318
v 0.067434 -0.622249 -0.167968
v 0.067434 -0.519899 -0.257988
v -0.092219 -0.519899 -0.248197
v -0.092219 -0.622249 -0.151318
v 0.067434 -0.622249 -0.201630
v 0.067434 -0.521182 -0.258485
v 0.067262 -0.521352 -0.285874
v 0.066543 -0.519899 -0.286596
v -0.059573 -0.519899 -0.311820
v -0.092219 -0.534106 -0.248197
v -0.092219 -0.622249 -0.184980
v 0.067262 -0.622249 -0.201810
v 0.067434 -0.622209 -0.201810
v 0.067434 -0.538163 -0.262952
v 0.063058 -0.529757 -0.294267
v 0.061136 -0.519899 -0.307037
v 0.067434 -0.616639 -0.213001
v -0.051884 -0.519899 -0.320935
v -0.092219 -0.609766 -0.206142
v -0.092219 -0.546629 -0.243910
v -0.092219 -0.546298 -0.244090
v -0.092219 -0.617250 -0.196802
v -0.067262 -0.622249 -0.201810
v 0.067434 -0.622079 -0.202126
v 0.051884 -0.519899 -0.322378
v -0.061651 -0.616639 -0.213001
v -0.048993 -0.519899 -0.322378
v -0.089688 -0.611029 -0.207406
v -0.092219 -0.613563 -0.202352
vn -0.0000 -0.0000 1.0000
vn 1.0000 -0.0000 -0.0000
vn 1.0000 -0.0001 -0.0000
vn 0.0006 0.9986 0.0536
vn -0.0000 0.9985 0.0539
vn -1.0000 -0.0000 -0.0000
vn -1.0000 -0.0001 -0.0000
vn -0.0000 -0.9983 0.0579
vn 0.0060 -0.9985 0.0548
vn -0.0000 1.0000 -0.0000
vn -0.0000 -1.0000 -0.0000
vn -0.0000 -1.0000 0.0002
vn 1.0000 0.0024 -0.0063
vn 0.9014 0.4320 -0.0281
vn -0.8897 -0.0000 -0.4565
vn 0.2214 -0.9519 -0.2117
vn 1.0000 0.0017 -0.0063
vn 0.9404 -0.1858 -0.2850
vn 0.9121 0.3314 -0.2413
vn 0.9999 -0.0090 -0.0141
vn 0.9417 -0.2033 -0.2681
vn -0.6890 -0.4331 -0.5812
vn -0.8067 -0.3034 -0.5072
vn -0.8206 -0.2730 -0.5022
vn -0.8630 -0.1613 -0.4788
vn -0.2540 -0.8908 -0.3767
vn -0.0000 -0.8940 -0.4482
vn -0.0000 -0.8940 -0.4481
vn 0.0619 -0.8926 -0.4465
vn 0.2104 -0.9041 -0.3718
vn 0.8883 -0.2890 -0.3568
vn 0.7820 -0.4075 -0.4716
vn -0.0000 -0.7491 -0.6625
vn -0.3271 -0.6808 -0.6554
vn -0.5756 -0.5334 -0.6198
vn -0.5766 -0.5772 -0.5782
vn -0.2677 -0.8025 -0.5332
vn -0.2672 -0.8011 -0.5355
vn -0.2672 -0.8012 -0.5355
vn -0.2718 -0.7050 -0.6550
s 0
f 1//1 2//1 6//1
f 1//1 6//1 3//1
f 1//2 3//2 8//2
f 1//2 8//2 12//2
f 1//2 12//2 20//2
f 1//3 20//3 31//3
f 1//2 31//2 24//2
f 1//2 24//2 21//2
f 1//2 21//2 13//2
f 1//2 13//2 9//2
f 1//2 9//2 4//2
f 1//4 4//4 5//4
f 1//5 5//5 2//5
f 2//6 5//6 10//6
f 2//6 10//6 17//6
f 2//6 17//6 28//6
f 2//7 28//7 27//7
f 2//6 27//6 26//6
f 2//6 26//6 36//6
f 2//6 36//6 29//6
f 2//6 29//6 18//6
f 2//6 18//6 11//6
f 2//6 11//6 6//6
f 3//8 6//8 11//8
f 3//8 11//8 7//8
f 3//9 7//9 8//9
f 4//10 9//10 15//10
f 4//10 15//10 23//10
f 4//10 23//10 32//10
f 4//10 32//10 34//10
f 4//10 34//10 25//10
f 4//10 25//10 16//10
f 4//10 16//10 10//10
f 4//10 10//10 5//10
f 7//11 11//11 18//11
f 7//11 18//11 30//11
f 7//11 30//11 19//11
f 7//12 19//12 12//12
f 7//11 12//11 8//11
f 9//13 13//13 14//13
f 9//14 14//14 15//14
f 10//15 16//15 17//15
f 12//16 19//16 20//16
f 13//17 21//17 14//17
f 14//18 22//18 23//18
f 14//19 23//19 15//19
f 14//20 21//20 24//20
f 14//21 24//21 22//21
f 16//22 25//22 26//22
f 16//23 26//23 27//23
f 16//24 27//24 28//24
f 16//25 28//25 17//25
f 18//26 29//26 30//26
f 19//27 30//27 33//27
f 19//28 33//28 24//28
f 19//29 24//29 31//29
f 19//30 31//30 20//30
f 22//31 24//31 23//31
f 23//32 24//32 32//32
f 24//33 33//33 34//33
f 24//33 34//33 32//33
f 25//34 34//34 35//34
f 25//35 35//35 26//35
f 26//36 35//36 36//36
f 29//37 36//37 30//37
f 30//38 36//38 33//38
f 33//39 36//39 35//39
f 33//40 35//40 34//40
