# Blender 4.4.0
# www.blender.org
o convex_1
v -0.420446 0.622249 0.462869
v -0.470887 0.622249 0.462869
v -0.410369 0.619688 0.462869
v -0.420446 0.622249 0.454043
v -0.504520 0.622249 0.386798
v -0.506612 0.618013 0.403593
v -0.482092 0.616634 0.462869
v -0.405257 0.617619 0.462869
v -0.470887 0.622249 0.138550
v -0.521328 0.622249 0.336348
v -0.532551 0.616634 0.336348
v -0.515725 0.616634 0.386798
v -0.517126 0.613777 0.395211
v -0.487749 0.611314 0.462869
v -0.396744 0.610723 0.462869
v -0.459682 0.616634 0.138550
v -0.521328 0.622249 0.138550
v -0.532551 0.616634 0.138550
v -0.543756 0.611019 0.252276
v -0.533952 0.613777 0.344730
v -0.533952 0.596931 0.361557
v -0.517126 0.596931 0.412007
v -0.510832 0.605404 0.420420
v -0.490696 0.605404 0.462869
v -0.393670 0.605404 0.462869
v -0.454079 0.605404 0.138550
v -0.538154 0.605404 0.138550
v -0.554979 0.588558 0.201827
v -0.543756 0.611019 0.201827
v -0.550759 0.596931 0.260690
v -0.554979 0.588558 0.252276
v -0.538154 0.605404 0.336348
v -0.538154 0.588558 0.353144
v -0.500318 0.596931 0.445661
v -0.521328 0.588558 0.403593
v -0.515725 0.588558 0.414832
v -0.491696 0.593385 0.462869
v -0.385976 0.588558 0.462869
v -0.437272 -0.302703 0.138550
v -0.538154 0.487679 0.138550
v -0.554979 0.554964 0.218654
v -0.538154 0.554964 0.353144
v -0.554979 0.571712 0.235449
v -0.470887 -0.384174 0.336348
v -0.515725 0.571712 0.414832
v -0.504520 0.538118 0.437247
v -0.498918 0.538118 0.448455
v -0.491696 0.538118 0.462869
v -0.521328 0.571712 0.403593
v -0.369168 -0.369890 0.462869
v -0.437272 -0.384174 0.138550
v -0.470887 -0.384174 0.138550
v -0.437272 -0.384174 0.420420
v -0.419573 -0.384174 0.455821
v -0.416026 -0.384174 0.462869
v -0.369168 -0.384174 0.462869
vn -0.0000 -0.0000 1.0000
vn 0.0001 -0.0000 1.0000
vn 0.2463 0.9692 -0.0000
vn -0.0000 1.0000 -0.0000
vn -0.4002 0.8992 0.1769
vn -0.4388 0.8756 0.2019
vn 0.3744 0.9251 -0.0626
vn 0.2831 0.9580 -0.0453
vn -0.4425 0.8845 0.1474
vn -0.4431 0.8842 0.1478
vn -0.4417 0.8814 0.1673
vn -0.5005 0.8417 0.2025
vn -0.5176 0.8232 0.2333
vn -0.6517 0.6930 0.3082
vn 0.6258 0.7726 -0.1074
vn 0.4467 0.8913 -0.0777
vn -0.0000 -0.0000 -1.0000
vn -0.4474 0.8943 -0.0000
vn -0.4480 0.8940 -0.0000
vn -0.8032 0.5919 0.0675
vn -0.5533 0.8123 0.1844
vn -0.5522 0.8131 0.1842
vn -0.9046 0.3012 0.3015
vn -0.9047 0.3008 0.3017
vn -0.8846 0.3292 0.3302
vn -0.7910 0.4936 0.3614
vn -0.8238 0.4108 0.3907
vn 0.8551 0.4942 -0.1569
vn 0.8826 0.4404 -0.1644
vn -0.8885 0.4433 -0.1182
vn -0.8883 0.4439 -0.1179
vn -0.8733 0.4809 0.0783
vn -0.8945 0.4470 -0.0000
vn -0.8945 0.4470 0.0039
vn -0.9287 0.3524 0.1151
vn -0.9294 0.3505 0.1158
vn -0.9425 0.2362 0.2365
vn -0.9427 0.2356 0.2363
vn -0.9370 0.1562 0.3125
vn -0.8894 0.1079 0.4442
vn -0.8774 0.2385 0.4162
vn -0.8950 0.0008 0.4462
vn -0.8946 0.0011 0.4468
vn -0.8855 0.0737 0.4588
vn 0.8968 0.4096 -0.1670
vn 0.9787 0.0181 -0.2046
vn -0.9664 -0.0000 -0.2570
vn -1.0000 -0.0000 -0.0000
vn -0.9866 -0.0731 -0.1459
vn -0.9864 -0.0000 0.1645
vn -0.9734 0.1619 0.1624
vn -0.9937 -0.0791 0.0792
vn -0.9874 -0.0732 0.1403
vn -0.9486 -0.0000 0.3164
vn -0.8945 -0.0000 0.4470
vn -0.8945 -0.0000 0.4471
vn -0.8945 -0.0001 0.4471
vn -0.8941 -0.0000 0.4480
vn -0.8950 -0.0000 0.4462
vn 0.9792 0.0172 -0.2021
vn 0.9787 -0.0000 -0.2055
vn -0.9867 -0.0761 -0.1433
vn -0.9960 -0.0892 -0.0000
vn -0.9937 -0.0791 0.0789
vn -0.9385 -0.0733 0.3373
vn -0.0000 -1.0000 -0.0000
vn -0.9259 -0.0749 0.3702
vn -0.8950 -0.0008 0.4462
vn -0.9198 -0.0741 0.3854
vn -0.8921 -0.0732 0.4459
vn -0.8920 -0.0732 0.4460
vn -0.8917 -0.0731 0.4468
vn -0.8909 -0.0731 0.4483
s 0
f 1//1 2//1 7//1
f 1//1 7//1 14//1
f 1//1 14//1 24//1
f 1//1 24//1 37//1
f 1//1 37//1 48//1
f 1//1 48//1 55//1
f 1//1 55//1 56//1
f 1//2 56//2 50//2
f 1//1 50//1 38//1
f 1//1 38//1 25//1
f 1//1 25//1 15//1
f 1//1 15//1 8//1
f 1//1 8//1 3//1
f 1//3 3//3 4//3
f 1//4 4//4 9//4
f 1//4 9//4 17//4
f 1//4 17//4 10//4
f 1//4 10//4 5//4
f 1//4 5//4 2//4
f 2//5 5//5 6//5
f 2//6 6//6 7//6
f 3//7 8//7 9//7
f 3//8 9//8 4//8
f 5//9 10//9 11//9
f 5//10 11//10 12//10
f 5//11 12//11 6//11
f 6//12 12//12 13//12
f 6//13 13//13 7//13
f 7//14 13//14 14//14
f 8//15 15//15 16//15
f 8//16 16//16 9//16
f 9//17 16//17 26//17
f 9//17 26//17 39//17
f 9//17 39//17 51//17
f 9//17 51//17 52//17
f 9//17 52//17 40//17
f 9//17 40//17 27//17
f 9//17 27//17 18//17
f 9//17 18//17 17//17
f 10//18 17//18 18//18
f 10//18 18//18 11//18
f 11//19 18//19 29//19
f 11//19 29//19 19//19
f 11//20 19//20 20//20
f 11//21 20//21 13//21
f 11//22 13//22 12//22
f 13//23 20//23 21//23
f 13//24 21//24 22//24
f 13//25 22//25 23//25
f 13//26 23//26 14//26
f 14//27 23//27 24//27
f 15//28 25//28 16//28
f 16//29 25//29 26//29
f 18//30 27//30 28//30
f 18//31 28//31 29//31
f 19//32 30//32 20//32
f 19//33 29//33 28//33
f 19//33 28//33 31//33
f 19//34 31//34 30//34
f 20//35 30//35 31//35
f 20//36 31//36 32//36
f 20//37 32//37 21//37
f 21//38 32//38 33//38
f 21//39 33//39 35//39
f 21//39 35//39 22//39
f 22//40 34//40 24//40
f 22//41 24//41 23//41
f 22//42 35//42 36//42
f 22//43 36//43 34//43
f 24//44 34//44 37//44
f 25//45 38//45 26//45
f 26//46 38//46 39//46
f 27//47 40//47 28//47
f 28//48 41//48 43//48
f 28//48 43//48 31//48
f 28//49 40//49 41//49
f 31//50 42//50 33//50
f 31//51 33//51 32//51
f 31//52 43//52 44//52
f 31//53 44//53 42//53
f 33//54 42//54 49//54
f 33//54 49//54 35//54
f 34//55 36//55 45//55
f 34//56 45//56 46//56
f 34//57 46//57 47//57
f 34//58 47//58 48//58
f 34//58 48//58 37//58
f 35//59 49//59 45//59
f 35//59 45//59 36//59
f 38//60 50//60 39//60
f 39//61 50//61 56//61
f 39//61 56//61 51//61
f 40//62 52//62 41//62
f 41//63 52//63 44//63
f 41//64 44//64 43//64
f 42//65 44//65 49//65
f 44//66 52//66 51//66
f 44//66 51//66 56//66
f 44//66 56//66 55//66
f 44//66 55//66 54//66
f 44//66 54//66 53//66
f 44//67 53//67 49//67
f 45//68 49//68 46//68
f 46//69 49//69 53//69
f 46//70 53//70 47//70
f 47//71 53//71 54//71
f 47//72 54//72 48//72
f 48//73 54//73 55//73
