# Blender 4.4.0
# www.blender.org
o convex_16
v 0.358915 -0.353240 -0.089356
v 0.358915 -0.532977 -0.089356
v 0.358772 -0.369991 -0.089710
v 0.358744 -0.353240 -0.089744
v 0.320222 -0.353240 -0.089356
v 0.358772 -0.532977 -0.089710
v 0.283213 -0.532977 -0.089356
v 0.347558 -0.353240 -0.112132
v 0.309693 -0.369991 -0.089356
v 0.067434 -0.353240 -0.218626
v 0.347558 -0.532977 -0.112132
v 0.067434 -0.437100 -0.201801
v 0.067434 -0.532977 -0.195361
v 0.343677 -0.532977 -0.119886
v 0.341937 -0.369991 -0.123342
v 0.341908 -0.353240 -0.123359
v 0.067434 -0.418431 -0.205510
v 0.067434 -0.353240 -0.252258
v 0.067434 -0.532977 -0.261581
v 0.341937 -0.532977 -0.123342
v 0.274681 -0.369991 -0.173782
v 0.274624 -0.353240 -0.173799
v 0.084041 -0.353240 -0.252258
v 0.151326 -0.353240 -0.235433
v 0.151383 -0.369991 -0.235433
v 0.151383 -0.532977 -0.235433
v 0.274681 -0.532977 -0.173782
v 0.177264 -0.532977 -0.222503
v 0.162597 -0.353240 -0.229836
v 0.207396 -0.353240 -0.207432
v 0.252224 -0.353240 -0.185010
v 0.154835 -0.532977 -0.233714
v 0.162597 -0.532977 -0.229836
vn 0.9272 -0.0000 -0.3744
vn 0.9273 -0.0000 -0.3744
vn 0.9150 0.0007 -0.4035
vn -0.0000 1.0000 -0.0000
vn -0.0000 1.0000 0.0004
vn -0.0000 -0.0000 1.0000
vn -0.0000 -1.0000 -0.0000
vn -0.0000 -1.0000 -0.0018
vn -0.0000 -1.0000 0.0014
vn 0.8944 -0.0000 -0.4473
vn 0.8946 0.0006 -0.4470
vn -0.4377 0.2751 0.8560
vn -0.4360 0.0708 0.8971
vn -0.4401 0.0602 0.8959
vn 0.8942 -0.0000 -0.4476
vn 0.8939 -0.0000 -0.4483
vn 0.8933 0.0011 -0.4495
vn -0.4540 0.1757 0.8735
vn -0.4538 0.1736 0.8740
vn -1.0000 -0.0000 -0.0000
vn -1.0000 0.0001 -0.0000
vn 0.8932 -0.0000 -0.4497
vn 0.6000 -0.0000 -0.8000
vn 0.6000 0.0002 -0.8000
vn 0.5998 0.0012 -0.8001
vn -0.0000 0.0518 -0.9987
vn 0.2425 0.0279 -0.9698
vn 0.2956 0.0010 -0.9553
vn 0.2974 -0.0000 -0.9548
vn 0.4473 -0.0000 -0.8944
vn 0.4473 0.0002 -0.8944
vn 0.4476 0.0006 -0.8943
vn 0.4448 0.0015 -0.8956
vn 0.4458 -0.0000 -0.8952
vn 0.4466 -0.0000 -0.8948
vn 0.4472 -0.0000 -0.8944
vn 0.4469 -0.0000 -0.8946
s 0
f 1//1 2//1 6//1
f 1//2 6//2 3//2
f 1//3 3//3 4//3
f 1//4 4//4 8//4
f 1//5 8//5 16//5
f 1//4 16//4 22//4
f 1//4 22//4 31//4
f 1//4 31//4 30//4
f 1//4 30//4 29//4
f 1//4 29//4 24//4
f 1//4 24//4 23//4
f 1//4 23//4 18//4
f 1//4 18//4 10//4
f 1//4 10//4 5//4
f 1//6 5//6 9//6
f 1//6 9//6 7//6
f 1//6 7//6 2//6
f 2//7 7//7 13//7
f 2//7 13//7 19//7
f 2//7 19//7 26//7
f 2//7 26//7 32//7
f 2//7 32//7 33//7
f 2//7 33//7 28//7
f 2//7 28//7 27//7
f 2//7 27//7 20//7
f 2//8 20//8 14//8
f 2//9 14//9 11//9
f 2//7 11//7 6//7
f 3//10 6//10 11//10
f 3//10 11//10 8//10
f 3//11 8//11 4//11
f 5//12 10//12 9//12
f 7//13 9//13 12//13
f 7//14 12//14 13//14
f 8//15 11//15 14//15
f 8//16 14//16 15//16
f 8//17 15//17 16//17
f 9//18 10//18 17//18
f 9//19 17//19 12//19
f 10//20 18//20 19//20
f 10//20 19//20 13//20
f 10//20 13//20 12//20
f 10//21 12//21 17//21
f 14//22 20//22 15//22
f 15//23 20//23 27//23
f 15//23 27//23 21//23
f 15//24 21//24 16//24
f 16//25 21//25 22//25
f 18//26 23//26 19//26
f 19//27 23//27 24//27
f 19//28 24//28 25//28
f 19//29 25//29 26//29
f 21//30 27//30 28//30
f 21//30 28//30 29//30
f 21//30 29//30 30//30
f 21//31 30//31 31//31
f 21//32 31//32 22//32
f 24//33 29//33 25//33
f 25//34 32//34 26//34
f 25//35 29//35 32//35
f 28//36 33//36 29//36
f 29//37 33//37 32//37
