# Blender 4.4.0
# www.blender.org
o convex_2
v -0.470891 -0.538073 0.138606
v -0.117735 -0.538073 0.689497
v 0.470891 -0.538073 0.336353
v 0.252340 -0.538073 0.630584
v 0.378323 -0.538073 0.521429
v 0.437201 -0.538073 0.420554
v 0.465284 -0.543775 0.347580
v 0.431640 -0.543775 0.431614
v 0.414817 -0.543775 0.465239
v 0.397995 -0.611035 0.431614
v 0.381173 -0.611035 0.465239
v 0.378369 -0.618039 0.462460
v 0.313884 -0.611035 0.549329
v 0.381173 -0.543775 0.515704
v 0.411968 -0.538073 0.470964
v 0.297108 -0.543775 0.599794
v 0.246641 -0.611035 0.599794
v 0.311080 -0.618039 0.546550
v 0.302715 -0.622241 0.538158
v 0.369958 -0.622241 0.454068
v 0.235472 -0.622241 0.588567
v 0.243837 -0.618039 0.597015
v 0.179398 -0.611035 0.633419
v 0.213042 -0.543775 0.650259
v 0.179398 -0.543775 0.667043
v 0.134584 -0.607533 0.651648
v 0.128977 -0.543775 0.683884
v 0.117762 -0.538073 0.689497
v 0.168275 -0.538073 0.672657
v 0.246641 -0.543775 0.633419
v 0.302761 -0.538073 0.596959
v 0.016829 -0.538073 0.706337
v 0.033651 -0.605424 0.672657
v 0.050473 -0.607533 0.668489
v 0.033651 -0.616638 0.667043
v -0.042066 -0.613837 0.668489
v -0.025240 -0.546576 0.702113
v -0.016827 -0.538073 0.706337
v -0.126148 -0.546576 0.685273
v -0.126148 -0.613837 0.651648
v -0.176626 -0.546576 0.668489
v -0.168213 -0.538073 0.672657
v -0.190632 -0.538073 0.661486
v -0.308319 -0.538073 0.594180
v -0.257842 -0.538073 0.627805
v -0.257842 -0.538164 0.627805
v -0.308319 -0.538164 0.594180
v -0.243836 -0.546576 0.634808
v -0.243836 -0.613837 0.601183
v -0.294267 -0.546576 0.601183
v -0.311093 -0.613837 0.542326
v -0.252249 -0.618039 0.590679
v -0.176626 -0.613837 0.634808
v -0.117735 -0.616638 0.650259
v -0.168213 -0.616638 0.633419
v -0.168213 -0.622241 0.622247
v -0.185038 -0.618039 0.624304
v -0.235423 -0.622241 0.588567
v -0.353157 -0.622241 0.470852
v -0.269075 -0.618039 0.573894
v -0.353157 -0.618039 0.489805
v -0.364344 -0.616638 0.476466
v -0.361570 -0.613837 0.483469
v -0.378350 -0.546576 0.517094
v -0.412001 -0.546576 0.466684
v -0.378350 -0.613837 0.458236
v -0.395176 -0.613837 0.424611
v -0.431647 -0.549378 0.426001
v -0.414821 -0.549378 0.459626
v -0.437240 -0.538073 0.420443
v -0.409182 -0.538073 0.476466
v -0.375576 -0.538164 0.526931
v -0.375576 -0.538073 0.526931
v -0.470891 -0.538073 0.336353
v -0.470891 -0.538164 0.336353
v -0.465252 -0.549378 0.341967
v -0.431647 -0.616638 0.341967
v -0.431647 -0.616638 0.138606
v -0.420414 -0.622241 0.138606
v -0.420414 -0.622241 0.336353
v 0.420425 -0.622241 0.138606
v 0.117762 -0.622241 0.639032
v -0.117735 -0.622241 0.639032
v -0.033653 -0.622241 0.655872
v -0.033653 -0.616638 0.667043
v 0.042062 -0.618039 0.664265
v 0.033651 -0.622241 0.655872
v 0.126173 -0.618039 0.647424
v 0.168183 -0.622241 0.622247
v 0.176594 -0.618039 0.630640
v 0.117762 -0.616638 0.650259
v 0.420425 -0.622241 0.336353
v 0.386780 -0.622241 0.420443
v 0.395191 -0.618039 0.428835
v 0.428836 -0.618039 0.344801
v 0.442854 -0.611035 0.218639
v 0.431640 -0.616638 0.336353
v 0.431640 -0.611035 0.347580
v 0.454069 -0.588607 0.218639
v 0.449841 -0.597020 0.210246
v 0.470891 -0.538073 0.138662
v 0.431640 -0.616638 0.138606
vn -0.0000 1.0000 -0.0000
vn 0.9135 -0.1786 0.3655
vn 0.9130 -0.1814 0.3655
vn 0.8943 -0.0043 0.4474
vn 0.8164 -0.4084 0.4084
vn 0.7884 -0.4721 0.3944
vn 0.6811 -0.4889 0.5450
vn 0.7070 -0.4245 0.5657
vn 0.7682 -0.3842 0.5121
vn 0.8239 -0.1397 0.5493
vn 0.8239 -0.1398 0.5493
vn 0.8942 -0.0026 0.4476
vn 0.6671 -0.3347 0.6655
vn 0.6666 -0.3338 0.6665
vn 0.5473 -0.4107 0.7293
vn 0.5242 -0.4870 0.6985
vn 0.2624 -0.9418 0.2100
vn 0.2618 -0.9421 0.2094
vn -0.0000 -1.0000 -0.0000
vn 0.2016 -0.9418 0.2689
vn 0.2024 -0.9414 0.2697
vn 0.5243 -0.4870 0.6985
vn 0.3945 -0.4710 0.7890
vn 0.4082 -0.4086 0.8163
vn 0.4075 -0.4083 0.8168
vn 0.3124 -0.4248 0.8497
vn 0.2887 -0.4117 0.8644
vn 0.2236 -0.4240 0.8776
vn 0.3019 -0.2977 0.9057
vn 0.3021 -0.3012 0.9044
vn 0.4464 -0.0102 0.8948
vn 0.4476 0.0011 0.8943
vn 0.4481 -0.0034 0.8940
vn 0.4091 -0.4080 0.8162
vn 0.5119 -0.3841 0.7684
vn 0.5491 -0.1391 0.8241
vn 0.5497 -0.1352 0.8243
vn 0.6674 -0.3297 0.6677
vn 0.1500 -0.4120 0.8988
vn 0.1661 -0.4294 0.8877
vn 0.1632 -0.4417 0.8822
vn 0.0005 -0.4477 0.8942
vn 0.0005 -0.4472 0.8944
vn 0.0006 -0.4471 0.8945
vn -0.0000 -0.4449 0.8956
vn -0.1564 -0.3109 0.9375
vn -0.1500 -0.4118 0.8988
vn -0.1763 -0.4401 0.8804
vn -0.2851 -0.4286 0.8573
vn -0.3116 -0.1572 0.9371
vn -0.3129 -0.1502 0.9379
vn -0.4460 0.0025 0.8950
vn -0.4485 -0.0000 0.8938
vn -0.5545 -0.0000 0.8322
vn -0.5542 -0.0000 0.8324
vn -0.5403 -0.2244 0.8110
vn -0.4480 -0.0017 0.8940
vn -0.4090 -0.4080 0.8162
vn -0.5122 -0.3840 0.7682
vn -0.5402 -0.2279 0.8101
vn -0.5972 -0.4384 0.6717
vn -0.5905 -0.4427 0.6748
vn -0.5739 -0.4904 0.6558
vn -0.2676 -0.8014 0.5349
vn -0.4083 -0.4087 0.8162
vn -0.2859 -0.4291 0.8568
vn -0.1821 -0.8178 0.5459
vn -0.1479 -0.8841 0.4434
vn -0.1661 -0.8815 0.4421
vn -0.1991 -0.8445 0.4972
vn -0.1831 -0.9124 0.3660
vn -0.1824 -0.9134 0.3640
vn -0.2113 -0.9543 0.2113
vn -0.2116 -0.9542 0.2116
vn -0.3555 -0.9125 0.2023
vn -0.6558 -0.5747 0.4896
vn -0.6684 -0.4739 0.5733
vn -0.3495 -0.8693 0.3494
vn -0.3514 -0.8674 0.3523
vn -0.2116 -0.9540 0.2121
vn -0.6749 -0.4577 0.5788
vn -0.7483 -0.4364 0.4995
vn -0.7489 -0.4372 0.4980
vn -0.7266 -0.4885 0.4832
vn -0.4828 -0.8418 0.2416
vn -0.7948 -0.4583 0.3977
vn -0.8721 -0.2216 0.4364
vn -0.7598 -0.4402 0.4784
vn -0.8730 -0.2173 0.4366
vn -0.8735 -0.2137 0.4375
vn -0.7831 -0.3396 0.5209
vn -0.7788 -0.3511 0.5199
vn -0.6743 -0.4565 0.5805
vn -0.6427 -0.4169 0.6428
vn -0.7069 -0.0000 0.7073
vn -0.7073 -0.0000 0.7069
vn -0.8327 -0.0000 0.5538
vn -0.9284 -0.0000 0.3715
vn -0.8947 -0.2665 0.3583
vn -0.8939 -0.2705 0.3575
vn -0.8423 -0.4208 0.3368
vn -0.8945 -0.4469 0.0058
vn -0.8944 -0.4473 -0.0000
vn -0.8946 -0.4469 -0.0002
vn -1.0000 -0.0000 -0.0000
vn -0.0000 -0.0000 -1.0000
vn -0.4464 -0.8949 -0.0000
vn -0.3644 -0.9132 0.1822
vn -0.1469 -0.8851 0.4417
vn -0.0891 -0.8912 0.4448
vn -0.0891 -0.8903 0.4465
vn -0.1321 -0.7382 0.6616
vn -0.0000 -0.4587 0.8886
vn -0.0000 -0.8929 0.4503
vn -0.0001 -0.8939 0.4483
vn -0.0000 -0.8942 0.4477
vn 0.0768 -0.9202 0.3837
vn 0.0768 -0.9202 0.3838
vn 0.1162 -0.9298 0.3491
vn 0.1162 -0.9299 0.3491
vn 0.2667 -0.5357 0.8012
vn 0.2008 -0.4996 0.8427
vn 0.1529 -0.6273 0.7636
vn 0.1551 -0.6099 0.7771
vn 0.1738 -0.4595 0.8710
vn 0.1747 -0.4560 0.8727
vn 0.1765 -0.4377 0.8816
vn 0.3050 -0.4542 0.8371
vn 0.1563 -0.9370 0.3125
vn 0.1560 -0.9373 0.3117
vn -0.1337 -0.7325 0.6675
vn 0.3123 -0.9371 0.1562
vn 0.8239 -0.4607 0.3299
vn 0.3332 -0.9334 0.1334
vn 0.3327 -0.9336 0.1331
vn 0.4469 -0.8946 -0.0000
vn 0.4470 -0.8946 -0.0000
vn 0.8730 -0.4366 0.2174
vn 0.8725 -0.4364 0.2196
vn 0.8420 -0.4212 0.3371
vn 0.8737 -0.4365 0.2147
vn 0.8927 -0.4460 0.0639
vn 0.8926 -0.4463 0.0638
vn 0.8944 -0.4472 -0.0022
vn 0.9147 -0.3997 -0.0601
vn 0.8897 -0.4444 -0.1043
vn 0.8695 -0.4861 -0.0878
vn 0.0001 0.0007 -1.0000
vn 0.9488 -0.3158 -0.0000
vn -0.3654 -0.9127 0.1828
vn -0.8048 -0.4634 0.3709
s 0
f 2//1 3//1 1//1
f 4//1 3//1 2//1
f 5//1 3//1 4//1
f 6//1 3//1 5//1
f 6//2 7//2 3//2
f 6//3 8//3 7//3
f 9//4 8//4 6//4
f 9//5 10//5 8//5
f 11//5 10//5 9//5
f 11//6 12//6 10//6
f 11//7 13//7 12//7
f 11//8 14//8 13//8
f 11//9 9//9 14//9
f 9//10 5//10 14//10
f 15//11 5//11 9//11
f 15//1 6//1 5//1
f 15//12 9//12 6//12
f 13//13 14//13 5//13
f 13//14 5//14 16//14
f 13//15 16//15 17//15
f 13//16 17//16 18//16
f 13//7 18//7 12//7
f 19//17 12//17 18//17
f 19//18 20//18 12//18
f 19//19 21//19 20//19
f 19//20 22//20 21//20
f 19//21 18//21 22//21
f 18//22 17//22 22//22
f 17//23 23//23 22//23
f 24//24 23//24 17//24
f 25//25 23//25 24//25
f 25//26 26//26 23//26
f 27//27 26//27 25//27
f 27//28 28//28 26//28
f 27//29 29//29 28//29
f 27//30 25//30 29//30
f 25//31 24//31 29//31
f 24//32 4//32 29//32
f 24//33 30//33 4//33
f 24//34 17//34 30//34
f 17//35 16//35 30//35
f 30//36 16//36 4//36
f 31//37 4//37 16//37
f 31//1 5//1 4//1
f 31//38 16//38 5//38
f 29//1 4//1 28//1
f 28//1 4//1 32//1
f 33//39 28//39 32//39
f 33//40 34//40 28//40
f 33//41 35//41 34//41
f 33//42 36//42 35//42
f 33//43 37//43 36//43
f 33//44 32//44 37//44
f 38//45 37//45 32//45
f 39//46 37//46 38//46
f 39//47 36//47 37//47
f 39//48 40//48 36//48
f 39//49 41//49 40//49
f 39//50 2//50 41//50
f 39//46 38//46 2//46
f 38//1 32//1 2//1
f 32//1 4//1 2//1
f 42//51 41//51 2//51
f 42//52 43//52 41//52
f 42//1 2//1 43//1
f 43//1 2//1 44//1
f 45//1 43//1 44//1
f 45//53 46//53 43//53
f 45//54 44//54 46//54
f 46//55 44//55 47//55
f 48//56 46//56 47//56
f 48//57 41//57 46//57
f 48//58 49//58 41//58
f 48//59 50//59 49//59
f 48//60 47//60 50//60
f 51//61 50//61 47//61
f 49//62 50//62 51//62
f 49//63 51//63 52//63
f 49//64 52//64 53//64
f 49//65 53//65 41//65
f 53//66 40//66 41//66
f 53//67 54//67 40//67
f 55//67 54//67 53//67
f 55//68 56//68 54//68
f 55//69 57//69 56//69
f 55//70 53//70 57//70
f 57//64 53//64 52//64
f 57//71 52//71 56//71
f 58//72 56//72 52//72
f 58//19 59//19 56//19
f 60//73 59//73 58//73
f 61//74 59//74 60//74
f 61//75 62//75 59//75
f 61//76 63//76 62//76
f 61//77 51//77 63//77
f 61//78 60//78 51//78
f 60//79 52//79 51//79
f 60//80 58//80 52//80
f 63//81 51//81 64//81
f 65//82 63//82 64//82
f 66//83 63//83 65//83
f 66//84 62//84 63//84
f 66//85 67//85 62//85
f 66//86 68//86 67//86
f 69//86 68//86 66//86
f 69//87 65//87 68//87
f 69//88 66//88 65//88
f 65//89 70//89 68//89
f 65//90 71//90 70//90
f 65//91 72//91 71//91
f 65//92 64//92 72//92
f 72//93 64//93 51//93
f 72//94 51//94 47//94
f 72//95 47//95 44//95
f 73//96 72//96 44//96
f 73//97 71//97 72//97
f 73//1 44//1 71//1
f 44//1 2//1 71//1
f 71//1 2//1 1//1
f 74//1 71//1 1//1
f 70//1 71//1 74//1
f 70//98 74//98 75//98
f 70//99 75//99 68//99
f 76//100 68//100 75//100
f 76//101 77//101 68//101
f 76//102 75//102 77//102
f 75//103 78//103 77//103
f 75//104 1//104 78//104
f 74//105 1//105 75//105
f 78//106 1//106 79//106
f 78//107 79//107 77//107
f 80//107 77//107 79//107
f 80//108 59//108 77//108
f 80//19 79//19 59//19
f 59//19 79//19 56//19
f 81//19 56//19 79//19
f 21//19 56//19 81//19
f 82//19 56//19 21//19
f 83//19 56//19 82//19
f 54//109 56//109 83//109
f 84//110 54//110 83//110
f 85//111 54//111 84//111
f 85//112 36//112 54//112
f 85//113 35//113 36//113
f 85//114 86//114 35//114
f 85//115 84//115 86//115
f 87//116 86//116 84//116
f 87//117 88//117 86//117
f 87//118 82//118 88//118
f 87//19 84//19 82//19
f 84//19 83//19 82//19
f 89//119 88//119 82//119
f 90//120 88//120 89//120
f 26//121 88//121 90//121
f 91//122 88//122 26//122
f 91//123 86//123 88//123
f 91//124 35//124 86//124
f 91//125 34//125 35//125
f 91//126 26//126 34//126
f 26//127 28//127 34//127
f 26//128 90//128 23//128
f 90//23 22//23 23//23
f 90//129 89//129 22//129
f 89//130 21//130 22//130
f 89//19 82//19 21//19
f 54//131 36//131 40//131
f 92//19 21//19 81//19
f 20//19 21//19 92//19
f 93//19 20//19 92//19
f 93//132 12//132 20//132
f 94//132 12//132 93//132
f 94//6 10//6 12//6
f 94//133 95//133 10//133
f 94//134 93//134 95//134
f 93//135 92//135 95//135
f 92//136 81//136 95//136
f 96//136 95//136 81//136
f 97//137 95//137 96//137
f 7//138 95//138 97//138
f 98//139 95//139 7//139
f 98//133 10//133 95//133
f 98//140 8//140 10//140
f 98//140 7//140 8//140
f 7//141 97//141 3//141
f 97//142 99//142 3//142
f 97//143 96//143 99//143
f 100//144 99//144 96//144
f 100//145 101//145 99//145
f 100//146 102//146 101//146
f 100//147 96//147 102//147
f 102//136 96//136 81//136
f 102//106 81//106 1//106
f 102//148 1//148 101//148
f 101//1 1//1 3//1
f 99//149 101//149 3//149
f 81//106 79//106 1//106
f 62//150 77//150 59//150
f 62//85 67//85 77//85
f 67//151 68//151 77//151
f 46//57 41//57 43//57
