# Blender 4.4.0
# www.blender.org
o convex_9
v 0.884916 0.375393 0.167091
v 0.874769 0.375393 0.146284
v 0.882976 0.375393 0.174856
v 0.895561 0.354070 0.166616
v 0.888647 0.367937 0.159662
v 0.874570 0.375393 0.145948
v 0.885165 0.364471 0.177034
v 0.930282 0.242983 0.180498
v 0.926800 0.260317 0.177034
v 0.870491 0.375393 0.183179
v 0.874769 0.354070 0.187452
v 0.932023 0.249917 0.164019
v 0.885165 0.364471 0.150976
v 0.874271 0.375393 0.145529
v 0.888647 0.347099 0.180498
v 0.916404 0.249917 0.187452
v 0.937246 0.125000 0.187452
v 0.951125 0.118029 0.180498
v 0.937246 0.229079 0.166616
v 0.853926 0.375393 0.187452
v 0.923368 0.229079 0.138826
v 0.881683 0.354070 0.138826
v 0.819056 0.375393 0.076515
v 0.937246 -0.005434 0.187452
v 0.951125 -0.005434 0.180498
v 0.958039 0.104162 0.166616
v 0.951125 0.104162 0.152735
v 0.853926 0.354070 0.187452
v 0.832586 0.375393 0.179744
v 0.944161 0.104162 0.138826
v 0.923368 0.145801 0.118018
v 0.860890 0.187440 0.055539
v 0.881683 0.249917 0.097183
v 0.881683 0.312394 0.118018
v 0.819205 0.374871 0.076347
v 0.694150 0.375393 -0.027580
v 0.916404 -0.005434 0.187452
v 0.958039 -0.005434 0.166616
v 0.956249 -0.005434 0.162986
v 0.949334 -0.005434 0.149104
v 0.843530 0.343632 0.182229
v 0.812738 0.375393 0.167343
v 0.826169 0.354070 0.173543
v 0.902526 -0.005434 0.180498
v 0.912773 -0.005434 0.185637
v 0.944161 -0.005434 0.138826
v 0.923368 -0.005434 0.118018
v 0.860890 0.249917 0.076347
v 0.860890 -0.005434 0.055539
v 0.735885 0.062486 -0.069419
v 0.756727 0.104162 -0.048583
v 0.777570 0.145801 -0.027748
v 0.798363 0.166639 -0.006940
v 0.840048 0.187440 0.034731
v 0.777570 0.312394 0.013896
v 0.860890 0.312394 0.097183
v 0.756727 0.354070 0.013896
v 0.694299 0.374871 -0.027748
v 0.666990 0.375393 -0.048835
v 0.449909 0.375393 -0.097880
v 0.449909 0.372821 -0.097880
v 0.454088 0.349932 -0.097880
v 0.574915 -0.005434 -0.097880
v 0.735885 -0.005434 -0.069419
v 0.680073 0.082317 -0.097880
v 0.679774 0.103193 -0.097880
v 0.694299 0.125000 -0.090227
v 0.715092 0.166639 -0.069419
v 0.735885 0.208278 -0.048583
v 0.756727 0.229079 -0.027748
v 0.798363 0.249917 0.013896
v 0.715092 0.270755 -0.048583
v 0.687335 0.270755 -0.070285
v 0.749763 0.312394 -0.007806
v 0.687335 0.333232 -0.049449
v 0.715092 0.333232 -0.027748
v 0.666542 0.374871 -0.049449
v 0.604512 0.375393 -0.090506
v 0.580834 0.375393 -0.097880
v 0.680073 -0.005434 -0.097880
v 0.679028 0.129063 -0.097880
v 0.678332 0.136817 -0.097880
v 0.673457 0.208278 -0.090227
v 0.694299 0.249917 -0.069419
v 0.728970 0.229079 -0.049449
v 0.666542 0.229079 -0.091121
v 0.645700 0.291556 -0.091121
v 0.666542 0.312394 -0.070285
v 0.645700 0.354070 -0.070285
v 0.604015 0.374871 -0.091121
v 0.603567 0.375393 -0.090981
v 0.595011 0.365887 -0.097880
v 0.657489 0.220095 -0.097880
v 0.636696 0.282572 -0.097880
v 0.624857 0.333232 -0.091121
vn -0.0000 1.0000 0.0005
vn -0.0000 1.0000 -0.0001
vn -0.0000 1.0000 -0.0000
vn 0.8750 0.4320 0.2186
vn 0.8947 0.4466 0.0011
vn 0.6726 0.6634 -0.3280
vn 0.7094 0.5660 -0.4201
vn 0.6803 0.2721 0.6805
vn 0.6821 0.2726 0.6785
vn 0.8394 0.3279 0.4336
vn 0.5344 0.2679 0.8017
vn 0.5356 0.2671 0.8011
vn 0.9383 0.3256 0.1164
vn 0.9102 0.3250 -0.2568
vn 0.8416 0.2925 -0.4541
vn 0.7286 0.4835 -0.4850
vn 0.7216 0.4628 -0.5149
vn 0.5196 0.2078 0.8287
vn 0.5191 0.2075 0.8291
vn 0.4781 0.0798 0.8747
vn 0.4783 0.0798 0.8746
vn 0.9367 0.1562 0.3134
vn 0.9425 0.2365 0.2360
vn 0.9499 0.2597 0.1737
vn 0.2426 0.2372 0.9407
vn -0.0000 -0.0000 1.0000
vn 0.8822 0.1662 -0.4406
vn 0.8179 0.2728 -0.5066
vn 0.8292 0.2844 -0.4811
vn 0.7076 0.4237 -0.5655
vn 0.7073 0.4237 -0.5659
vn 0.4480 -0.0000 0.8941
vn 0.8951 -0.0000 0.4458
vn 0.9375 0.1561 0.3110
vn 0.8853 0.1474 -0.4410
vn 0.8849 0.1474 -0.4419
vn -0.3397 -0.0000 0.9405
vn 0.8844 0.1472 -0.4428
vn 0.8244 0.1372 -0.5492
vn 0.7494 0.1605 -0.6424
vn 0.7393 0.1854 -0.6473
vn 0.7417 0.2122 -0.6363
vn 0.8013 0.2672 -0.5352
vn 0.7220 0.3091 -0.6191
vn 0.7127 0.3905 -0.5827
vn 0.5883 0.3945 -0.7059
vn 0.5882 0.3946 -0.7059
vn -0.0000 -1.0000 -0.0000
vn 0.8969 -0.0000 -0.4423
vn 0.8951 0.0001 -0.4459
vn 0.8951 0.0001 -0.4458
vn 0.8942 0.0002 -0.4477
vn -0.3955 -0.0646 0.9162
vn -0.3924 -0.0682 0.9173
vn -0.5279 -0.0868 0.8449
vn -0.5149 -0.0929 0.8522
vn -0.4468 -0.0803 0.8910
vn -0.4457 -0.0800 0.8916
vn -0.4212 -0.0744 0.9039
vn 0.8932 -0.0000 -0.4496
vn 0.7074 -0.0000 -0.7069
vn 0.7071 -0.0000 -0.7071
vn 0.6890 0.2290 -0.6876
vn 0.7070 -0.0000 -0.7072
vn 0.7069 0.0001 -0.7073
vn 0.7070 -0.0000 -0.7073
vn 0.7066 0.0016 -0.7076
vn 0.7065 0.0018 -0.7077
vn 0.6877 0.2290 -0.6889
vn 0.6880 0.2293 -0.6885
vn 0.6890 0.2293 -0.6876
vn 0.6888 0.2303 -0.6874
vn 0.6187 0.3094 -0.7221
vn 0.5978 0.3580 -0.7173
vn 0.6881 0.2296 -0.6883
vn 0.6881 0.2295 -0.6884
vn 0.5664 0.3941 -0.7238
vn -0.5424 -0.0991 0.8343
vn -0.5901 -0.0000 0.8073
vn -0.5862 -0.1070 0.8030
vn -0.5859 -0.1104 0.8028
vn -0.6324 -0.2150 0.7442
vn 0.4543 -0.0000 -0.8909
vn 0.4561 0.0065 -0.8899
vn 0.4569 0.0078 -0.8895
vn 0.5776 0.1152 -0.8082
vn 0.5776 0.1153 -0.8082
vn 0.5775 0.1155 -0.8082
vn 0.5776 0.1159 -0.8080
vn 0.6171 0.1545 -0.7715
vn 0.6172 0.1545 -0.7715
vn 0.6471 0.1850 -0.7396
vn 0.6471 0.1851 -0.7396
vn 0.6874 0.2288 -0.6893
vn 0.6361 0.2117 -0.7420
vn 0.6084 0.2278 -0.7602
vn 0.5964 0.2497 -0.7628
vn 0.5954 0.2521 -0.7629
vn 0.5943 0.2586 -0.7615
vn 0.5943 0.2628 -0.7601
vn 0.5962 0.2977 -0.7456
vn 0.5965 0.2983 -0.7452
vn 0.5887 0.2940 -0.7530
vn 0.5721 0.3705 -0.7317
vn 0.4957 0.4494 -0.7432
vn -0.0000 -0.0000 -1.0000
vn 0.4507 0.0130 -0.8926
vn 0.4563 0.0410 -0.8889
vn 0.5030 0.1259 -0.8551
vn 0.5488 0.1374 -0.8246
vn 0.5497 0.1373 -0.8240
vn 0.5502 0.1374 -0.8236
vn 0.5605 0.1524 -0.8140
vn 0.6070 0.1695 -0.7764
vn 0.6014 0.2162 -0.7692
vn 0.5391 0.1457 -0.8295
vn 0.5074 0.1693 -0.8449
vn 0.5346 0.2670 -0.8018
vn 0.5352 0.2672 -0.8014
vn 0.5940 0.2545 -0.7631
vn 0.5609 0.1537 -0.8135
vn 0.5346 0.2674 -0.8017
vn 0.5343 0.2677 -0.8018
vn 0.5055 0.4114 -0.7585
vn 0.3809 0.5296 -0.7580
vn 0.2592 0.4508 -0.8542
vn 0.2653 0.3956 -0.8793
vn 0.5402 0.1440 -0.8291
vn 0.5059 0.1316 -0.8525
vn 0.4831 0.1608 -0.8607
vn 0.4843 0.1616 -0.8599
vn 0.4370 0.2185 -0.8725
vn 0.5344 0.2673 -0.8019
vn 0.5343 0.2674 -0.8019
vn 0.4368 0.2187 -0.8726
vn 0.4367 0.2185 -0.8727
s 0
f 1//1 2//1 6//1
f 1//2 6//2 14//2
f 1//3 14//3 23//3
f 1//3 23//3 36//3
f 1//3 36//3 59//3
f 1//3 59//3 78//3
f 1//3 78//3 91//3
f 1//3 91//3 79//3
f 1//3 79//3 60//3
f 1//3 60//3 42//3
f 1//3 42//3 29//3
f 1//3 29//3 20//3
f 1//3 20//3 10//3
f 1//3 10//3 3//3
f 1//4 3//4 4//4
f 1//5 4//5 5//5
f 1//6 5//6 2//6
f 2//7 5//7 6//7
f 3//8 7//8 8//8
f 3//9 8//9 9//9
f 3//10 9//10 4//10
f 3//11 10//11 11//11
f 3//12 11//12 7//12
f 4//13 9//13 12//13
f 4//14 12//14 5//14
f 5//15 12//15 13//15
f 5//16 13//16 6//16
f 6//17 13//17 14//17
f 7//12 11//12 15//12
f 7//8 15//8 8//8
f 8//18 15//18 11//18
f 8//19 11//19 16//19
f 8//20 16//20 17//20
f 8//21 17//21 18//21
f 8//22 18//22 19//22
f 8//23 19//23 9//23
f 9//24 19//24 12//24
f 10//25 20//25 11//25
f 11//26 20//26 28//26
f 11//26 28//26 37//26
f 11//26 37//26 24//26
f 11//26 24//26 17//26
f 11//26 17//26 16//26
f 12//27 19//27 21//27
f 12//28 21//28 22//28
f 12//29 22//29 13//29
f 13//30 22//30 14//30
f 14//31 22//31 23//31
f 17//32 24//32 25//32
f 17//32 25//32 18//32
f 18//33 25//33 38//33
f 18//33 38//33 26//33
f 18//34 26//34 19//34
f 19//35 26//35 27//35
f 19//36 27//36 21//36
f 20//37 29//37 28//37
f 21//38 27//38 30//38
f 21//39 30//39 31//39
f 21//40 31//40 32//40
f 21//41 32//41 33//41
f 21//42 33//42 34//42
f 21//43 34//43 22//43
f 22//44 34//44 35//44
f 22//45 35//45 23//45
f 23//46 35//46 58//46
f 23//47 58//47 36//47
f 24//48 37//48 45//48
f 24//48 45//48 44//48
f 24//48 44//48 63//48
f 24//48 63//48 80//48
f 24//48 80//48 64//48
f 24//48 64//48 49//48
f 24//48 49//48 47//48
f 24//48 47//48 46//48
f 24//48 46//48 40//48
f 24//48 40//48 39//48
f 24//48 39//48 38//48
f 24//48 38//48 25//48
f 26//49 38//49 39//49
f 26//50 39//50 40//50
f 26//51 40//51 27//51
f 27//52 40//52 30//52
f 28//53 29//53 41//53
f 28//54 41//54 37//54
f 29//55 42//55 43//55
f 29//56 43//56 44//56
f 29//57 44//57 45//57
f 29//58 45//58 37//58
f 29//59 37//59 41//59
f 30//60 40//60 46//60
f 30//61 46//61 47//61
f 30//61 47//61 31//61
f 31//62 47//62 49//62
f 31//62 49//62 32//62
f 32//63 48//63 33//63
f 32//64 49//64 64//64
f 32//64 64//64 50//64
f 32//65 50//65 51//65
f 32//66 51//66 52//66
f 32//67 52//67 53//67
f 32//68 53//68 54//68
f 32//69 54//69 55//69
f 32//70 55//70 48//70
f 33//71 48//71 56//71
f 33//71 56//71 34//71
f 34//72 56//72 35//72
f 35//73 55//73 57//73
f 35//74 57//74 58//74
f 35//75 56//75 48//75
f 35//76 48//76 55//76
f 36//77 58//77 59//77
f 42//78 44//78 43//78
f 42//79 60//79 61//79
f 42//80 61//80 62//80
f 42//81 62//81 44//81
f 44//82 62//82 63//82
f 50//83 64//83 80//83
f 50//83 80//83 65//83
f 50//84 65//84 66//84
f 50//85 66//85 67//85
f 50//86 67//86 51//86
f 51//87 67//87 52//87
f 52//88 67//88 68//88
f 52//89 68//89 69//89
f 52//90 69//90 70//90
f 52//91 70//91 53//91
f 53//92 70//92 54//92
f 54//93 70//93 71//93
f 54//94 71//94 55//94
f 55//95 71//95 70//95
f 55//96 70//96 72//96
f 55//97 72//97 73//97
f 55//98 73//98 74//98
f 55//99 74//99 75//99
f 55//100 75//100 76//100
f 55//101 76//101 58//101
f 55//102 58//102 57//102
f 58//103 76//103 75//103
f 58//103 75//103 77//103
f 58//104 77//104 59//104
f 59//105 77//105 78//105
f 60//106 79//106 92//106
f 60//106 92//106 94//106
f 60//106 94//106 93//106
f 60//106 93//106 82//106
f 60//106 82//106 81//106
f 60//106 81//106 66//106
f 60//106 66//106 65//106
f 60//106 65//106 80//106
f 60//106 80//106 63//106
f 60//106 63//106 62//106
f 60//106 62//106 61//106
f 66//107 81//107 67//107
f 67//108 81//108 82//108
f 67//109 82//109 93//109
f 67//109 93//109 83//109
f 67//110 83//110 84//110
f 67//111 84//111 68//111
f 68//112 84//112 69//112
f 69//113 84//113 85//113
f 69//114 85//114 70//114
f 70//115 85//115 73//115
f 70//115 73//115 72//115
f 73//116 84//116 86//116
f 73//117 86//117 87//117
f 73//118 87//118 88//118
f 73//119 88//119 77//119
f 73//119 77//119 75//119
f 73//120 75//120 74//120
f 73//121 85//121 84//121
f 77//122 88//122 89//122
f 77//123 89//123 90//123
f 77//124 90//124 78//124
f 78//125 90//125 91//125
f 79//126 91//126 90//126
f 79//127 90//127 92//127
f 83//128 86//128 84//128
f 83//129 93//129 86//129
f 86//130 93//130 94//130
f 86//131 94//131 87//131
f 87//132 94//132 95//132
f 87//133 95//133 89//133
f 87//133 89//133 88//133
f 89//134 95//134 90//134
f 90//135 95//135 92//135
f 92//136 95//136 94//136
