# Blender 4.4.0
# www.blender.org
o convex_2
v 0.013870 -0.711818 -0.091893
v 0.013870 -0.607615 -0.091893
v -0.711818 -0.016498 -0.091893
v -0.607611 -0.016498 -0.091893
v 0.013870 0.689893 -0.102856
v 0.013870 -0.541527 -0.187443
v 0.013870 0.541507 -0.187444
v 0.013870 0.638656 -0.137999
v 0.013870 0.647922 -0.132493
v -0.000005 0.652555 -0.131913
v 0.010384 0.635199 -0.140591
v 0.013870 0.610929 -0.152731
v -0.041697 0.541507 -0.187444
v -0.062543 0.610929 -0.152731
v -0.145857 0.673437 -0.111087
v -0.166633 0.631742 -0.131913
v -0.166633 0.520694 -0.187444
v -0.062543 0.583132 -0.166618
v -0.291640 0.458186 -0.187444
v -0.312486 0.460814 -0.182244
v -0.229171 0.541507 -0.166618
v -0.229171 0.610929 -0.131913
v -0.249948 0.585760 -0.140591
v -0.291640 0.606573 -0.119765
v -0.333262 0.585760 -0.119765
v -0.333262 0.502439 -0.161409
v -0.249948 0.544065 -0.161409
v -0.395730 0.460814 -0.161409
v -0.374884 0.523252 -0.140591
v -0.385272 0.525880 -0.135383
v -0.489433 0.484185 -0.114557
v -0.478975 0.513434 -0.102856
v -0.510279 0.463372 -0.114557
v -0.533635 0.458809 -0.102856
v -0.572747 0.380052 -0.114557
v -0.583135 0.388488 -0.102856
v -0.590595 0.377355 -0.102856
v -0.635215 0.255175 -0.114557
v -0.638701 0.236091 -0.118026
v -0.576233 0.360968 -0.118026
v -0.534541 0.360968 -0.138861
v -0.492919 0.277716 -0.180505
v -0.489433 0.296801 -0.177035
v -0.531055 0.380052 -0.135383
v -0.468587 0.400934 -0.156209
v -0.458199 0.398306 -0.161409
v -0.478975 0.294242 -0.182244
v -0.478975 0.270802 -0.187444
v -0.437352 0.333309 -0.187444
v -0.437352 0.356611 -0.182244
v -0.374884 0.419119 -0.182244
v -0.354038 0.416492 -0.187444
v -0.541513 0.104161 -0.187444
v -0.520667 0.187481 -0.187444
v -0.534541 0.194396 -0.180505
v -0.576233 0.194396 -0.159679
v -0.555387 0.111145 -0.180505
v -0.610953 0.097246 -0.152731
v -0.597009 0.111145 -0.159679
v -0.638701 0.090263 -0.138861
v -0.694267 -0.006887 -0.111087
v -0.652575 0.076434 -0.131913
v -0.659547 0.152770 -0.118026
v -0.673421 0.138872 -0.111087
v -0.689875 0.105475 -0.102856
v -0.694267 -0.016429 -0.111087
v -0.610949 -0.111104 -0.152731
v -0.652575 -0.090277 -0.131918
v -0.673389 -0.173585 -0.111087
v -0.711818 -0.128664 -0.091893
v -0.690934 -0.211972 -0.091893
v -0.652575 -0.236066 -0.111087
v -0.590065 -0.194412 -0.152731
v -0.569252 -0.111104 -0.173562
v -0.562291 -0.187469 -0.166621
v -0.541478 -0.104162 -0.187443
v -0.499851 -0.229123 -0.187443
v -0.527626 -0.236066 -0.173562
v -0.572733 -0.218710 -0.156201
v -0.635243 -0.260364 -0.114558
v -0.510222 -0.260364 -0.177032
v -0.426970 -0.385257 -0.177032
v -0.510222 -0.343671 -0.156201
v -0.531107 -0.385257 -0.135389
v -0.447783 -0.426911 -0.156201
v -0.426970 -0.447738 -0.156201
v -0.385273 -0.426911 -0.177032
v -0.322905 -0.468565 -0.177032
v -0.343718 -0.551941 -0.135389
v -0.302021 -0.531114 -0.156201
v -0.260394 -0.551941 -0.156201
v -0.229139 -0.541527 -0.166621
v -0.236101 -0.569297 -0.152731
v -0.166629 -0.562354 -0.166621
v -0.145816 -0.520700 -0.187443
v -0.208326 -0.499805 -0.187443
v -0.291649 -0.458152 -0.187443
v -0.354018 -0.416498 -0.187443
v -0.416528 -0.354085 -0.187443
v -0.041679 -0.541527 -0.187443
v -0.062492 -0.583181 -0.166621
v -0.006944 -0.610950 -0.152731
v -0.069454 -0.610950 -0.152731
v -0.173590 -0.590123 -0.152731
v -0.173590 -0.631777 -0.131918
v -0.277727 -0.590123 -0.131918
v -0.302021 -0.572768 -0.135389
v -0.281207 -0.656075 -0.093727
v -0.406086 -0.593595 -0.093727
v -0.404310 -0.597202 -0.091893
v -0.279361 -0.659683 -0.091893
v -0.253646 -0.670096 -0.091893
v -0.215287 -0.652604 -0.111087
v -0.086999 -0.711818 -0.091893
v -0.131964 -0.673431 -0.111087
v 0.013870 -0.610950 -0.152703
v -0.487562 -0.534721 -0.091893
v -0.489409 -0.531114 -0.093727
v -0.406086 -0.510219 -0.135389
v -0.531107 -0.489392 -0.093727
v -0.534729 -0.487622 -0.091893
v -0.638866 -0.341834 -0.091893
v -0.597240 -0.404247 -0.091893
v -0.593546 -0.406084 -0.093727
v -0.635243 -0.343671 -0.093727
v -0.572733 -0.385257 -0.114558
v -0.694202 -0.027796 -0.111087
v -0.653063 0.252478 -0.102856
v -0.652575 0.222192 -0.111087
v -0.395730 0.575941 -0.102856
v -0.343650 0.588387 -0.114557
v -0.312486 0.610929 -0.111087
v -0.270794 0.631742 -0.111087
v -0.270794 0.642943 -0.102856
v -0.312486 0.622061 -0.102856
v -0.346230 0.604637 -0.102856
v -0.208325 0.663756 -0.102856
v -0.187479 0.669011 -0.102856
v -0.145857 0.677516 -0.102856
v -0.062543 0.689893 -0.102856
vn -0.0000 -0.0000 1.0000
vn -0.0000 0.0155 0.9999
vn 0.0080 0.0084 0.9999
vn 1.0000 -0.0000 -0.0000
vn 0.1565 0.5697 -0.8068
vn 0.1334 0.5063 -0.8520
vn 0.1325 0.5056 -0.8525
vn 0.0004 0.4474 -0.8943
vn 0.1879 0.4608 -0.8674
vn -0.0000 0.4472 -0.8944
vn -0.0000 0.4473 -0.8944
vn -0.0504 0.5063 -0.8609
vn -0.0797 0.4769 -0.8753
vn -0.0891 0.4455 -0.8908
vn -0.0887 0.4452 -0.8910
vn -0.0013 0.4469 -0.8946
vn -0.0697 0.4182 -0.9057
vn -0.0000 -0.0000 -1.0000
vn -0.1820 0.3639 -0.9135
vn -0.1825 0.3652 -0.9129
vn -0.1474 0.4423 -0.8847
vn -0.1658 0.4410 -0.8821
vn -0.2002 0.4630 -0.8635
vn -0.2182 0.4364 -0.8729
vn -0.2182 0.4363 -0.8729
vn -0.2178 0.4360 -0.8732
vn -0.1669 0.4404 -0.8821
vn -0.1834 0.3671 -0.9119
vn -0.1829 0.3655 -0.9127
vn -0.2281 0.3424 -0.9115
vn -0.2540 0.3812 -0.8889
vn -0.2184 0.4363 -0.8729
vn -0.2961 0.4735 -0.8295
vn -0.3296 0.3958 -0.8571
vn -0.3298 0.3958 -0.8571
vn -0.3455 0.4524 -0.8222
vn -0.4665 0.4672 -0.7510
vn -0.4673 0.4676 -0.7504
vn -0.4733 0.3548 -0.8063
vn -0.5390 0.3794 -0.7520
vn -0.5481 0.3673 -0.7514
vn -0.5557 0.2780 -0.7835
vn -0.4821 0.2412 -0.8423
vn -0.4343 0.2373 -0.8690
vn -0.4362 0.2185 -0.8729
vn -0.4109 0.2352 -0.8808
vn -0.4105 0.2355 -0.8809
vn -0.4341 0.2377 -0.8690
vn -0.4237 0.3177 -0.8483
vn -0.3931 0.3140 -0.8642
vn -0.3813 0.2541 -0.8889
vn -0.3808 0.2540 -0.8891
vn -0.3807 0.2540 -0.8891
vn -0.3873 0.2329 -0.8920
vn -0.3539 0.2026 -0.9131
vn -0.3093 0.2060 -0.9284
vn -0.3103 0.2071 -0.9278
vn -0.3806 0.2540 -0.8892
vn -0.3015 0.3013 -0.9046
vn -0.3479 0.3477 -0.8707
vn -0.3482 0.3481 -0.8704
vn -0.3481 0.3487 -0.8702
vn -0.2129 0.2128 -0.9536
vn -0.2113 0.2117 -0.9542
vn -0.1963 0.2938 -0.9355
vn -0.2282 0.3415 -0.9118
vn -0.3642 0.1822 -0.9133
vn -0.3655 0.1826 -0.9127
vn -0.4361 0.2179 -0.8731
vn -0.4441 0.1112 -0.8891
vn -0.4042 0.1012 -0.9090
vn -0.4039 0.1010 -0.9092
vn -0.4472 0.0004 -0.8944
vn -0.4475 0.0019 -0.8943
vn -0.4447 0.1110 -0.8888
vn -0.4919 0.1228 -0.8620
vn -0.4472 0.0003 -0.8945
vn -0.4471 -0.0000 -0.8945
vn -0.4487 0.0011 -0.8937
vn -0.5272 0.1052 -0.8432
vn -0.4923 0.1230 -0.8617
vn -0.4923 0.1232 -0.8617
vn -0.5498 0.1376 -0.8239
vn -0.5712 0.0817 -0.8167
vn -0.5742 0.0821 -0.8146
vn -0.7547 0.0772 -0.6515
vn -0.7380 -0.0000 -0.6748
vn -0.4473 -0.0003 -0.8944
vn -0.4834 -0.0968 -0.8700
vn -0.5207 -0.0824 -0.8497
vn -0.5711 -0.1432 -0.8083
vn -0.5264 -0.1754 -0.8319
vn -0.4727 -0.1575 -0.8670
vn -0.4673 -0.1171 -0.8763
vn -0.4441 -0.1113 -0.8890
vn -0.4199 -0.1200 -0.8996
vn -0.4197 -0.1200 -0.8997
vn -0.4469 -0.0007 -0.8946
vn -0.4470 -0.0001 -0.8946
vn -0.3907 -0.1302 -0.9113
vn -0.4082 -0.1629 -0.8982
vn -0.4084 -0.1630 -0.8981
vn -0.4084 -0.1631 -0.8981
vn -0.4497 -0.1963 -0.8714
vn -0.4362 -0.2181 -0.8730
vn -0.4088 -0.1646 -0.8976
vn -0.4079 -0.1639 -0.8982
vn -0.3097 -0.2065 -0.9281
vn -0.3420 -0.2280 -0.9116
vn -0.4354 -0.2184 -0.8733
vn -0.3577 -0.2680 -0.8945
vn -0.3577 -0.2686 -0.8944
vn -0.3017 -0.3015 -0.9044
vn -0.3013 -0.3016 -0.9046
vn -0.2541 -0.3805 -0.8892
vn -0.2542 -0.3806 -0.8891
vn -0.2536 -0.3808 -0.8892
vn -0.2181 -0.4359 -0.8732
vn -0.1827 -0.3651 -0.9129
vn -0.1634 -0.4083 -0.8981
vn -0.1383 -0.4151 -0.8992
vn -0.1301 -0.3905 -0.9113
vn -0.1303 -0.3899 -0.9116
vn -0.1823 -0.3647 -0.9131
vn -0.1825 -0.3649 -0.9130
vn -0.1827 -0.3650 -0.9129
vn -0.2063 -0.3089 -0.9284
vn -0.2355 -0.2358 -0.9428
vn -0.3095 -0.2064 -0.9282
vn -0.2357 -0.2359 -0.9428
vn -0.0825 -0.4123 -0.9073
vn -0.0000 -0.4471 -0.8945
vn 0.0001 -0.4472 -0.8944
vn -0.0000 -0.4474 -0.8944
vn -0.0857 -0.4284 -0.8995
vn -0.1473 -0.4421 -0.8848
vn -0.1906 -0.4766 -0.8582
vn -0.2036 -0.4579 -0.8654
vn -0.2035 -0.4580 -0.8654
vn -0.2180 -0.4365 -0.8729
vn -0.2405 -0.4816 -0.8428
vn -0.2410 -0.4818 -0.8425
vn -0.2694 -0.5385 -0.7984
vn -0.2714 -0.5428 -0.7948
vn -0.2135 -0.5272 -0.8225
vn -0.1965 -0.4967 -0.8454
vn -0.1432 -0.5721 -0.8076
vn -0.1428 -0.5714 -0.8082
vn -0.0659 -0.5069 -0.8595
vn -0.0717 -0.5025 -0.8616
vn -0.1373 -0.5494 -0.8242
vn -0.1907 -0.4766 -0.8582
vn -0.1991 -0.4832 -0.8526
vn -0.2215 -0.4799 -0.8489
vn -0.0890 -0.4452 -0.8910
vn -0.0000 -0.5165 -0.8563
vn 0.0012 -0.5163 -0.8564
vn 0.0012 -0.4475 -0.8943
vn -0.4311 -0.5744 -0.6958
vn -0.4257 -0.5678 -0.7045
vn -0.3178 -0.4238 -0.8482
vn -0.3294 -0.3957 -0.8573
vn -0.3665 -0.3663 -0.8552
vn -0.5754 -0.5751 -0.5815
vn -0.5842 -0.5851 -0.5625
vn -0.5653 -0.4239 -0.7076
vn -0.5626 -0.4217 -0.7111
vn -0.5541 -0.3702 -0.7456
vn -0.4865 -0.3250 -0.8110
vn -0.4366 -0.2193 -0.8725
vn -0.4364 -0.2183 -0.8729
vn -0.4713 -0.2140 -0.8556
vn -0.5262 -0.2174 -0.8221
vn -0.5630 -0.3755 -0.7363
vn -0.5426 -0.2176 -0.8113
vn -0.7258 -0.0042 -0.6879
vn -0.5274 -0.0690 -0.8468
vn -0.4506 -0.0026 -0.8927
vn -0.4214 -0.3369 -0.8420
vn -0.4653 -0.3487 -0.8136
vn -0.3853 -0.3428 -0.8568
vn -0.3666 -0.3663 -0.8552
vn -0.2550 -0.3812 -0.8886
vn -0.2865 -0.4283 -0.8570
vn -0.7719 0.1933 0.6056
vn -0.7028 0.1760 -0.6893
vn -0.7018 0.1756 -0.6904
vn -0.5499 0.1376 -0.8238
vn -0.5926 0.2023 -0.7796
vn -0.5572 0.2459 -0.7932
vn -0.1428 0.0714 0.9872
vn -0.0765 0.0513 0.9958
vn -0.0698 0.0492 0.9963
vn -0.0368 0.0368 0.9986
vn -0.0232 0.0308 0.9993
vn -0.3451 0.4596 -0.8183
vn -0.2994 0.4751 -0.8274
vn -0.2787 0.5105 -0.8134
vn -0.2454 0.4908 -0.8360
vn -0.2453 0.4913 -0.8358
vn -0.2002 0.4634 -0.8632
vn -0.1692 0.5071 -0.8451
vn -0.1939 0.5809 -0.7905
vn -0.2835 0.5679 -0.7728
vn -0.2854 0.5698 -0.7706
vn -0.0125 0.0250 0.9996
vn -0.0131 0.0253 0.9996
vn -0.2935 0.5684 -0.7687
vn -0.2929 0.5277 -0.7974
vn -0.3040 0.5244 -0.7953
vn -0.0155 0.0268 0.9995
vn -0.0071 0.0214 0.9997
vn -0.1943 0.5832 -0.7887
vn -0.1989 0.7889 -0.5814
vn -0.1801 0.8814 -0.4368
vn -0.1319 0.8882 -0.4402
vn -0.0336 0.5781 -0.8153
vn -0.0000 0.6142 -0.7892
vn -0.0027 0.0180 0.9998
vn -0.0039 0.0190 0.9998
vn -0.0050 0.0198 0.9998
vn -0.1685 0.5064 -0.8457
vn -0.1472 0.4424 -0.8847
vn -0.4364 0.2182 -0.8729
vn -0.4364 0.2183 -0.8729
s 0
f 2//1 3//1 1//1
f 4//1 3//1 2//1
f 4//2 5//2 3//2
f 4//3 2//3 5//3
f 2//4 1//4 5//4
f 6//4 5//4 1//4
f 7//4 5//4 6//4
f 8//4 5//4 7//4
f 9//4 5//4 8//4
f 9//5 10//5 5//5
f 9//6 8//6 10//6
f 11//7 10//7 8//7
f 11//8 12//8 10//8
f 11//9 8//9 12//9
f 12//4 8//4 7//4
f 13//10 12//10 7//10
f 14//10 12//10 13//10
f 14//11 10//11 12//11
f 14//12 15//12 10//12
f 14//13 16//13 15//13
f 14//14 17//14 16//14
f 14//15 18//15 17//15
f 14//16 13//16 18//16
f 13//17 17//17 18//17
f 13//18 7//18 17//18
f 17//18 7//18 19//18
f 20//19 17//19 19//19
f 21//20 17//20 20//20
f 21//21 22//21 17//21
f 23//22 22//22 21//22
f 23//23 24//23 22//23
f 23//24 25//24 24//24
f 23//25 26//25 25//25
f 23//26 27//26 26//26
f 23//27 21//27 27//27
f 26//28 27//28 21//28
f 26//29 21//29 20//29
f 26//30 20//30 28//30
f 29//31 26//31 28//31
f 29//32 25//32 26//32
f 29//33 30//33 25//33
f 29//34 28//34 30//34
f 31//35 30//35 28//35
f 31//36 32//36 30//36
f 33//37 32//37 31//37
f 33//38 34//38 32//38
f 35//39 34//39 33//39
f 35//40 36//40 34//40
f 35//41 37//41 36//41
f 35//42 38//42 37//42
f 35//43 39//43 38//43
f 35//43 40//43 39//43
f 41//44 40//44 35//44
f 41//45 42//45 40//45
f 41//46 43//46 42//46
f 41//47 44//47 43//47
f 41//48 35//48 44//48
f 44//49 35//49 33//49
f 44//50 33//50 45//50
f 44//51 45//51 43//51
f 46//52 43//52 45//52
f 47//53 43//53 46//53
f 47//54 42//54 43//54
f 47//55 48//55 42//55
f 47//56 49//56 48//56
f 47//57 50//57 49//57
f 47//58 46//58 50//58
f 46//59 28//59 50//59
f 46//60 45//60 28//60
f 33//61 28//61 45//61
f 33//62 31//62 28//62
f 50//59 28//59 51//59
f 50//63 51//63 49//63
f 52//64 49//64 51//64
f 52//18 19//18 49//18
f 52//65 51//65 19//65
f 20//65 19//65 51//65
f 20//66 51//66 28//66
f 19//18 7//18 49//18
f 53//18 49//18 7//18
f 54//18 49//18 53//18
f 48//18 49//18 54//18
f 48//67 54//67 42//67
f 55//68 42//68 54//68
f 55//69 56//69 42//69
f 55//70 57//70 56//70
f 55//71 54//71 57//71
f 54//72 53//72 57//72
f 58//73 57//73 53//73
f 59//74 57//74 58//74
f 59//75 56//75 57//75
f 59//76 60//76 56//76
f 59//74 58//74 60//74
f 60//77 58//77 53//77
f 60//78 53//78 61//78
f 60//79 61//79 62//79
f 60//80 62//80 63//80
f 60//81 63//81 56//81
f 63//82 39//82 56//82
f 63//83 64//83 39//83
f 63//80 62//80 64//80
f 61//84 64//84 62//84
f 61//85 65//85 64//85
f 61//86 3//86 65//86
f 61//87 66//87 3//87
f 61//78 53//78 66//78
f 67//78 66//78 53//78
f 67//88 68//88 66//88
f 69//89 68//89 67//89
f 69//90 70//90 68//90
f 69//91 71//91 70//91
f 69//92 72//92 71//92
f 69//93 73//93 72//93
f 69//94 67//94 73//94
f 74//95 73//95 67//95
f 74//96 75//96 73//96
f 74//97 76//97 75//97
f 74//98 67//98 76//98
f 67//99 53//99 76//99
f 77//18 76//18 53//18
f 75//100 76//100 77//100
f 78//101 75//101 77//101
f 78//102 73//102 75//102
f 79//103 73//103 78//103
f 79//104 72//104 73//104
f 79//104 80//104 72//104
f 79//105 81//105 80//105
f 79//106 78//106 81//106
f 81//107 78//107 77//107
f 81//108 77//108 82//108
f 83//109 81//109 82//109
f 83//110 84//110 81//110
f 83//111 82//111 84//111
f 82//112 85//112 84//112
f 82//113 86//113 85//113
f 87//114 86//114 82//114
f 88//115 86//115 87//115
f 88//116 89//116 86//116
f 90//117 89//117 88//117
f 90//118 91//118 89//118
f 92//119 91//119 90//119
f 92//120 93//120 91//120
f 92//121 94//121 93//121
f 92//122 95//122 94//122
f 92//123 96//123 95//123
f 92//124 97//124 96//124
f 92//125 88//125 97//125
f 92//126 90//126 88//126
f 88//127 87//127 97//127
f 87//127 98//127 97//127
f 99//128 98//128 87//128
f 99//18 53//18 98//18
f 99//18 77//18 53//18
f 99//129 82//129 77//129
f 99//130 87//130 82//130
f 53//18 97//18 98//18
f 96//18 97//18 53//18
f 96//18 53//18 95//18
f 100//18 95//18 53//18
f 100//131 94//131 95//131
f 100//131 101//131 94//131
f 100//132 6//132 101//132
f 100//18 53//18 6//18
f 53//18 7//18 6//18
f 101//133 6//133 102//133
f 103//134 101//134 102//134
f 103//135 94//135 101//135
f 104//135 94//135 103//135
f 93//121 94//121 104//121
f 93//136 104//136 105//136
f 93//137 105//137 106//137
f 93//138 106//138 91//138
f 91//139 106//139 107//139
f 91//140 107//140 89//140
f 108//141 89//141 107//141
f 108//142 109//142 89//142
f 108//143 110//143 109//143
f 108//144 111//144 110//144
f 108//145 112//145 111//145
f 113//146 112//146 108//146
f 113//147 114//147 112//147
f 115//148 114//148 113//148
f 115//149 103//149 114//149
f 115//150 105//150 103//150
f 115//151 113//151 105//151
f 113//152 106//152 105//152
f 113//153 108//153 106//153
f 108//154 107//154 106//154
f 104//155 103//155 105//155
f 103//156 1//156 114//156
f 103//156 102//156 1//156
f 116//157 1//157 102//157
f 116//4 6//4 1//4
f 116//158 102//158 6//158
f 114//1 1//1 111//1
f 112//1 114//1 111//1
f 111//1 1//1 117//1
f 110//1 111//1 117//1
f 118//159 110//159 117//159
f 118//160 109//160 110//160
f 118//161 119//161 109//161
f 118//162 86//162 119//162
f 118//163 120//163 86//163
f 118//164 121//164 120//164
f 118//165 117//165 121//165
f 121//1 117//1 122//1
f 123//1 121//1 122//1
f 123//166 120//166 121//166
f 123//167 124//167 120//167
f 125//168 124//168 123//168
f 125//169 126//169 124//169
f 125//170 84//170 126//170
f 125//171 80//171 84//171
f 125//172 72//172 80//172
f 125//173 122//173 72//173
f 125//174 123//174 122//174
f 71//175 72//175 122//175
f 71//1 122//1 70//1
f 70//1 122//1 3//1
f 66//87 70//87 3//87
f 127//176 70//176 66//176
f 127//177 68//177 70//177
f 127//178 66//178 68//178
f 122//1 117//1 3//1
f 117//1 1//1 3//1
f 81//105 84//105 80//105
f 126//179 84//179 120//179
f 124//180 126//180 120//180
f 85//181 120//181 84//181
f 85//182 86//182 120//182
f 119//183 86//183 89//183
f 119//184 89//184 109//184
f 65//185 3//185 128//185
f 129//186 65//186 128//186
f 129//187 64//187 65//187
f 129//188 39//188 64//188
f 129//189 128//189 39//189
f 38//190 39//190 128//190
f 38//42 128//42 37//42
f 37//191 128//191 3//191
f 36//192 37//192 3//192
f 36//193 3//193 34//193
f 34//194 3//194 32//194
f 130//195 32//195 3//195
f 30//196 32//196 130//196
f 131//197 30//197 130//197
f 131//33 25//33 30//33
f 132//198 25//198 131//198
f 132//199 24//199 25//199
f 133//200 24//200 132//200
f 133//201 22//201 24//201
f 133//202 15//202 22//202
f 133//203 134//203 15//203
f 133//204 132//204 134//204
f 135//205 134//205 132//205
f 135//206 3//206 134//206
f 135//207 136//207 3//207
f 135//208 132//208 136//208
f 132//209 131//209 136//209
f 131//210 130//210 136//210
f 136//211 130//211 3//211
f 137//212 134//212 3//212
f 15//213 134//213 137//213
f 15//214 137//214 138//214
f 15//215 138//215 139//215
f 15//216 139//216 140//216
f 15//217 140//217 10//217
f 10//218 140//218 5//218
f 140//2 3//2 5//2
f 140//219 139//219 3//219
f 138//220 3//220 139//220
f 138//221 137//221 3//221
f 15//222 16//222 22//222
f 22//223 16//223 17//223
f 42//224 56//224 39//224
f 42//225 39//225 40//225
