# Blender 4.4.0
# www.blender.org
o convex_13
v -0.291781 0.895358 0.166624
v -0.291781 0.874760 0.166624
v -0.291781 0.895544 0.166571
v -0.354081 0.874760 0.166624
v -0.333254 0.853913 0.166624
v -0.291781 0.874511 0.166571
v -0.291781 0.895980 0.166413
v -0.298543 0.909484 0.159660
v -0.361023 0.888637 0.159660
v -0.444329 0.847006 0.159660
v -0.479040 0.812282 0.166624
v -0.499867 0.770588 0.166624
v -0.312428 0.851299 0.161401
v -0.291781 0.860758 0.159687
v -0.521278 0.746568 0.161401
v -0.291781 0.909484 0.159660
v -0.302026 0.911226 0.156205
v -0.364505 0.890379 0.156205
v -0.489443 0.827901 0.156205
v -0.485983 0.826159 0.159660
v -0.502473 0.812282 0.161401
v -0.521278 0.770588 0.166624
v -0.521278 0.770028 0.166624
v -0.521278 0.747252 0.161560
v -0.291781 0.846819 0.152670
v -0.291781 0.847006 0.152776
v -0.521278 0.275494 -0.102856
v -0.291781 0.908612 0.145970
v -0.291781 0.908550 0.145785
v -0.302026 0.900771 0.135366
v -0.343679 0.890379 0.135366
v -0.374907 0.882538 0.145785
v -0.416538 0.861754 0.145785
v -0.458214 0.840907 0.145785
v -0.499867 0.820060 0.145785
v -0.521278 0.801578 0.145785
v -0.521278 0.800209 0.151219
v -0.521278 0.793426 0.161401
v -0.291781 0.505492 -0.102856
v -0.521278 0.471266 -0.102856
v -0.291781 0.895669 0.125131
v -0.291781 0.882352 0.103949
v -0.333254 0.881667 0.118009
v -0.395734 0.861754 0.124947
v -0.437387 0.840907 0.124947
v -0.468616 0.817447 0.114554
v -0.510269 0.807055 0.135366
v -0.521278 0.792057 0.126767
v -0.291781 0.592986 -0.102856
v -0.520694 0.471889 -0.102856
v -0.521278 0.481099 -0.098926
v -0.291781 0.860820 0.076411
v -0.395734 0.840036 0.097197
v -0.406159 0.848686 0.114554
v -0.447789 0.827901 0.114554
v -0.468616 0.796662 0.093715
v -0.521278 0.790564 0.124366
v -0.437387 0.819189 0.097197
v -0.304587 0.625470 -0.102856
v -0.291781 0.631008 -0.102803
v -0.492026 0.500576 -0.102856
v -0.521278 0.481845 -0.098609
v -0.510269 0.505119 -0.093703
v -0.489443 0.525966 -0.093703
v -0.291781 0.819002 0.034627
v -0.395734 0.798405 0.055519
v -0.437387 0.798405 0.076358
v -0.468616 0.775816 0.072876
v -0.521278 0.729268 0.063063
v -0.312428 0.622110 -0.102856
v -0.291781 0.652353 -0.090300
v -0.479040 0.523352 -0.098926
v -0.479040 0.513520 -0.102856
v -0.521278 0.523477 -0.077797
v -0.510269 0.546750 -0.072890
v -0.406159 0.588444 -0.093703
v -0.333254 0.777558 0.013894
v -0.291781 0.714955 -0.048570
v -0.312428 0.735864 -0.027757
v -0.354081 0.715080 -0.027757
v -0.395734 0.694233 -0.027757
v -0.416538 0.735864 0.013894
v -0.447789 0.713338 0.010439
v -0.426963 0.775816 0.052063
v -0.489443 0.713338 0.031251
v -0.499867 0.735864 0.055519
v -0.521278 0.728024 0.061876
v -0.333254 0.631755 -0.090247
v -0.346240 0.604623 -0.102856
v -0.395734 0.585830 -0.098926
v -0.374907 0.610908 -0.090247
v -0.291781 0.652477 -0.090221
v -0.395734 0.575998 -0.102856
v -0.521278 0.627586 -0.015307
v -0.489443 0.630013 -0.031239
v -0.447789 0.630013 -0.052051
v -0.416538 0.652602 -0.048596
v -0.333254 0.694233 -0.048596
v -0.426963 0.671644 -0.031239
v -0.510269 0.671644 0.010439
v -0.521278 0.710848 0.047157
vn 1.0000 -0.0000 -0.0000
vn 1.0000 -0.0001 -0.0000
vn 1.0000 0.0007 -0.0000
vn 1.0000 0.0002 -0.0000
vn -0.0902 0.2729 0.9578
vn -0.0000 -0.0000 1.0000
vn 0.1041 -0.2070 0.9728
vn -0.1122 0.3386 0.9342
vn -0.1300 0.3906 0.9113
vn -0.1307 0.3917 0.9108
vn -0.1830 0.3663 0.9123
vn -0.1829 0.3659 0.9125
vn 0.1709 -0.3418 0.9241
vn 0.2690 -0.4311 0.8613
vn 0.1797 -0.3593 0.9158
vn 0.1839 -0.3667 0.9120
vn -0.0000 0.4473 0.8944
vn -0.0000 0.8929 0.4502
vn -0.2475 0.7417 0.6234
vn -0.3320 0.6644 0.6696
vn -0.3328 0.6650 0.6686
vn -0.1833 0.3662 0.9123
vn -0.3334 0.6666 0.6667
vn -0.2125 0.2152 0.9532
vn -0.2033 0.3560 0.9121
vn 0.0057 -0.2170 0.9761
vn 0.0165 -0.2264 0.9739
vn 0.2524 -0.4770 0.8419
vn 0.2695 -0.4324 0.8604
vn 0.2383 -0.4752 0.8470
vn 0.2522 -0.4777 0.8415
vn -1.0000 -0.0000 -0.0000
vn -1.0000 -0.0001 -0.0000
vn 0.1877 0.9802 -0.0624
vn -0.0753 0.9455 -0.3168
vn -0.2173 0.8725 -0.4377
vn -0.2177 0.8724 -0.4377
vn -0.3018 0.9044 -0.3016
vn -0.3325 0.8826 -0.3323
vn -0.4356 0.8724 -0.2217
vn -0.4365 0.8729 -0.2182
vn -0.4365 0.8726 -0.2190
vn -0.4366 0.8724 -0.2197
vn -0.6511 0.7543 0.0838
vn -0.6614 0.7273 0.1832
vn -0.6379 0.6627 0.3924
vn -0.4122 0.5781 0.7042
vn -0.6407 0.6390 0.4257
vn -0.2182 0.2176 0.9514
vn 0.5149 -0.5138 0.6863
vn -0.0000 -0.0000 -1.0000
vn -0.1055 0.8438 -0.5262
vn -0.1095 0.8415 -0.5290
vn -0.1975 0.8162 -0.5429
vn -0.2046 0.8200 -0.5345
vn -0.3066 0.7641 -0.5676
vn -0.3569 0.8151 -0.4563
vn -0.4079 0.8171 -0.4073
vn -0.4085 0.8166 -0.4078
vn -0.4086 0.8163 -0.4083
vn -0.4178 0.7699 -0.4825
vn -0.4362 0.7488 -0.4991
vn -0.6272 0.7265 -0.2807
vn -0.6557 0.6751 -0.3380
vn -0.3681 0.3451 -0.8634
vn -0.2166 0.7691 -0.6013
vn -0.2715 0.7243 -0.6337
vn -0.3043 0.7502 -0.5871
vn -0.3493 0.7379 -0.5775
vn -0.3699 0.7409 -0.5606
vn -0.3716 0.7425 -0.5573
vn -0.3728 0.7427 -0.5563
vn -0.4422 0.6350 -0.6334
vn -0.4554 0.6841 -0.5698
vn -0.3645 0.7262 -0.5829
vn -0.3966 0.6500 -0.6483
vn -0.5972 0.6812 -0.4236
vn 0.0035 0.0014 -1.0000
vn -0.3492 0.3490 -0.8696
vn -0.3838 0.3608 -0.8500
vn -0.3496 0.3493 -0.8693
vn -0.2716 0.6802 -0.6808
vn -0.2721 0.6808 -0.6800
vn -0.3637 0.7267 -0.5827
vn -0.3635 0.7281 -0.5812
vn -0.3333 0.6670 -0.6663
vn -0.3340 0.6674 -0.6656
vn -0.3970 0.6489 -0.6491
vn -0.4423 0.6341 -0.6343
vn -0.4425 0.6341 -0.6341
vn -0.2120 0.4946 -0.8429
vn -0.2102 0.4941 -0.8436
vn -0.3489 0.3490 -0.8697
vn -0.3470 0.3481 -0.8709
vn -0.4797 0.3924 -0.7849
vn -0.4797 0.3924 -0.7848
vn -0.4086 0.4081 -0.8164
vn -0.3489 0.4651 -0.8136
vn -0.3187 0.4248 -0.8473
vn -0.2712 0.6338 -0.7244
vn -0.1530 0.6172 -0.7718
vn -0.2475 0.6201 -0.7445
vn -0.2977 0.5963 -0.7455
vn -0.2983 0.5960 -0.7455
vn -0.2998 0.5957 -0.7452
vn -0.3505 0.5969 -0.7217
vn -0.3524 0.5974 -0.7204
vn -0.3568 0.6024 -0.7140
vn -0.3568 0.6033 -0.7133
vn -0.3584 0.5974 -0.7174
vn -0.3680 0.5974 -0.7126
vn -0.4231 0.6186 -0.6621
vn -0.4293 0.6235 -0.6534
vn -0.2568 0.5149 -0.8179
vn -0.2504 0.4842 -0.8383
vn -0.2565 0.4994 -0.8275
vn -0.2573 0.5141 -0.8182
vn -0.2592 0.5197 -0.8141
vn -0.3183 0.4244 -0.8477
vn -0.2682 0.3576 -0.8945
vn -0.5767 0.4205 -0.7005
vn -0.4201 0.4879 -0.7652
vn -0.3901 0.4881 -0.7807
vn -0.3490 0.4655 -0.8134
vn -0.2866 0.5196 -0.8049
vn -0.2848 0.5201 -0.8053
vn -0.2785 0.5124 -0.8123
vn -0.2975 0.5963 -0.7456
vn -0.2667 0.5348 -0.8018
vn -0.2666 0.5346 -0.8019
vn -0.2669 0.5348 -0.8017
vn -0.2672 0.5345 -0.8018
vn -0.2677 0.5349 -0.8014
vn -0.3346 0.5774 -0.7448
vn -0.3342 0.5779 -0.7445
vn -0.3065 0.5441 -0.7810
vn -0.3712 0.5572 -0.7428
vn -0.3712 0.5571 -0.7429
vn -0.3727 0.5567 -0.7424
vn -0.4044 0.5621 -0.7214
vn -0.4000 0.5797 -0.7099
vn -0.4207 0.5903 -0.6889
vn -0.2674 0.5342 -0.8020
vn -0.2099 0.3629 -0.9079
vn -0.4690 0.5300 -0.7065
vn -0.4105 0.5343 -0.7389
vn -0.3068 0.5439 -0.7810
s 0
f 1//1 2//1 6//1
f 1//1 6//1 14//1
f 1//1 14//1 26//1
f 1//2 26//2 25//2
f 1//1 25//1 39//1
f 1//1 39//1 49//1
f 1//1 49//1 60//1
f 1//1 60//1 71//1
f 1//3 71//3 92//3
f 1//1 92//1 78//1
f 1//1 78//1 65//1
f 1//1 65//1 52//1
f 1//1 52//1 42//1
f 1//1 42//1 41//1
f 1//1 41//1 29//1
f 1//4 29//4 28//4
f 1//1 28//1 16//1
f 1//1 16//1 7//1
f 1//1 7//1 3//1
f 1//5 3//5 4//5
f 1//6 4//6 11//6
f 1//6 11//6 22//6
f 1//6 22//6 23//6
f 1//6 23//6 12//6
f 1//6 12//6 5//6
f 1//6 5//6 2//6
f 2//7 5//7 6//7
f 3//8 7//8 4//8
f 4//9 7//9 8//9
f 4//10 8//10 9//10
f 4//11 9//11 10//11
f 4//12 10//12 11//12
f 5//13 12//13 6//13
f 6//14 13//14 14//14
f 6//15 12//15 15//15
f 6//16 15//16 13//16
f 7//17 16//17 8//17
f 8//18 16//18 17//18
f 8//19 17//19 18//19
f 8//19 18//19 9//19
f 9//20 18//20 10//20
f 10//21 19//21 20//21
f 10//22 20//22 11//22
f 10//23 18//23 19//23
f 11//24 21//24 22//24
f 11//25 20//25 21//25
f 12//26 23//26 24//26
f 12//27 24//27 15//27
f 13//28 25//28 26//28
f 13//29 26//29 14//29
f 13//30 15//30 27//30
f 13//31 27//31 25//31
f 15//32 24//32 23//32
f 15//32 23//32 22//32
f 15//32 22//32 38//32
f 15//32 38//32 37//32
f 15//32 37//32 36//32
f 15//32 36//32 48//32
f 15//32 48//32 57//32
f 15//32 57//32 69//32
f 15//33 69//33 87//33
f 15//32 87//32 101//32
f 15//32 101//32 94//32
f 15//32 94//32 74//32
f 15//32 74//32 62//32
f 15//33 62//33 51//33
f 15//32 51//32 40//32
f 15//32 40//32 27//32
f 16//34 28//34 17//34
f 17//35 28//35 29//35
f 17//36 29//36 30//36
f 17//37 30//37 31//37
f 17//38 31//38 18//38
f 18//39 31//39 32//39
f 18//40 32//40 33//40
f 18//41 33//41 19//41
f 19//42 33//42 34//42
f 19//43 34//43 35//43
f 19//44 35//44 36//44
f 19//45 36//45 37//45
f 19//46 37//46 21//46
f 19//47 21//47 20//47
f 21//48 37//48 38//48
f 21//49 38//49 22//49
f 25//50 27//50 39//50
f 27//51 40//51 50//51
f 27//51 50//51 61//51
f 27//51 61//51 73//51
f 27//51 73//51 93//51
f 27//51 93//51 89//51
f 27//51 89//51 70//51
f 27//51 70//51 59//51
f 27//51 59//51 49//51
f 27//51 49//51 39//51
f 29//52 41//52 30//52
f 30//53 41//53 42//53
f 30//54 42//54 43//54
f 30//55 43//55 31//55
f 31//56 43//56 44//56
f 31//57 44//57 32//57
f 32//58 44//58 33//58
f 33//59 44//59 34//59
f 34//60 44//60 45//60
f 34//60 45//60 35//60
f 35//61 45//61 46//61
f 35//62 46//62 47//62
f 35//63 47//63 36//63
f 36//64 47//64 48//64
f 40//65 51//65 50//65
f 42//66 52//66 43//66
f 43//67 52//67 53//67
f 43//68 53//68 44//68
f 44//69 53//69 54//69
f 44//70 54//70 55//70
f 44//71 55//71 45//71
f 45//72 55//72 46//72
f 46//73 56//73 57//73
f 46//74 57//74 47//74
f 46//75 55//75 58//75
f 46//76 58//76 67//76
f 46//76 67//76 56//76
f 47//77 57//77 48//77
f 49//78 59//78 60//78
f 50//79 51//79 61//79
f 51//80 62//80 63//80
f 51//81 63//81 64//81
f 51//79 64//79 61//79
f 52//82 65//82 66//82
f 52//83 66//83 53//83
f 53//84 58//84 55//84
f 53//85 55//85 54//85
f 53//86 66//86 67//86
f 53//87 67//87 58//87
f 56//88 67//88 68//88
f 56//89 68//89 69//89
f 56//90 69//90 57//90
f 59//91 70//91 71//91
f 59//92 71//92 60//92
f 61//93 64//93 72//93
f 61//94 72//94 73//94
f 62//95 74//95 75//95
f 62//96 75//96 63//96
f 63//97 75//97 64//97
f 64//98 75//98 76//98
f 64//99 76//99 72//99
f 65//100 77//100 66//100
f 65//101 78//101 79//101
f 65//102 79//102 77//102
f 66//103 77//103 80//103
f 66//104 80//104 81//104
f 66//105 81//105 82//105
f 66//106 82//106 83//106
f 66//107 83//107 84//107
f 66//108 84//108 68//108
f 66//109 68//109 67//109
f 68//110 84//110 83//110
f 68//110 83//110 85//110
f 68//111 85//111 86//111
f 68//112 86//112 87//112
f 68//113 87//113 69//113
f 70//114 88//114 71//114
f 70//115 89//115 90//115
f 70//116 90//116 91//116
f 70//117 91//117 88//117
f 71//118 88//118 92//118
f 72//119 76//119 90//119
f 72//120 90//120 93//120
f 72//120 93//120 73//120
f 74//121 94//121 75//121
f 75//122 94//122 95//122
f 75//123 95//123 96//123
f 75//124 96//124 76//124
f 76//125 96//125 97//125
f 76//126 97//126 91//126
f 76//127 91//127 90//127
f 77//128 79//128 80//128
f 78//129 98//129 79//129
f 78//130 92//130 88//130
f 78//130 88//130 98//130
f 79//131 98//131 80//131
f 80//132 98//132 97//132
f 80//133 97//133 81//133
f 81//134 99//134 83//134
f 81//135 83//135 82//135
f 81//136 97//136 99//136
f 83//137 99//137 85//137
f 85//138 99//138 95//138
f 85//139 95//139 100//139
f 85//140 100//140 101//140
f 85//141 101//141 86//141
f 86//142 101//142 87//142
f 88//143 91//143 97//143
f 88//132 97//132 98//132
f 89//144 93//144 90//144
f 94//145 101//145 100//145
f 94//146 100//146 95//146
f 95//138 99//138 96//138
f 96//147 99//147 97//147
