# Blender 4.4.0
# www.blender.org
o convex_0
v 0.013870 -0.005434 -0.145796
v 0.520671 -0.005434 -0.187452
v 0.013870 -0.005434 -0.104149
v 0.013870 0.478997 -0.187452
v 0.520671 0.083347 -0.187452
v 0.531104 0.093772 -0.182244
v 0.617897 -0.005434 -0.138861
v 0.574859 -0.005434 -0.097888
v 0.013870 0.595669 -0.097888
v 0.013870 0.541475 -0.187452
v 0.499869 0.166675 -0.187452
v 0.617897 0.104196 -0.138861
v 0.562339 0.124977 -0.166620
v 0.669803 -0.005434 -0.112899
v 0.680041 -0.005434 -0.097888
v 0.013870 0.699777 -0.097888
v 0.020847 0.541475 -0.187452
v 0.013870 0.569297 -0.173564
v 0.458201 0.250002 -0.187452
v 0.520671 0.250002 -0.166620
v 0.531104 0.260358 -0.161412
v 0.510238 0.177099 -0.182244
v 0.614376 0.114621 -0.140597
v 0.631721 0.104196 -0.131917
v 0.673390 0.062498 -0.111084
v 0.590118 0.124977 -0.152731
v 0.572708 0.135401 -0.161412
v 0.673390 -0.005434 -0.111084
v 0.680041 0.082312 -0.097888
v 0.045757 0.699777 -0.097888
v 0.013870 0.647930 -0.132495
v 0.020847 0.569297 -0.173564
v 0.031280 0.551900 -0.182244
v 0.124985 0.520695 -0.187452
v 0.013870 0.592424 -0.161999
v 0.437334 0.291631 -0.187452
v 0.447768 0.302056 -0.182244
v 0.541473 0.270782 -0.153599
v 0.604008 0.208304 -0.132785
v 0.593574 0.197879 -0.140597
v 0.447768 0.385314 -0.161412
v 0.510238 0.364465 -0.140597
v 0.520671 0.374890 -0.132785
v 0.635243 0.177099 -0.119764
v 0.652588 0.166675 -0.111084
v 0.679715 0.103230 -0.097888
v 0.678280 0.136851 -0.097888
v 0.678998 0.129119 -0.097888
v 0.053516 0.699086 -0.097888
v 0.052082 0.697706 -0.098941
v 0.104184 0.673405 -0.111084
v 0.041714 0.610926 -0.152731
v 0.013870 0.638679 -0.138001
v 0.052082 0.593598 -0.161412
v 0.135418 0.531051 -0.182244
v 0.197888 0.510271 -0.182244
v 0.187455 0.499846 -0.187452
v 0.013870 0.606301 -0.155055
v 0.395731 0.354040 -0.187452
v 0.406100 0.364465 -0.182244
v 0.636612 0.282587 -0.097888
v 0.624809 0.250002 -0.111952
v 0.562339 0.374890 -0.111952
v 0.594944 0.365846 -0.097888
v 0.615810 0.324286 -0.097888
v 0.645611 0.187455 -0.111952
v 0.385298 0.385314 -0.182244
v 0.343695 0.426943 -0.182244
v 0.385298 0.447792 -0.161412
v 0.416533 0.437368 -0.153599
v 0.458201 0.395670 -0.153599
v 0.520671 0.437368 -0.111952
v 0.657479 0.220109 -0.097888
v 0.178456 0.678306 -0.097888
v 0.145852 0.631775 -0.131917
v 0.013870 0.610926 -0.152731
v 0.156220 0.614378 -0.140597
v 0.156220 0.572749 -0.161412
v 0.218755 0.551900 -0.161412
v 0.302027 0.510271 -0.161412
v 0.281225 0.468572 -0.182244
v 0.270792 0.458148 -0.187452
v 0.333261 0.416519 -0.187452
v 0.553341 0.428324 -0.097888
v 0.364431 0.468572 -0.161412
v 0.374865 0.478997 -0.153599
v 0.437334 0.520695 -0.111952
v 0.458201 0.499846 -0.111952
v 0.511672 0.470022 -0.097888
v 0.240991 0.657457 -0.097888
v 0.208322 0.645652 -0.111952
v 0.166653 0.624803 -0.132785
v 0.218755 0.593598 -0.140597
v 0.312460 0.520695 -0.153599
v 0.343695 0.531051 -0.140597
v 0.354063 0.541475 -0.132785
v 0.449202 0.532501 -0.097888
v 0.354063 0.583174 -0.111952
v 0.428336 0.553281 -0.097888
v 0.324263 0.615828 -0.097888
v 0.270792 0.624803 -0.111952
v 0.229123 0.603954 -0.132785
v 0.302027 0.593598 -0.119764
v 0.343695 0.572749 -0.119764
v 0.365866 0.594979 -0.097888
vn -0.0000 -1.0000 -0.0000
vn -1.0000 -0.0000 -0.0000
vn -0.0816 -0.0854 -0.9930
vn 0.4466 -0.0000 -0.8947
vn 0.4471 -0.0001 -0.8945
vn -0.0000 -0.0000 -1.0000
vn -0.0112 -0.0104 0.9999
vn 0.3694 0.0922 -0.9247
vn 0.4471 -0.0000 -0.8945
vn 0.3700 0.0925 -0.9244
vn 0.4471 0.0004 -0.8945
vn 0.4473 -0.0000 -0.8944
vn -0.0000 -0.0000 1.0000
vn -0.0000 0.4466 -0.8947
vn 0.3125 0.1562 -0.9370
vn 0.3127 0.1562 -0.9369
vn 0.3139 0.1557 -0.9366
vn 0.3704 0.0933 -0.9242
vn 0.4489 0.0028 -0.8936
vn 0.4489 0.0021 -0.8936
vn 0.4478 0.0002 -0.8942
vn 0.4472 0.0008 -0.8944
vn 0.4482 0.0025 -0.8939
vn 0.4472 0.0020 -0.8944
vn 0.4515 -0.0000 -0.8923
vn 0.8930 -0.0000 -0.4501
vn -0.0000 0.5552 -0.8317
vn 0.0004 0.4466 -0.8947
vn 0.0765 0.3833 -0.9205
vn -0.0000 0.4473 -0.8944
vn 0.3117 0.1562 -0.9372
vn 0.3125 0.1564 -0.9370
vn 0.4689 0.1814 -0.8644
vn 0.4681 0.1798 -0.8652
vn 0.4420 0.1472 -0.8848
vn 0.3907 0.1301 -0.9113
vn 0.3420 0.2281 -0.9116
vn 0.3810 0.2541 -0.8890
vn 0.4020 0.2563 -0.8790
vn 0.4040 0.2563 -0.8781
vn 0.4502 0.0083 -0.8929
vn 0.4919 0.1229 -0.8620
vn 0.4922 0.1230 -0.8618
vn 0.5005 0.1188 -0.8575
vn 0.5269 0.1052 -0.8434
vn 0.8844 0.0138 -0.4665
vn 0.5524 0.1103 -0.8262
vn 0.7438 0.0691 -0.6648
vn 0.8705 0.0241 -0.4916
vn 0.0509 0.5715 -0.8190
vn 0.0366 0.5391 -0.8414
vn 0.0507 0.5312 -0.8457
vn 0.0585 0.5125 -0.8567
vn 0.0551 0.5107 -0.8580
vn 0.0005 0.4467 -0.8947
vn 0.0771 0.3849 -0.9197
vn 0.0825 0.4122 -0.9074
vn 0.1165 0.3501 -0.9294
vn 0.1163 0.3483 -0.9301
vn -0.0000 0.4475 -0.8943
vn 0.2819 0.1879 -0.9409
vn 0.2826 0.1887 -0.9405
vn 0.3417 0.2281 -0.9117
vn 0.4771 0.1968 -0.8565
vn 0.4765 0.1910 -0.8582
vn 0.4319 0.2590 -0.8639
vn 0.4418 0.2555 -0.8600
vn 0.4687 0.2353 -0.8514
vn 0.4695 0.2342 -0.8513
vn 0.5077 0.1688 -0.8448
vn 0.4998 0.1439 -0.8541
vn 0.4984 0.1420 -0.8552
vn 0.3017 0.3010 -0.9047
vn 0.3016 0.3014 -0.9045
vn 0.3017 0.3017 -0.9044
vn 0.3316 0.3315 -0.8833
vn 0.3320 0.3317 -0.8830
vn 0.3852 0.2762 -0.8805
vn 0.3852 0.2747 -0.8810
vn 0.3882 0.2915 -0.8742
vn 0.4285 0.2858 -0.8571
vn 0.5070 0.1347 -0.8514
vn 0.5534 0.1516 -0.8190
vn 0.5799 0.1449 -0.8017
vn 0.1005 0.6044 -0.7903
vn 0.0682 0.5591 -0.8263
vn 0.1137 0.5333 -0.8382
vn 0.0715 0.5027 -0.8615
vn -0.0000 0.4688 -0.8833
vn 0.0775 0.4833 -0.8720
vn 0.0002 0.4480 -0.8940
vn -0.0000 0.4490 -0.8935
vn 0.0782 0.4820 -0.8727
vn 0.0892 0.4454 -0.8909
vn 0.1299 0.3905 -0.9114
vn 0.1303 0.3907 -0.9112
vn 0.1826 0.3653 -0.9128
vn 0.1826 0.3650 -0.9129
vn 0.1561 0.3120 -0.9372
vn 0.2355 0.2354 -0.9429
vn 0.2358 0.2357 -0.9428
vn 0.2364 0.2358 -0.9426
vn 0.5189 0.1733 -0.8371
vn 0.5183 0.1724 -0.8376
vn 0.4458 0.2973 -0.8443
vn 0.4465 0.2973 -0.8440
vn 0.1879 0.2820 -0.9408
vn 0.2278 0.3418 -0.9117
vn 0.2287 0.3422 -0.9114
vn 0.3012 0.3025 -0.9043
vn 0.3303 0.3317 -0.8837
vn 0.3317 0.3320 -0.8830
vn 0.3479 0.3482 -0.8705
vn 0.3481 0.3481 -0.8704
vn 0.3481 0.3479 -0.8705
vn 0.4551 0.4550 -0.7654
vn 0.4551 0.4551 -0.7654
vn 0.4554 0.4551 -0.7652
vn 0.1730 0.5188 -0.8372
vn 0.1644 0.5132 -0.8424
vn 0.1389 0.5193 -0.8432
vn 0.1337 0.5051 -0.8526
vn 0.1608 0.4838 -0.8603
vn 0.1470 0.4424 -0.8847
vn 0.1473 0.4418 -0.8850
vn 0.2179 0.4359 -0.8732
vn 0.2181 0.4361 -0.8731
vn 0.2193 0.4351 -0.8733
vn 0.2543 0.3806 -0.8891
vn 0.2752 0.3848 -0.8810
vn 0.2761 0.3853 -0.8805
vn 0.3142 0.3926 -0.8644
vn 0.4546 0.4550 -0.7657
vn 0.3179 0.4237 -0.8482
vn 0.3377 0.4500 -0.8267
vn 0.4539 0.4558 -0.7657
vn 0.2964 0.5930 -0.7487
vn 0.1731 0.5186 -0.8373
vn 0.1691 0.5067 -0.8454
vn 0.1621 0.4857 -0.8590
vn 0.2138 0.4428 -0.8708
vn 0.2183 0.4370 -0.8726
vn 0.2184 0.4364 -0.8728
vn 0.2184 0.4363 -0.8729
vn 0.2188 0.4361 -0.8729
vn 0.2192 0.4361 -0.8728
vn 0.2185 0.4367 -0.8727
vn 0.2185 0.4372 -0.8724
vn 0.2974 0.5935 -0.7478
vn 0.3618 0.5420 -0.7585
s 0
f 1//1 2//1 7//1
f 1//1 7//1 14//1
f 1//1 14//1 28//1
f 1//1 28//1 15//1
f 1//1 15//1 8//1
f 1//1 8//1 3//1
f 1//2 3//2 9//2
f 1//2 9//2 16//2
f 1//2 16//2 31//2
f 1//2 31//2 53//2
f 1//2 53//2 76//2
f 1//2 76//2 58//2
f 1//2 58//2 35//2
f 1//2 35//2 18//2
f 1//2 18//2 10//2
f 1//2 10//2 4//2
f 1//3 4//3 2//3
f 2//4 5//4 6//4
f 2//5 6//5 7//5
f 2//6 4//6 10//6
f 2//6 10//6 17//6
f 2//6 17//6 34//6
f 2//6 34//6 57//6
f 2//6 57//6 82//6
f 2//6 82//6 83//6
f 2//6 83//6 59//6
f 2//6 59//6 36//6
f 2//6 36//6 19//6
f 2//6 19//6 11//6
f 2//6 11//6 5//6
f 3//7 8//7 9//7
f 5//8 11//8 6//8
f 6//9 12//9 7//9
f 6//10 11//10 13//10
f 6//11 13//11 12//11
f 7//12 12//12 14//12
f 8//13 15//13 29//13
f 8//13 29//13 46//13
f 8//13 46//13 48//13
f 8//13 48//13 47//13
f 8//13 47//13 73//13
f 8//13 73//13 61//13
f 8//13 61//13 65//13
f 8//13 65//13 64//13
f 8//13 64//13 84//13
f 8//13 84//13 89//13
f 8//13 89//13 97//13
f 8//13 97//13 99//13
f 8//13 99//13 105//13
f 8//13 105//13 100//13
f 8//13 100//13 90//13
f 8//13 90//13 74//13
f 8//13 74//13 49//13
f 8//13 49//13 30//13
f 8//13 30//13 16//13
f 8//13 16//13 9//13
f 10//14 18//14 32//14
f 10//14 32//14 17//14
f 11//15 19//15 20//15
f 11//16 20//16 21//16
f 11//17 21//17 22//17
f 11//18 22//18 27//18
f 11//18 27//18 13//18
f 12//19 23//19 24//19
f 12//20 24//20 25//20
f 12//21 25//21 14//21
f 12//22 13//22 26//22
f 12//23 26//23 23//23
f 13//24 27//24 26//24
f 14//25 25//25 28//25
f 15//26 28//26 25//26
f 15//26 25//26 29//26
f 16//27 30//27 31//27
f 17//28 32//28 33//28
f 17//29 33//29 34//29
f 18//30 35//30 32//30
f 19//31 36//31 37//31
f 19//32 37//32 20//32
f 20//32 37//32 21//32
f 21//33 38//33 39//33
f 21//34 39//34 40//34
f 21//35 40//35 27//35
f 21//36 27//36 22//36
f 21//37 37//37 41//37
f 21//38 41//38 42//38
f 21//39 42//39 43//39
f 21//40 43//40 38//40
f 23//41 26//41 27//41
f 23//42 27//42 40//42
f 23//43 40//43 44//43
f 23//44 44//44 45//44
f 23//44 45//44 24//44
f 24//45 45//45 25//45
f 25//46 46//46 29//46
f 25//47 45//47 47//47
f 25//48 47//48 48//48
f 25//49 48//49 46//49
f 30//50 49//50 50//50
f 30//51 50//51 31//51
f 31//52 50//52 51//52
f 31//53 51//53 52//53
f 31//54 52//54 53//54
f 32//30 35//30 54//30
f 32//55 54//55 33//55
f 33//56 55//56 34//56
f 33//57 54//57 78//57
f 33//57 78//57 55//57
f 34//58 55//58 56//58
f 34//59 56//59 57//59
f 35//60 58//60 54//60
f 36//61 59//61 37//61
f 37//62 59//62 60//62
f 37//63 60//63 41//63
f 38//64 61//64 62//64
f 38//65 62//65 39//65
f 38//66 43//66 63//66
f 38//67 63//67 64//67
f 38//68 64//68 65//68
f 38//69 65//69 61//69
f 39//70 62//70 66//70
f 39//71 66//71 44//71
f 39//72 44//72 40//72
f 41//73 60//73 67//73
f 41//74 67//74 68//74
f 41//75 68//75 69//75
f 41//76 69//76 70//76
f 41//77 70//77 71//77
f 41//78 71//78 43//78
f 41//79 43//79 42//79
f 43//80 71//80 72//80
f 43//81 72//81 63//81
f 44//82 66//82 45//82
f 45//83 66//83 73//83
f 45//84 73//84 47//84
f 49//85 74//85 51//85
f 49//86 51//86 50//86
f 51//87 74//87 75//87
f 51//88 75//88 52//88
f 52//89 76//89 53//89
f 52//90 75//90 54//90
f 52//91 54//91 58//91
f 52//92 58//92 76//92
f 54//93 75//93 77//93
f 54//94 77//94 78//94
f 55//95 78//95 56//95
f 56//96 78//96 79//96
f 56//97 79//97 80//97
f 56//98 80//98 81//98
f 56//99 81//99 82//99
f 56//99 82//99 57//99
f 59//100 83//100 68//100
f 59//101 68//101 67//101
f 59//102 67//102 60//102
f 61//103 73//103 62//103
f 62//104 73//104 66//104
f 63//105 72//105 84//105
f 63//106 84//106 64//106
f 68//107 83//107 82//107
f 68//107 82//107 81//107
f 68//108 81//108 80//108
f 68//109 80//109 85//109
f 68//110 85//110 69//110
f 69//111 85//111 86//111
f 69//112 86//112 70//112
f 70//113 86//113 87//113
f 70//113 87//113 88//113
f 70//114 88//114 72//114
f 70//115 72//115 71//115
f 72//116 88//116 97//116
f 72//117 97//117 89//117
f 72//118 89//118 84//118
f 74//119 90//119 91//119
f 74//120 91//120 92//120
f 74//121 92//121 75//121
f 75//122 92//122 77//122
f 77//123 92//123 93//123
f 77//124 93//124 78//124
f 78//125 93//125 79//125
f 79//126 93//126 80//126
f 80//127 93//127 94//127
f 80//128 94//128 95//128
f 80//129 95//129 85//129
f 85//130 95//130 86//130
f 86//131 95//131 96//131
f 86//132 96//132 87//132
f 87//133 97//133 88//133
f 87//134 96//134 98//134
f 87//135 98//135 99//135
f 87//136 99//136 97//136
f 90//137 100//137 98//137
f 90//137 98//137 101//137
f 90//138 101//138 91//138
f 91//139 101//139 102//139
f 91//139 102//139 92//139
f 92//140 102//140 93//140
f 93//141 102//141 101//141
f 93//142 101//142 103//142
f 93//143 103//143 104//143
f 93//144 104//144 94//144
f 94//145 104//145 95//145
f 95//146 104//146 98//146
f 95//146 98//146 96//146
f 98//147 104//147 103//147
f 98//148 103//148 101//148
f 98//149 100//149 105//149
f 98//150 105//150 99//150
