# Blender 4.4.0
# www.blender.org
o convex_3
v -0.521300 0.318874 -0.091408
v -0.521300 0.318874 -0.102856
v -0.523951 0.318874 -0.089324
v -0.909476 -0.016498 0.152723
v -0.585775 -0.016498 -0.102856
v -0.525875 0.250559 -0.102856
v -0.521300 0.275475 -0.102856
v -0.617799 0.318874 -0.102856
v -0.857186 0.318874 0.160584
v -0.846968 0.298521 0.152723
v -0.860863 0.284634 0.159660
v -0.912084 -0.016498 0.154042
v -0.698393 -0.016498 -0.102856
v -0.632293 0.294089 -0.102856
v -0.635286 0.317627 -0.093703
v -0.634773 0.318874 -0.093202
v -0.867362 0.318874 0.164778
v -0.874759 0.291561 0.166624
v -0.937224 -0.016498 0.166624
v -0.698393 0.001295 -0.102856
v -0.777576 -0.016498 -0.048596
v -0.653115 0.252430 -0.102856
v -0.656108 0.275968 -0.093703
v -0.676930 0.296781 -0.072890
v -0.697752 0.317627 -0.052051
v -0.697281 0.318874 -0.051550
v -0.874759 0.318874 0.166624
v -0.937224 0.104145 0.166624
v -0.948255 -0.016498 0.161111
v -0.715110 0.097218 -0.090247
v -0.701215 0.111105 -0.097185
v -0.689927 0.105426 -0.102856
v -0.777576 0.076373 -0.048596
v -0.944194 -0.016498 0.118009
v -0.669106 0.188711 -0.102856
v -0.680393 0.194390 -0.097185
v -0.701215 0.236049 -0.076346
v -0.697752 0.255122 -0.072890
v -0.739395 0.296781 -0.031239
v -0.721353 0.318874 -0.035328
v -0.890920 0.318874 0.163010
v -0.895581 0.291561 0.166624
v -0.951120 0.104145 0.159660
v -0.916403 0.208276 0.166624
v -0.951120 -0.016498 0.159660
v -0.735932 0.138877 -0.069408
v -0.722079 0.152731 -0.076346
v -0.694288 0.180503 -0.090247
v -0.944194 0.076373 0.118009
v -0.923372 0.118032 0.097197
v -0.881685 0.138877 0.055519
v -0.860863 0.159658 0.034707
v -0.798398 0.118032 -0.027757
v -0.949837 -0.016498 0.129273
v -0.715110 0.222162 -0.069408
v -0.722079 0.256862 -0.055533
v -0.722550 0.318874 -0.034457
v -0.722208 0.318874 -0.034721
v -0.742859 0.277675 -0.034695
v -0.784502 0.236049 -0.013882
v -0.798398 0.284634 0.013894
v -0.781039 0.317627 0.010439
v -0.895239 0.318874 0.160874
v -0.898189 0.312407 0.161401
v -0.909476 0.291561 0.159660
v -0.952873 0.114585 0.156205
v -0.930298 0.208276 0.159660
v -0.958089 -0.016498 0.145785
v -0.756711 0.180503 -0.048596
v -0.742859 0.194390 -0.055533
v -0.958089 0.083332 0.145785
v -0.951120 0.090259 0.131910
v -0.923372 0.201317 0.118009
v -0.902507 0.138877 0.076358
v -0.902507 0.222162 0.097197
v -0.860863 0.222162 0.055519
v -0.798398 0.222162 -0.006918
v -0.777576 0.201317 -0.027757
v -0.780526 0.318874 0.010913
v -0.840041 0.284634 0.055519
v -0.843505 0.317627 0.072876
v -0.843034 0.318874 0.073377
v -0.902764 0.318874 0.145785
v -0.911186 0.302000 0.156205
v -0.932051 0.218683 0.156205
v -0.937224 0.208276 0.145785
v -0.930298 0.215203 0.131910
v -0.909476 0.298521 0.131910
v -0.909476 0.236049 0.111072
v -0.902507 0.284634 0.118009
v -0.885148 0.317627 0.114554
v -0.884678 0.318874 0.115028
v -0.902678 0.318874 0.145363
v -0.909476 0.305447 0.145785
v -0.916403 0.291561 0.145785
v -0.906013 0.307187 0.135366
v -0.893956 0.318874 0.126556
vn -0.0000 1.0000 -0.0000
vn 0.6118 -0.1416 0.7783
vn 0.6132 -0.1444 0.7766
vn 0.7195 -0.1614 0.6755
vn 0.8116 -0.1490 0.5649
vn 1.0000 -0.0000 -0.0000
vn -0.0000 -0.0000 -1.0000
vn 0.6000 -0.0078 0.8000
vn 0.6002 -0.1191 0.7909
vn 0.5257 -0.1043 0.8442
vn 0.4494 -0.0930 0.8885
vn -0.0000 -1.0000 -0.0002
vn -0.0000 -1.0000 -0.0000
vn -0.4616 0.2699 -0.8450
vn -0.4327 0.4837 -0.7608
vn 0.3807 -0.0407 0.9238
vn 0.4191 -0.0694 0.9053
vn 0.5063 -0.0775 0.8589
vn 0.4128 -0.0837 0.9070
vn 0.4456 -0.0924 0.8904
vn -0.5653 -0.0000 -0.8249
vn -0.5097 0.2548 -0.8218
vn -0.5345 0.2671 -0.8019
vn -0.5346 0.2675 -0.8017
vn -0.4873 0.4778 -0.7309
vn -0.4833 0.4903 -0.7253
vn 0.2421 -0.0000 0.9702
vn -0.0000 -0.0000 1.0000
vn -0.4470 -0.0000 0.8945
vn -0.4729 0.0333 -0.8805
vn -0.4344 0.0353 -0.9000
vn -0.5575 0.0120 -0.8301
vn -0.7071 -0.0000 -0.7071
vn -0.4053 0.1017 -0.9085
vn -0.5179 0.1613 -0.8401
vn -0.5304 0.2434 -0.8120
vn -0.5296 0.2481 -0.8112
vn -0.5346 0.2672 -0.8018
vn -0.5416 0.2968 -0.7865
vn -0.4908 0.4782 -0.7283
vn -0.2153 0.1641 0.9627
vn -0.4480 0.0001 0.8940
vn -0.4463 0.0892 0.8904
vn -0.4462 0.0892 0.8904
vn -0.4518 -0.0000 0.8921
vn -0.5499 0.1373 -0.8239
vn -0.5495 0.1374 -0.8241
vn -0.5488 0.1372 -0.8246
vn -0.5775 0.1156 -0.8082
vn -0.4055 0.1014 -0.9085
vn -0.4054 0.1014 -0.9085
vn -0.7071 0.0001 -0.7071
vn -0.7071 0.0002 -0.7071
vn -0.7071 0.0002 -0.7072
vn -0.7070 0.0004 -0.7073
vn -0.8941 -0.0000 -0.4479
vn -0.5492 0.1378 -0.8242
vn -0.5877 0.1959 -0.7850
vn -0.5515 0.2446 -0.7975
vn -0.5512 0.2461 -0.7972
vn -0.5765 0.3307 -0.7472
vn -0.5509 0.3062 -0.7764
vn -0.5536 0.2444 -0.7961
vn -0.6194 0.2471 -0.7452
vn -0.6203 0.2480 -0.7441
vn -0.6203 0.2484 -0.7440
vn -0.5787 0.3327 -0.7446
vn -0.4274 0.2654 0.8642
vn -0.3649 0.1831 0.9129
vn -0.4419 0.1656 0.8817
vn -0.4453 0.1113 0.8884
vn -0.8918 -0.0000 0.4525
vn -0.6629 0.1326 0.7369
vn -0.8936 -0.0001 0.4488
vn -0.5501 0.1372 -0.8237
vn -0.5775 0.1158 -0.8081
vn -0.5496 0.1375 -0.8240
vn -0.8943 0.0001 -0.4474
vn -0.8941 0.0024 -0.4479
vn -0.8249 0.1375 -0.5483
vn -0.8241 0.1373 -0.5496
vn -0.7711 0.1544 -0.6177
vn -0.7077 0.0020 -0.7065
vn -0.7071 0.0003 -0.7071
vn -0.7373 0.1640 -0.6554
vn -0.6886 0.2291 -0.6880
vn -0.6881 0.2292 -0.6884
vn -0.6475 0.1495 -0.7472
vn -0.6174 0.1544 -0.7713
vn -0.6169 0.1542 -0.7718
vn -0.8945 -0.0000 -0.4470
vn -0.5882 0.1956 -0.7847
vn -0.5885 0.1958 -0.7844
vn -0.5886 0.1959 -0.7843
vn -0.5888 0.1971 -0.7839
vn -0.5392 0.4842 -0.6891
vn -0.6205 0.2479 -0.7440
vn -0.5888 0.1959 -0.7842
vn -0.6881 0.2293 -0.6884
vn -0.6775 0.2855 -0.6778
vn -0.6191 0.4828 -0.6194
vn -0.6167 0.4888 -0.6171
vn -0.7255 0.5855 0.3618
vn -0.5603 0.3179 0.7648
vn -0.4966 0.1983 0.8450
vn -0.6167 0.1544 0.7719
vn -0.6142 0.1535 0.7741
vn -0.8942 -0.0000 0.4476
vn -0.6634 0.1327 0.7364
vn -0.9415 0.1883 0.2793
vn -0.9863 0.1647 -0.0003
vn -0.5887 0.1953 -0.7844
vn -0.9126 0.1524 -0.3794
vn -0.9116 0.1519 -0.3820
vn -0.7843 0.1963 -0.5884
vn -0.7837 0.1958 -0.5895
vn -0.7709 0.1546 -0.6180
vn -0.7852 0.1962 -0.5873
vn -0.6886 0.2292 -0.6880
vn -0.7831 0.1966 -0.5900
vn -0.6884 0.2294 -0.6881
vn -0.6778 0.2853 -0.6776
vn -0.6779 0.2857 -0.6773
vn -0.6237 0.4719 -0.6231
vn -0.6193 0.4828 -0.6192
vn -0.8800 0.4399 -0.1794
vn -0.8945 0.4471 0.0011
vn -0.8948 0.4464 0.0008
vn -0.9428 0.2361 0.2355
vn -0.9435 0.2359 0.2328
vn -0.9120 0.2280 -0.3409
vn -0.9119 0.2279 -0.3414
vn -0.8735 0.4356 -0.2176
vn -0.8730 0.4360 -0.2185
vn -0.7708 0.4766 -0.4227
vn -0.7191 0.3986 -0.5692
vn -0.6987 0.2996 -0.6496
vn -0.7837 0.1965 -0.5892
vn -0.6878 0.4696 -0.5536
vn -0.8754 0.4367 -0.2073
vn -0.7714 0.5262 -0.3578
s 0
f 1//1 2//1 8//1
f 1//1 8//1 16//1
f 1//1 16//1 26//1
f 1//1 26//1 40//1
f 1//1 40//1 58//1
f 1//1 58//1 57//1
f 1//1 57//1 79//1
f 1//1 79//1 82//1
f 1//1 82//1 92//1
f 1//1 92//1 97//1
f 1//1 97//1 93//1
f 1//1 93//1 83//1
f 1//1 83//1 63//1
f 1//1 63//1 41//1
f 1//1 41//1 27//1
f 1//1 27//1 17//1
f 1//1 17//1 9//1
f 1//1 9//1 3//1
f 1//2 3//2 4//2
f 1//3 4//3 5//3
f 1//4 5//4 6//4
f 1//5 6//5 7//5
f 1//6 7//6 2//6
f 2//7 7//7 6//7
f 2//7 6//7 5//7
f 2//7 5//7 13//7
f 2//7 13//7 20//7
f 2//7 20//7 32//7
f 2//7 32//7 35//7
f 2//7 35//7 22//7
f 2//7 22//7 14//7
f 2//7 14//7 8//7
f 3//8 9//8 10//8
f 3//9 10//9 4//9
f 4//10 10//10 11//10
f 4//11 11//11 12//11
f 4//12 12//12 19//12
f 4//13 19//13 29//13
f 4//13 29//13 45//13
f 4//13 45//13 68//13
f 4//13 68//13 54//13
f 4//13 54//13 34//13
f 4//13 34//13 21//13
f 4//13 21//13 13//13
f 4//13 13//13 5//13
f 8//14 14//14 15//14
f 8//15 15//15 16//15
f 9//16 17//16 18//16
f 9//17 18//17 11//17
f 9//18 11//18 10//18
f 11//19 18//19 19//19
f 11//20 19//20 12//20
f 13//21 21//21 33//21
f 13//21 33//21 20//21
f 14//22 22//22 23//22
f 14//22 23//22 15//22
f 15//23 23//23 38//23
f 15//23 38//23 24//23
f 15//24 24//24 39//24
f 15//24 39//24 25//24
f 15//25 25//25 26//25
f 15//26 26//26 16//26
f 17//27 27//27 18//27
f 18//28 27//28 42//28
f 18//28 42//28 44//28
f 18//28 44//28 28//28
f 18//28 28//28 19//28
f 19//29 28//29 29//29
f 20//30 30//30 31//30
f 20//31 31//31 32//31
f 20//32 33//32 30//32
f 21//33 34//33 49//33
f 21//33 49//33 33//33
f 22//34 35//34 36//34
f 22//35 36//35 37//35
f 22//36 37//36 38//36
f 22//37 38//37 23//37
f 24//38 38//38 39//38
f 25//39 39//39 40//39
f 25//40 40//40 26//40
f 27//41 41//41 42//41
f 28//42 43//42 29//42
f 28//43 44//43 67//43
f 28//44 67//44 43//44
f 29//45 43//45 45//45
f 30//46 46//46 47//46
f 30//47 47//47 48//47
f 30//48 48//48 36//48
f 30//48 36//48 31//48
f 30//49 33//49 53//49
f 30//49 53//49 46//49
f 31//50 36//50 35//50
f 31//51 35//51 32//51
f 33//52 49//52 50//52
f 33//53 50//53 51//53
f 33//54 51//54 52//54
f 33//55 52//55 53//55
f 34//56 54//56 49//56
f 36//57 48//57 55//57
f 36//57 55//57 37//57
f 37//58 55//58 56//58
f 37//59 56//59 38//59
f 38//60 56//60 39//60
f 39//61 57//61 58//61
f 39//62 58//62 40//62
f 39//63 56//63 59//63
f 39//64 59//64 60//64
f 39//65 60//65 61//65
f 39//66 61//66 62//66
f 39//67 62//67 57//67
f 41//68 63//68 64//68
f 41//69 64//69 42//69
f 42//70 64//70 65//70
f 42//71 65//71 67//71
f 42//71 67//71 44//71
f 43//72 66//72 45//72
f 43//73 67//73 66//73
f 45//74 66//74 68//74
f 46//75 69//75 70//75
f 46//46 70//46 47//46
f 46//76 53//76 69//76
f 47//77 55//77 48//77
f 47//77 70//77 55//77
f 49//78 54//78 71//78
f 49//79 71//79 72//79
f 49//80 72//80 87//80
f 49//80 87//80 73//80
f 49//81 73//81 50//81
f 50//82 73//82 74//82
f 50//83 74//83 52//83
f 50//84 52//84 51//84
f 52//85 74//85 75//85
f 52//86 75//86 76//86
f 52//87 76//87 77//87
f 52//88 77//88 53//88
f 53//89 77//89 78//89
f 53//90 78//90 69//90
f 54//91 68//91 71//91
f 55//92 70//92 56//92
f 56//93 70//93 78//93
f 56//94 78//94 60//94
f 56//95 60//95 59//95
f 57//96 62//96 79//96
f 60//97 77//97 61//97
f 60//98 78//98 77//98
f 61//99 77//99 76//99
f 61//99 76//99 80//99
f 61//100 80//100 81//100
f 61//100 81//100 62//100
f 62//101 81//101 82//101
f 62//102 82//102 79//102
f 63//103 83//103 84//103
f 63//104 84//104 64//104
f 64//105 84//105 65//105
f 65//106 84//106 85//106
f 65//107 85//107 67//107
f 66//108 71//108 68//108
f 66//109 67//109 85//109
f 66//110 85//110 86//110
f 66//111 86//111 71//111
f 69//112 78//112 70//112
f 71//113 86//113 87//113
f 71//114 87//114 72//114
f 73//115 88//115 89//115
f 73//116 89//116 75//116
f 73//117 75//117 74//117
f 73//118 87//118 88//118
f 75//119 90//119 76//119
f 75//120 89//120 90//120
f 76//121 90//121 80//121
f 80//122 90//122 81//122
f 81//123 90//123 91//123
f 81//124 91//124 92//124
f 81//125 92//125 82//125
f 83//126 93//126 94//126
f 83//127 94//127 84//127
f 84//128 94//128 95//128
f 84//129 95//129 85//129
f 85//130 95//130 86//130
f 86//131 95//131 88//131
f 86//132 88//132 87//132
f 88//133 95//133 93//133
f 88//134 93//134 96//134
f 88//135 96//135 97//135
f 88//136 97//136 91//136
f 88//137 91//137 90//137
f 88//138 90//138 89//138
f 91//139 97//139 92//139
f 93//140 95//140 94//140
f 93//141 97//141 96//141
