# Blender 4.4.0
# www.blender.org
o convex_7
v -0.958089 -0.104206 0.145773
v -0.951121 -0.104206 0.159665
v -0.958089 -0.016498 0.145773
v -0.944196 -0.111127 0.118013
v -0.937228 -0.229160 0.145773
v -0.930304 -0.229160 0.159665
v -0.947637 -0.114626 0.161411
v -0.948247 -0.016498 0.161108
v -0.951121 -0.016498 0.159665
v -0.944196 -0.016498 0.118013
v -0.777570 -0.090288 -0.048596
v -0.881701 -0.173642 0.055535
v -0.923335 -0.236080 0.118013
v -0.916411 -0.312436 0.145773
v -0.909486 -0.326354 0.152732
v -0.930304 -0.243000 0.152732
v -0.909486 -0.312436 0.159665
v -0.926819 -0.239579 0.161411
v -0.937228 -0.104206 0.166624
v -0.937228 -0.016498 0.166624
v -0.777570 -0.016498 -0.048596
v -0.715118 -0.131965 -0.090249
v -0.798388 -0.131965 -0.027770
v -0.860883 -0.173642 0.034734
v -0.860883 -0.256919 0.055535
v -0.881701 -0.256919 0.076361
v -0.902518 -0.298596 0.118013
v -0.909486 -0.305516 0.131905
v -0.881701 -0.361033 0.118013
v -0.902518 -0.340195 0.138839
v -0.864324 -0.426970 0.135372
v -0.871292 -0.413130 0.149265
v -0.864324 -0.426970 0.161411
v -0.906002 -0.322855 0.161411
v -0.916411 -0.229160 0.166624
v -0.909486 -0.016498 0.152732
v -0.513173 -0.770572 0.166624
v -0.715118 -0.016498 -0.090249
v -0.735892 -0.173642 -0.069422
v -0.711852 -0.128699 -0.091893
v -0.694301 -0.215241 -0.090249
v -0.777570 -0.215241 -0.027770
v -0.819205 -0.152804 -0.006919
v -0.798388 -0.236080 -0.006919
v -0.840022 -0.256919 0.034734
v -0.840022 -0.319434 0.055535
v -0.860883 -0.319434 0.076361
v -0.860883 -0.402710 0.118013
v -0.819205 -0.485987 0.118013
v -0.819205 -0.506747 0.138839
v -0.857399 -0.440811 0.142306
v -0.826173 -0.492907 0.152732
v -0.801872 -0.531085 0.161411
v -0.853915 -0.416551 0.166624
v -0.895593 -0.312436 0.166624
v -0.607678 -0.016498 -0.091893
v -0.513173 -0.742269 0.157641
v -0.513173 -0.791411 0.166624
v -0.711852 -0.016498 -0.091893
v -0.690991 -0.211976 -0.091893
v -0.649357 -0.316091 -0.091893
v -0.652623 -0.319434 -0.090249
v -0.694301 -0.298596 -0.069422
v -0.715118 -0.319434 -0.048596
v -0.777570 -0.298596 -0.006919
v -0.798388 -0.361033 0.034734
v -0.777570 -0.402710 0.034734
v -0.798388 -0.402710 0.055535
v -0.798388 -0.485987 0.097187
v -0.801872 -0.510246 0.114546
v -0.801872 -0.531085 0.135372
v -0.794904 -0.544925 0.142306
v -0.777570 -0.569263 0.138839
v -0.739376 -0.614361 0.161411
v -0.729011 -0.603942 0.166624
v -0.791463 -0.520666 0.166624
v -0.513957 -0.326510 -0.091893
v -0.513173 -0.733561 0.153314
v -0.520707 -0.791411 0.166624
v -0.513173 -0.807817 0.159362
v -0.638948 -0.341905 -0.091893
v -0.649182 -0.336774 -0.086782
v -0.656107 -0.364532 -0.072889
v -0.697742 -0.343694 -0.052063
v -0.718603 -0.406209 -0.010411
v -0.735892 -0.381872 -0.006919
v -0.760194 -0.426970 0.031267
v -0.777570 -0.444310 0.055535
v -0.781011 -0.510246 0.093720
v -0.718603 -0.593523 0.093720
v -0.739376 -0.593523 0.114546
v -0.739376 -0.614361 0.135372
v -0.729011 -0.624780 0.158805
v -0.718603 -0.635200 0.161411
v -0.708194 -0.624780 0.166624
v -0.513173 -0.352636 -0.081847
v -0.513173 -0.346571 -0.087946
v -0.513173 -0.342683 -0.091893
v -0.531116 -0.801830 0.161411
v -0.604020 -0.728973 0.166624
v -0.513173 -0.810850 0.147215
v -0.597270 -0.404343 -0.091893
v -0.614429 -0.426970 -0.072889
v -0.635290 -0.447731 -0.052063
v -0.697742 -0.489408 0.010415
v -0.760194 -0.468569 0.052068
v -0.718603 -0.531085 0.052068
v -0.676924 -0.614361 0.072894
v -0.635290 -0.656038 0.072894
v -0.718603 -0.635200 0.135372
v -0.729011 -0.624780 0.145773
v -0.708194 -0.645619 0.158805
v -0.635290 -0.718554 0.161411
v -0.624881 -0.708135 0.166624
v -0.513173 -0.509158 -0.091893
v -0.531116 -0.801830 0.135372
v -0.614429 -0.739392 0.161411
v -0.513173 -0.795221 0.121201
v -0.534818 -0.487620 -0.091893
v -0.551977 -0.510246 -0.072889
v -0.635290 -0.531085 -0.010411
v -0.676924 -0.551923 0.031267
v -0.614429 -0.676877 0.072894
v -0.593611 -0.718554 0.093720
v -0.635290 -0.718554 0.135372
v -0.656107 -0.572762 0.031267
v -0.593611 -0.572762 -0.010411
v -0.551977 -0.614361 -0.010411
v -0.708194 -0.645619 0.145773
v -0.624881 -0.728973 0.158805
v -0.513173 -0.549046 -0.070004
v -0.531116 -0.531085 -0.072889
v -0.513957 -0.508380 -0.091893
v -0.614429 -0.739392 0.135372
v -0.593611 -0.739392 0.114546
v -0.531116 -0.739392 0.072894
v -0.513173 -0.753544 0.079524
v -0.572794 -0.656038 0.031267
v -0.551977 -0.697715 0.052068
v -0.624881 -0.728973 0.145773
v -0.513173 -0.612962 -0.029794
v -0.513173 -0.674000 0.013326
vn -0.8939 -0.0000 0.4483
vn -0.8943 -0.0000 -0.4475
vn -0.8986 -0.1500 -0.4123
vn -0.8852 -0.1478 0.4412
vn -0.8841 -0.1473 0.4435
vn -0.7016 -0.1169 0.7029
vn -0.7019 -0.1169 0.7026
vn -0.4481 -0.0000 0.8940
vn -0.4487 -0.0000 0.8937
vn -0.0000 1.0000 -0.0000
vn -0.7071 -0.0000 -0.7071
vn -0.7071 -0.0001 -0.7071
vn -0.7620 -0.1272 -0.6349
vn -0.8928 -0.2232 -0.3912
vn -0.8745 -0.2186 0.4330
vn -0.8735 -0.2182 0.4352
vn -0.8735 -0.2181 0.4353
vn -0.8734 -0.2181 0.4354
vn -0.8723 -0.2181 0.4377
vn -0.8717 -0.2179 0.4390
vn -0.8714 -0.2178 0.4395
vn -0.4478 -0.0000 0.8941
vn -0.3936 -0.0656 0.9169
vn -0.4476 -0.0000 0.8942
vn -0.5972 -0.0994 -0.7959
vn -0.7070 -0.0002 -0.7072
vn -0.5549 -0.0000 -0.8319
vn -0.7068 -0.0010 -0.7074
vn -0.6960 -0.1740 -0.6966
vn -0.6964 -0.1741 -0.6962
vn -0.7375 -0.1639 -0.6552
vn -0.7444 -0.2479 -0.6200
vn -0.7444 -0.2479 -0.6201
vn -0.8016 -0.2669 -0.5350
vn -0.8024 -0.2668 -0.5338
vn -0.8019 -0.2677 -0.5340
vn -0.8022 -0.2682 -0.5335
vn -0.8886 -0.3809 -0.2555
vn -0.9109 -0.4098 -0.0486
vn -0.9117 -0.4064 0.0599
vn -0.9105 -0.3994 0.1072
vn -0.8721 -0.2182 0.4380
vn -0.8228 -0.3294 0.4631
vn -0.3703 -0.0926 0.9243
vn -0.0000 -0.0000 1.0000
vn 0.4342 0.2442 0.8671
vn -0.5971 -0.1000 -0.7959
vn -0.4498 -0.0000 -0.8931
vn -0.3721 -0.0930 -0.9235
vn -0.5500 -0.1375 -0.8238
vn -0.6171 -0.1543 -0.7716
vn -0.6177 -0.1544 -0.7711
vn -0.6178 -0.1544 -0.7711
vn -0.7061 -0.0032 -0.7081
vn -0.6552 -0.1638 -0.7375
vn -0.6554 -0.1642 -0.7372
vn -0.6953 -0.1742 -0.6973
vn -0.6873 -0.2293 -0.6893
vn -0.6877 -0.2295 -0.6888
vn -0.6884 -0.2292 -0.6881
vn -0.7444 -0.2482 -0.6199
vn -0.8014 -0.2672 -0.5351
vn -0.6979 -0.3486 -0.6256
vn -0.8130 -0.3389 -0.4735
vn -0.6671 -0.3332 -0.6662
vn -0.6974 -0.3490 -0.6260
vn -0.7677 -0.4538 -0.4524
vn -0.8615 -0.4926 -0.1229
vn -0.8939 -0.4482 -0.0019
vn -0.8936 -0.4488 0.0012
vn -0.8630 -0.5026 0.0513
vn -0.8589 -0.5067 0.0740
vn -0.8495 -0.5095 0.1371
vn -0.2940 -0.1763 0.9394
vn -0.3337 -0.1336 0.9332
vn 0.4766 0.2659 0.8379
vn 0.5945 0.3296 0.7335
vn 1.0000 -0.0000 -0.0000
vn -0.5886 -0.1957 -0.7844
vn -0.0000 -0.0000 -1.0000
vn -0.3686 -0.0923 -0.9250
vn -0.3327 -0.1330 -0.9336
vn -0.3335 -0.1334 -0.9333
vn -0.5183 -0.2073 -0.8297
vn -0.5885 -0.1960 -0.7844
vn -0.5888 -0.1962 -0.7841
vn -0.5890 -0.1961 -0.7840
vn -0.6362 -0.2118 -0.7419
vn -0.6448 -0.2413 -0.7253
vn -0.6336 -0.2719 -0.7243
vn -0.6660 -0.3327 -0.6677
vn -0.6662 -0.3329 -0.6673
vn -0.6664 -0.3333 -0.6669
vn -0.6665 -0.3335 -0.6667
vn -0.6667 -0.3337 -0.6664
vn -0.6557 -0.3748 -0.6554
vn -0.7491 -0.4683 -0.4686
vn -0.7505 -0.4680 -0.4666
vn -0.8036 -0.5352 -0.2606
vn -0.8035 -0.5351 -0.2608
vn -0.8443 -0.5305 0.0763
vn -0.8494 -0.5198 0.0918
vn -0.7980 -0.5875 0.1346
vn -0.7905 -0.5932 0.1523
vn -0.2699 -0.2025 0.9414
vn -0.2694 -0.2020 0.9416
vn 0.7251 0.3065 0.6168
vn 0.8639 0.2612 0.4308
vn -0.0000 -0.4048 0.9144
vn -0.3327 -0.1342 -0.9334
vn -0.5341 -0.2663 -0.8024
vn -0.5344 -0.2669 -0.8020
vn -0.5346 -0.2672 -0.8017
vn -0.5346 -0.2678 -0.8015
vn -0.5351 -0.2689 -0.8008
vn -0.5807 -0.3083 -0.7535
vn -0.5841 -0.3072 -0.7513
vn -0.5953 -0.2996 -0.7456
vn -0.5967 -0.2981 -0.7451
vn -0.5967 -0.2981 -0.7450
vn -0.5892 -0.3116 -0.7455
vn -0.5886 -0.3152 -0.7444
vn -0.6261 -0.3487 -0.6974
vn -0.6260 -0.3487 -0.6975
vn -0.6664 -0.3335 -0.6669
vn -0.6664 -0.3335 -0.6668
vn -0.6549 -0.3753 -0.6560
vn -0.6387 -0.3604 -0.6798
vn -0.6244 -0.4679 -0.6254
vn -0.6252 -0.4692 -0.6236
vn -0.6681 -0.5014 -0.5497
vn -0.7105 -0.4975 -0.4978
vn -0.6685 -0.5257 -0.5260
vn -0.7631 -0.6463 -0.0000
vn -0.7089 -0.7053 -0.0000
vn -0.7082 -0.7060 0.0057
vn -0.2368 -0.2360 0.9425
vn -0.2361 -0.2358 0.9427
vn 0.9977 0.0485 0.0482
vn 0.9977 0.0484 0.0476
vn 0.9887 0.0787 0.1274
vn -0.0359 -0.4182 0.9076
vn -0.2019 -0.2694 0.9416
vn -0.2839 -0.9303 0.2323
vn -0.4807 -0.3209 -0.8161
vn -0.4865 -0.3248 -0.8111
vn -0.5485 -0.3296 -0.7685
vn -0.5490 -0.3288 -0.7685
vn -0.5485 -0.3299 -0.7683
vn -0.5800 -0.3317 -0.7440
vn -0.5978 -0.3585 -0.7170
vn -0.5975 -0.3975 -0.6964
vn -0.5951 -0.4460 -0.6685
vn -0.5697 -0.4561 -0.6837
vn -0.5772 -0.5766 -0.5782
vn -0.5774 -0.5771 -0.5775
vn -0.5785 -0.5766 -0.5770
vn -0.5784 -0.5766 -0.5770
vn -0.7082 -0.7060 -0.0014
vn -0.7075 -0.7067 -0.0000
vn -0.7075 -0.7067 -0.0003
vn -0.7073 -0.7069 0.0013
vn -0.2360 -0.2359 0.9427
vn -0.4491 -0.8935 -0.0000
vn -0.5997 -0.8002 -0.0000
vn -0.2358 -0.2361 0.9427
vn -0.0906 -0.8537 -0.5129
vn -0.4570 -0.3428 -0.8207
vn -0.4570 -0.3428 -0.8208
vn -0.4651 -0.3488 -0.8136
vn -0.4880 -0.3902 -0.7808
vn -0.5124 -0.3839 -0.7682
vn -0.5274 -0.4216 -0.7376
vn -0.5652 -0.4242 -0.7075
vn -0.5973 -0.3973 -0.6967
vn -0.5694 -0.4560 -0.6840
vn -0.4855 -0.4850 -0.7274
vn -0.5764 -0.5770 -0.5786
vn -0.5772 -0.5772 -0.5776
vn -0.4854 -0.4850 -0.7274
vn -0.4851 -0.4851 -0.7276
vn -0.4848 -0.4852 -0.7276
vn -0.4848 -0.4853 -0.7276
vn -0.7073 -0.7069 -0.0003
vn -0.7073 -0.7069 -0.0000
vn -0.7067 -0.7075 0.0058
vn -0.3224 -0.4554 -0.8299
vn -0.3936 -0.3967 -0.8293
vn -0.5144 -0.6863 -0.5142
vn -0.4262 -0.6399 -0.6395
vn -0.2854 -0.6779 -0.6775
vn -0.7060 -0.7082 -0.0000
vn -0.2842 -0.6780 -0.6779
vn -0.3942 -0.3961 -0.8292
vn -0.3956 -0.3960 -0.8287
vn -0.4572 -0.4576 -0.7626
vn -0.4574 -0.4575 -0.7626
vn -0.4844 -0.4857 -0.7276
vn -0.4245 -0.5651 -0.7074
vn -0.4245 -0.5654 -0.7072
vn -0.4243 -0.5657 -0.7071
vn -0.4264 -0.6394 -0.6398
vn -0.5772 -0.5779 -0.5770
vn -0.7067 -0.7075 -0.0015
vn -0.3611 -0.5381 -0.7617
vn -0.3880 -0.5475 -0.7414
vn -0.3740 -0.4948 -0.7844
vn -0.3689 -0.4949 -0.7867
vn -0.3883 -0.5601 -0.7318
vn -0.2153 -0.6247 -0.7506
vn -0.3888 -0.5595 -0.7319
s 0
f 1//1 2//1 9//1
f 1//1 9//1 3//1
f 1//2 3//2 10//2
f 1//2 10//2 4//2
f 1//3 4//3 13//3
f 1//3 13//3 5//3
f 1//4 5//4 6//4
f 1//5 6//5 2//5
f 2//6 6//6 18//6
f 2//7 18//7 7//7
f 2//8 7//8 8//8
f 2//9 8//9 9//9
f 3//10 9//10 8//10
f 3//10 8//10 20//10
f 3//10 20//10 36//10
f 3//10 36//10 56//10
f 3//10 56//10 59//10
f 3//10 59//10 38//10
f 3//10 38//10 21//10
f 3//10 21//10 10//10
f 4//11 10//11 21//11
f 4//11 21//11 11//11
f 4//12 11//12 12//12
f 4//13 12//13 13//13
f 5//14 13//14 14//14
f 5//15 14//15 15//15
f 5//16 15//16 16//16
f 5//17 16//17 6//17
f 6//18 16//18 15//18
f 6//19 15//19 17//19
f 6//20 17//20 34//20
f 6//21 34//21 18//21
f 7//22 19//22 8//22
f 7//23 18//23 35//23
f 7//23 35//23 19//23
f 8//24 19//24 20//24
f 11//25 22//25 23//25
f 11//26 23//26 12//26
f 11//27 21//27 38//27
f 11//27 38//27 22//27
f 12//28 23//28 24//28
f 12//29 24//29 25//29
f 12//30 25//30 26//30
f 12//31 26//31 13//31
f 13//32 26//32 47//32
f 13//33 47//33 27//33
f 13//34 27//34 28//34
f 13//35 28//35 14//35
f 14//36 28//36 29//36
f 14//37 29//37 30//37
f 14//38 30//38 31//38
f 14//39 31//39 32//39
f 14//40 32//40 33//40
f 14//41 33//41 15//41
f 15//42 34//42 17//42
f 15//43 33//43 34//43
f 18//44 34//44 55//44
f 18//44 55//44 35//44
f 19//45 35//45 55//45
f 19//45 55//45 54//45
f 19//45 54//45 76//45
f 19//45 76//45 75//45
f 19//45 75//45 95//45
f 19//45 95//45 114//45
f 19//45 114//45 100//45
f 19//45 100//45 79//45
f 19//45 79//45 58//45
f 19//45 58//45 37//45
f 19//45 37//45 20//45
f 20//46 37//46 36//46
f 22//47 39//47 23//47
f 22//48 38//48 59//48
f 22//48 59//48 40//48
f 22//49 40//49 41//49
f 22//50 41//50 39//50
f 23//51 39//51 42//51
f 23//52 42//52 44//52
f 23//53 44//53 43//53
f 23//54 43//54 24//54
f 24//55 43//55 44//55
f 24//56 44//56 45//56
f 24//57 45//57 25//57
f 25//58 45//58 46//58
f 25//59 46//59 47//59
f 25//60 47//60 26//60
f 27//61 47//61 29//61
f 27//62 29//62 28//62
f 29//63 48//63 31//63
f 29//64 31//64 30//64
f 29//65 47//65 48//65
f 31//66 48//66 49//66
f 31//67 49//67 50//67
f 31//68 50//68 51//68
f 31//69 51//69 32//69
f 32//70 51//70 33//70
f 33//71 51//71 50//71
f 33//72 50//72 52//72
f 33//73 52//73 53//73
f 33//74 53//74 76//74
f 33//74 76//74 54//74
f 33//75 54//75 55//75
f 33//75 55//75 34//75
f 36//76 37//76 57//76
f 36//77 57//77 56//77
f 37//78 58//78 80//78
f 37//78 80//78 101//78
f 37//78 101//78 118//78
f 37//78 118//78 137//78
f 37//78 137//78 142//78
f 37//78 142//78 141//78
f 37//78 141//78 131//78
f 37//78 131//78 115//78
f 37//78 115//78 98//78
f 37//78 98//78 97//78
f 37//78 97//78 96//78
f 37//78 96//78 78//78
f 37//78 78//78 57//78
f 39//79 41//79 42//79
f 40//80 59//80 56//80
f 40//80 56//80 77//80
f 40//80 77//80 98//80
f 40//80 98//80 115//80
f 40//80 115//80 133//80
f 40//80 133//80 119//80
f 40//80 119//80 102//80
f 40//80 102//80 81//80
f 40//80 81//80 61//80
f 40//80 61//80 60//80
f 40//81 60//81 41//81
f 41//82 60//82 61//82
f 41//83 61//83 62//83
f 41//84 62//84 63//84
f 41//85 63//85 64//85
f 41//85 64//85 42//85
f 42//86 64//86 65//86
f 42//87 65//87 44//87
f 44//88 65//88 45//88
f 45//89 65//89 46//89
f 46//90 65//90 66//90
f 46//91 66//91 67//91
f 46//92 67//92 47//92
f 47//93 67//93 68//93
f 47//94 68//94 69//94
f 47//94 69//94 48//94
f 48//95 69//95 49//95
f 49//96 69//96 70//96
f 49//97 70//97 71//97
f 49//98 71//98 50//98
f 50//99 71//99 73//99
f 50//100 73//100 72//100
f 50//101 72//101 53//101
f 50//102 53//102 52//102
f 53//103 72//103 73//103
f 53//104 73//104 74//104
f 53//105 74//105 75//105
f 53//106 75//106 76//106
f 56//107 57//107 78//107
f 56//108 78//108 77//108
f 58//109 79//109 80//109
f 61//110 81//110 62//110
f 62//111 81//111 63//111
f 63//112 81//112 82//112
f 63//113 82//113 64//113
f 64//114 82//114 83//114
f 64//115 83//115 84//115
f 64//116 84//116 85//116
f 64//117 85//117 86//117
f 64//118 86//118 67//118
f 64//119 67//119 65//119
f 65//120 67//120 66//120
f 67//121 86//121 85//121
f 67//122 85//122 87//122
f 67//123 87//123 106//123
f 67//124 106//124 88//124
f 67//125 88//125 68//125
f 68//126 88//126 69//126
f 69//127 89//127 70//127
f 69//128 88//128 106//128
f 69//128 106//128 89//128
f 70//129 89//129 90//129
f 70//130 90//130 91//130
f 70//131 91//131 73//131
f 70//132 73//132 71//132
f 73//133 91//133 92//133
f 73//134 92//134 74//134
f 74//135 92//135 111//135
f 74//135 111//135 93//135
f 74//136 93//136 94//136
f 74//137 94//137 75//137
f 75//138 94//138 95//138
f 77//139 96//139 97//139
f 77//140 97//140 98//140
f 77//141 78//141 96//141
f 79//142 99//142 80//142
f 79//143 100//143 117//143
f 79//143 117//143 99//143
f 80//144 99//144 101//144
f 81//145 102//145 103//145
f 81//145 103//145 83//145
f 81//114 83//114 82//114
f 83//146 103//146 104//146
f 83//147 104//147 85//147
f 83//148 85//148 84//148
f 85//149 104//149 105//149
f 85//150 105//150 87//150
f 87//151 105//151 106//151
f 89//152 106//152 107//152
f 89//153 107//153 90//153
f 90//154 107//154 108//154
f 90//155 108//155 109//155
f 90//156 109//156 125//156
f 90//156 125//156 110//156
f 90//157 110//157 92//157
f 90//158 92//158 91//158
f 92//159 110//159 111//159
f 93//160 111//160 110//160
f 93//160 110//160 129//160
f 93//160 129//160 112//160
f 93//161 112//161 94//161
f 94//162 112//162 130//162
f 94//162 130//162 113//162
f 94//163 113//163 114//163
f 94//163 114//163 95//163
f 99//164 116//164 101//164
f 99//165 117//165 134//165
f 99//165 134//165 116//165
f 100//166 114//166 113//166
f 100//166 113//166 117//166
f 101//167 116//167 118//167
f 102//168 119//168 120//168
f 102//169 120//169 103//169
f 103//170 120//170 104//170
f 104//171 120//171 121//171
f 104//172 121//172 105//172
f 105//173 121//173 122//173
f 105//174 122//174 107//174
f 105//175 107//175 106//175
f 107//176 122//176 108//176
f 108//177 122//177 126//177
f 108//177 126//177 109//177
f 109//178 123//178 124//178
f 109//179 124//179 135//179
f 109//179 135//179 125//179
f 109//180 126//180 121//180
f 109//181 121//181 127//181
f 109//182 127//182 128//182
f 109//183 128//183 123//183
f 110//184 125//184 140//184
f 110//184 140//184 129//184
f 112//185 129//185 140//185
f 112//185 140//185 130//185
f 113//186 130//186 117//186
f 115//187 131//187 132//187
f 115//188 132//188 133//188
f 116//189 134//189 135//189
f 116//190 135//190 136//190
f 116//191 136//191 118//191
f 117//192 130//192 140//192
f 117//192 140//192 134//192
f 118//193 136//193 137//193
f 119//194 133//194 132//194
f 119//195 132//195 120//195
f 120//196 132//196 128//196
f 120//196 128//196 127//196
f 120//197 127//197 121//197
f 121//177 126//177 122//177
f 123//198 128//198 138//198
f 123//199 138//199 139//199
f 123//200 139//200 124//200
f 124//201 139//201 136//201
f 124//202 136//202 135//202
f 125//203 135//203 134//203
f 125//204 134//204 140//204
f 128//205 141//205 142//205
f 128//206 142//206 138//206
f 128//207 132//207 141//207
f 131//208 141//208 132//208
f 136//209 139//209 142//209
f 136//210 142//210 137//210
f 138//211 142//211 139//211
