# Blender 4.4.0
# www.blender.org
o convex_14
v -0.902755 0.318921 0.145785
v -0.902680 0.318921 0.145363
v -0.902232 0.318921 0.146893
v -0.890394 0.364517 0.156205
v -0.893979 0.318921 0.126556
v -0.890394 0.356721 0.145785
v -0.885166 0.359320 0.135366
v -0.895249 0.318921 0.160874
v -0.888639 0.354122 0.159660
v -0.877362 0.374912 0.161401
v -0.814888 0.499888 0.161401
v -0.869557 0.406192 0.156205
v -0.853948 0.437424 0.145785
v -0.874748 0.395750 0.145785
v -0.867802 0.402695 0.131910
v -0.884681 0.318921 0.115028
v -0.864329 0.380157 0.114554
v -0.867802 0.361021 0.111072
v -0.890917 0.318921 0.163010
v -0.874748 0.354122 0.166624
v -0.853948 0.395750 0.166624
v -0.770637 0.541563 0.166624
v -0.773213 0.562353 0.161401
v -0.786246 0.551958 0.156205
v -0.827883 0.489493 0.156205
v -0.833111 0.437424 0.166624
v -0.812274 0.479051 0.166624
v -0.847002 0.451315 0.145785
v -0.847002 0.444370 0.131910
v -0.822207 0.318921 0.052565
v -0.860856 0.347177 0.097197
v -0.840057 0.347177 0.076358
v -0.819219 0.347177 0.055519
v -0.843529 0.380157 0.093715
v -0.843529 0.421784 0.114554
v -0.874748 0.318921 0.166624
v -0.687325 0.645654 0.166624
v -0.689939 0.666492 0.161401
v -0.702972 0.656049 0.156205
v -0.756745 0.590088 0.145785
v -0.798382 0.527671 0.145785
v -0.840057 0.465160 0.145785
v -0.843529 0.453016 0.135366
v -0.822692 0.484296 0.135366
v -0.833111 0.458261 0.124947
v -0.822692 0.463459 0.114554
v -0.780533 0.318921 0.010913
v -0.822692 0.380157 0.072876
v -0.801855 0.380157 0.052063
v -0.867391 0.318921 0.164778
v -0.521300 0.770016 0.166624
v -0.666526 0.666492 0.166624
v -0.669102 0.687282 0.161401
v -0.656107 0.702921 0.156205
v -0.676944 0.682084 0.156205
v -0.676944 0.671689 0.135366
v -0.697744 0.650852 0.135366
v -0.739381 0.588387 0.114554
v -0.760218 0.577945 0.135366
v -0.763691 0.569299 0.131910
v -0.781018 0.463459 0.072876
v -0.760218 0.525923 0.093715
v -0.756745 0.326339 -0.006918
v -0.722166 0.318921 -0.034721
v -0.739381 0.359320 -0.010400
v -0.760218 0.421784 0.031251
v -0.857160 0.318921 0.160584
v -0.521300 0.746580 0.161401
v -0.521300 0.747242 0.161560
v -0.521300 0.770630 0.166624
v -0.645688 0.687282 0.166624
v -0.564991 0.770630 0.161401
v -0.656107 0.692526 0.135366
v -0.551959 0.786223 0.156205
v -0.590160 0.756739 0.145785
v -0.676944 0.609177 0.072876
v -0.718544 0.588387 0.093715
v -0.739381 0.525923 0.072876
v -0.718544 0.525923 0.052063
v -0.742854 0.340231 -0.013882
v -0.722017 0.319394 -0.034695
v -0.721307 0.318921 -0.035328
v -0.718544 0.338483 -0.031239
v -0.718544 0.400947 -0.010400
v -0.676944 0.421784 -0.031239
v -0.697744 0.380157 -0.031239
v -0.676944 0.546760 0.031251
v -0.523952 0.318921 -0.089324
v -0.843529 0.328088 0.156205
v -0.531121 0.723758 0.156205
v -0.521300 0.318921 -0.091408
v -0.521300 0.793452 0.161401
v -0.541540 0.770630 0.166624
v -0.548486 0.784522 0.159660
v -0.593633 0.713316 0.093715
v -0.614433 0.671689 0.072876
v -0.583214 0.749793 0.124947
v -0.593633 0.734153 0.114554
v -0.521300 0.800209 0.151219
v -0.521300 0.801579 0.145785
v -0.527649 0.798366 0.145785
v -0.562377 0.778427 0.145785
v -0.572796 0.765386 0.135366
v -0.593633 0.609177 0.010439
v -0.697259 0.318921 -0.051550
v -0.656107 0.338483 -0.072890
v -0.635270 0.442621 -0.052051
v -0.614433 0.421784 -0.072890
v -0.593633 0.400947 -0.093703
v -0.635270 0.380157 -0.072890
v -0.635270 0.484296 -0.031239
v -0.635270 0.525923 -0.010400
v -0.521300 0.318921 -0.102856
v -0.531121 0.734153 0.072876
v -0.531121 0.713316 0.052063
v -0.551959 0.671689 0.031251
v -0.521300 0.790523 0.124366
v -0.531121 0.775828 0.114554
v -0.521300 0.792035 0.126767
v -0.531121 0.630015 -0.010400
v -0.551959 0.546760 -0.052051
v -0.634784 0.318921 -0.093202
v -0.614433 0.359320 -0.093703
v -0.572796 0.484296 -0.072890
v -0.551959 0.463459 -0.093703
v -0.583214 0.388568 -0.102856
v -0.590608 0.377417 -0.102856
v -0.611445 0.335789 -0.102856
v -0.617794 0.318921 -0.102856
v -0.521300 0.471255 -0.102856
v -0.521300 0.748895 0.082689
v -0.521300 0.728058 0.061876
v -0.521300 0.710859 0.047157
v -0.521300 0.769733 0.103527
v -0.521300 0.627558 -0.015307
v -0.531121 0.525923 -0.072890
v -0.531121 0.484296 -0.093703
v -0.541540 0.460860 -0.098926
v -0.533698 0.458875 -0.102856
v -0.521300 0.481083 -0.098926
v -0.521300 0.523466 -0.077797
v -0.521300 0.481839 -0.098609
vn -0.0000 -1.0000 -0.0000
vn -0.0000 -1.0000 -0.0001
vn -0.8946 0.1460 0.4223
vn -0.9412 0.2935 -0.1674
vn -0.9255 0.3033 -0.2269
vn -0.8823 0.2909 -0.3701
vn -0.8718 0.2781 -0.4033
vn -0.8859 0.1396 0.4425
vn -0.6343 0.1453 0.7593
vn -0.4950 0.1976 0.8461
vn -0.5327 0.2663 0.8033
vn -0.5333 0.2666 0.8028
vn -0.8944 0.4472 0.0005
vn -0.8944 0.4472 0.0009
vn -0.8947 0.4466 -0.0049
vn -0.8942 0.3585 -0.2682
vn -0.8171 0.2873 -0.4999
vn -0.8000 0.2838 -0.5286
vn -0.7563 0.2475 -0.6057
vn -0.7546 0.2453 -0.6086
vn -0.8759 0.3220 -0.3592
vn -0.4395 0.1104 0.8914
vn -0.4452 0.1142 0.8881
vn -0.4420 0.1659 0.8816
vn -0.3665 0.1831 0.9122
vn -0.3666 0.1832 0.9122
vn -0.2967 0.1979 0.9342
vn -0.5952 0.3971 0.6985
vn -0.5968 0.3978 0.6968
vn -0.5345 0.2674 0.8018
vn -0.3663 0.1831 0.9123
vn -0.3654 0.1829 0.9127
vn -0.2960 0.1971 0.9346
vn -0.8943 0.4474 0.0017
vn -0.8728 0.4364 -0.2185
vn -0.8730 0.4357 -0.2189
vn -0.7127 0.3557 -0.6046
vn -0.7490 0.2423 -0.6167
vn -0.6999 0.1493 -0.6985
vn -0.6994 0.1474 -0.6994
vn -0.6994 0.1471 -0.6995
vn -0.6784 0.2850 -0.6771
vn -0.6784 0.2849 -0.6771
vn -0.7444 0.2479 -0.6200
vn -0.7120 0.3558 -0.6054
vn -0.6673 0.3334 -0.6660
vn -0.2181 -0.0000 0.9759
vn -0.0000 -0.0000 1.0000
vn 0.0001 -0.0000 1.0000
vn -0.0004 -0.0000 1.0000
vn -0.2558 0.2047 0.9448
vn -0.2569 0.2054 0.9444
vn -0.6369 0.5093 0.5787
vn -0.6388 0.5110 0.5752
vn -0.7787 0.6229 0.0750
vn -0.7913 0.5278 -0.3087
vn -0.7916 0.5277 -0.3081
vn -0.7918 0.5278 -0.3074
vn -0.8938 0.4484 -0.0027
vn -0.8722 0.4375 -0.2190
vn -0.8715 0.4381 -0.2202
vn -0.7290 0.4856 -0.4823
vn -0.7280 0.4852 -0.4844
vn -0.7273 0.4829 -0.4876
vn -0.7118 0.3559 -0.6056
vn -0.6992 0.1471 -0.6996
vn -0.6777 0.2853 -0.6777
vn -0.6773 0.2855 -0.6781
vn -0.6409 0.2618 -0.7216
vn -0.6670 0.3335 -0.6662
vn -0.6667 0.3335 -0.6666
vn 0.2391 -0.1873 0.9528
vn -0.2128 0.2124 0.9537
vn -0.2127 0.2132 0.9536
vn -0.6637 0.6652 0.3422
vn -0.6667 0.6667 0.3332
vn -0.6669 0.6667 0.3328
vn -0.6669 0.6668 -0.3326
vn -0.6672 0.6660 -0.3335
vn -0.7044 0.6268 -0.3330
vn -0.7071 0.5660 -0.4239
vn -0.7803 0.5206 -0.3466
vn -0.7804 0.5206 -0.3464
vn -0.6874 0.5963 -0.4146
vn -0.7809 0.5206 -0.3453
vn -0.7808 0.5201 -0.3461
vn -0.7282 0.4858 -0.4835
vn -0.7275 0.4852 -0.4850
vn -0.7274 0.4852 -0.4852
vn -0.7270 0.4848 -0.4863
vn -0.6398 0.4267 -0.6392
vn -0.6396 0.4264 -0.6396
vn -0.6139 0.0812 -0.7852
vn -0.6359 0.2655 -0.7246
vn -0.6296 0.2540 -0.7343
vn -0.6665 0.3334 -0.6668
vn -0.6664 0.3330 -0.6672
vn -0.6336 0.2716 -0.7244
vn 0.3633 -0.2870 0.8863
vn 0.2856 -0.2238 0.9318
vn 0.2676 -0.2091 0.9406
vn 1.0000 -0.0006 -0.0000
vn 1.0000 -0.0000 -0.0000
vn 1.0000 -0.0003 -0.0000
vn -0.2101 0.2624 0.9418
vn -0.4912 0.6136 0.6183
vn -0.6668 0.6668 -0.3326
vn -0.4933 0.6167 0.6135
vn -0.6226 0.7784 0.0800
vn -0.6251 0.6985 -0.3484
vn -0.5773 0.5773 -0.5775
vn -0.5776 0.5771 -0.5773
vn -0.5786 0.5775 -0.5759
vn -0.7274 0.4859 -0.4845
vn -0.5776 0.5769 -0.5776
vn -0.6395 0.4267 -0.6395
vn -0.6393 0.4261 -0.6401
vn -0.6134 0.3835 -0.6904
vn -0.6212 0.2486 -0.7432
vn -0.5887 0.1955 -0.7844
vn -0.5680 0.2231 -0.7922
vn -0.5626 0.2216 -0.7965
vn -0.5515 0.2457 -0.7972
vn -0.5960 0.2983 -0.7455
vn -0.5355 0.2680 -0.8009
vn -0.5349 0.2673 -0.8015
vn -0.5348 0.2669 -0.8017
vn -0.5576 0.3701 -0.7430
vn -0.5575 0.3715 -0.7424
vn -0.5573 0.3713 -0.7427
vn 0.5345 -0.4543 0.7127
vn 0.5161 -0.4075 0.7534
vn 0.4942 -0.3896 0.7771
vn 0.5881 -0.4116 0.6962
vn -0.0000 0.2231 0.9748
vn -0.2098 0.2621 0.9419
vn -0.2032 0.3557 0.9122
vn -0.4140 0.5798 0.7017
vn -0.5771 0.5775 -0.5774
vn -0.5959 0.6810 -0.4256
vn -0.5956 0.6805 -0.4269
vn -0.2776 0.7215 0.6343
vn -0.2787 0.8002 0.5310
vn -0.3735 0.8995 0.2268
vn -0.4515 0.8922 -0.0137
vn -0.4923 0.8575 -0.1493
vn -0.6151 0.7880 0.0255
vn -0.5769 0.7390 -0.3481
vn -0.5949 0.6819 -0.4256
vn -0.5143 0.5143 -0.6863
vn -0.5291 0.4708 -0.7060
vn -0.5702 0.4558 -0.6835
vn -0.5702 0.4557 -0.6835
vn -0.6391 0.4267 -0.6399
vn -0.5517 0.2447 -0.7973
vn -0.5495 0.2446 -0.7989
vn -0.5423 0.2446 -0.8038
vn -0.5371 0.2516 -0.8051
vn -0.5343 0.2676 -0.8018
vn -0.5343 0.2674 -0.8019
vn -0.5345 0.2672 -0.8018
vn -0.5346 0.2671 -0.8017
vn -0.5571 0.3714 -0.7428
vn -0.5567 0.3711 -0.7432
vn -0.5143 0.4413 -0.7354
vn -0.5566 0.3719 -0.7429
vn 0.5601 -0.4223 0.7127
vn 0.5427 -0.4285 0.7224
vn -0.1792 0.3678 0.9125
vn -0.4264 0.6396 -0.6396
vn -0.4264 0.6392 -0.6400
vn -0.4556 0.5700 -0.6838
vn -0.4556 0.5699 -0.6838
vn -0.4656 0.5430 -0.6988
vn -0.4557 0.6846 -0.5689
vn -0.4556 0.6845 -0.5691
vn -0.4553 0.6829 -0.5713
vn -0.4121 0.8143 -0.4087
vn -0.4532 0.7894 -0.4141
vn -0.4662 0.7488 -0.4711
vn -0.4661 0.7486 -0.4715
vn -0.4216 0.5268 -0.7380
vn -0.4181 0.4880 -0.7662
vn -0.4874 0.4335 -0.7580
vn -0.5370 0.2510 -0.8054
vn -0.5318 0.2579 -0.8067
vn -0.5343 0.2671 -0.8020
vn -0.5341 0.2669 -0.8022
vn -0.5123 0.3837 -0.7683
vn -0.4869 0.3243 -0.8111
vn -0.4868 0.3242 -0.8111
vn -0.4863 0.3242 -0.8114
vn -0.4224 0.2816 -0.8616
vn -0.4233 0.2807 -0.8614
vn -0.5086 0.2546 -0.8225
vn -0.5100 0.2548 -0.8216
vn -0.5121 0.3845 -0.7681
vn -0.4877 0.4183 -0.7663
vn -0.0000 -0.0000 -1.0000
vn -0.3346 0.6664 -0.6663
vn -0.3345 0.6664 -0.6664
vn -0.3336 0.6662 -0.6670
vn -0.2120 0.6354 -0.7425
vn -0.2422 0.5821 -0.7762
vn -0.3709 0.5571 -0.7430
vn -0.3334 0.6674 -0.6659
vn -0.2869 0.4931 -0.8213
vn -0.2870 0.4931 -0.8213
vn -0.3242 0.4869 -0.8111
vn -0.4080 0.4085 -0.8165
vn -0.5196 0.2516 -0.8165
vn -0.4857 0.1828 -0.8548
vn -0.4078 0.4083 -0.8167
vn -0.4079 0.4079 -0.8168
vn -0.3781 0.2662 -0.8867
vn -0.3489 0.3490 -0.8697
vn -0.3774 0.2658 -0.8871
vn -0.3477 0.3482 -0.8706
vn -0.3176 0.4240 -0.8481
vn -0.3422 0.3629 -0.8667
vn -0.3485 0.3488 -0.8700
vn -0.3481 0.3483 -0.8704
s 0
f 1//1 2//1 5//1
f 1//1 5//1 16//1
f 1//1 16//1 30//1
f 1//1 30//1 47//1
f 1//1 47//1 64//1
f 1//2 64//2 82//2
f 1//1 82//1 105//1
f 1//1 105//1 122//1
f 1//1 122//1 129//1
f 1//1 129//1 113//1
f 1//1 113//1 91//1
f 1//1 91//1 88//1
f 1//1 88//1 67//1
f 1//1 67//1 50//1
f 1//1 50//1 36//1
f 1//1 36//1 19//1
f 1//1 19//1 8//1
f 1//1 8//1 3//1
f 1//3 3//3 4//3
f 1//4 4//4 2//4
f 2//5 4//5 6//5
f 2//6 6//6 7//6
f 2//7 7//7 5//7
f 3//8 8//8 4//8
f 4//9 8//9 9//9
f 4//10 9//10 10//10
f 4//11 10//11 11//11
f 4//12 11//12 12//12
f 4//13 12//13 28//13
f 4//14 28//14 13//14
f 4//15 13//15 14//15
f 4//16 14//16 15//16
f 4//16 15//16 6//16
f 5//17 7//17 15//17
f 5//18 15//18 17//18
f 5//19 17//19 18//19
f 5//20 18//20 16//20
f 6//21 15//21 7//21
f 8//22 19//22 20//22
f 8//23 20//23 9//23
f 9//24 20//24 10//24
f 10//25 20//25 21//25
f 10//26 21//26 11//26
f 11//27 22//27 23//27
f 11//28 23//28 24//28
f 11//29 24//29 25//29
f 11//30 25//30 12//30
f 11//31 21//31 26//31
f 11//32 26//32 27//32
f 11//33 27//33 22//33
f 12//34 25//34 28//34
f 13//35 28//35 29//35
f 13//36 29//36 15//36
f 13//36 15//36 14//36
f 15//37 29//37 17//37
f 16//38 18//38 31//38
f 16//39 31//39 32//39
f 16//40 32//40 33//40
f 16//41 33//41 30//41
f 17//42 34//42 32//42
f 17//43 32//43 31//43
f 17//44 31//44 18//44
f 17//45 29//45 35//45
f 17//46 35//46 34//46
f 19//47 36//47 20//47
f 20//48 36//48 51//48
f 20//49 51//49 70//49
f 20//48 70//48 93//48
f 20//48 93//48 71//48
f 20//48 71//48 52//48
f 20//48 52//48 37//48
f 20//48 37//48 22//48
f 20//48 22//48 27//48
f 20//50 27//50 26//50
f 20//48 26//48 21//48
f 22//51 37//51 38//51
f 22//52 38//52 23//52
f 23//53 38//53 24//53
f 24//54 38//54 39//54
f 24//55 39//55 40//55
f 24//56 40//56 41//56
f 24//57 41//57 42//57
f 24//58 42//58 25//58
f 25//59 42//59 28//59
f 28//60 42//60 29//60
f 29//61 42//61 43//61
f 29//62 43//62 44//62
f 29//63 44//63 45//63
f 29//64 45//64 46//64
f 29//65 46//65 35//65
f 30//66 33//66 47//66
f 32//67 34//67 48//67
f 32//67 48//67 33//67
f 33//68 48//68 49//68
f 33//69 49//69 47//69
f 34//70 35//70 46//70
f 34//71 46//71 61//71
f 34//71 61//71 48//71
f 36//72 50//72 51//72
f 37//73 52//73 38//73
f 38//74 52//74 71//74
f 38//74 71//74 53//74
f 38//75 53//75 54//75
f 38//76 54//76 55//76
f 38//77 55//77 39//77
f 39//78 55//78 56//78
f 39//79 56//79 57//79
f 39//80 57//80 40//80
f 40//81 58//81 59//81
f 40//82 59//82 44//82
f 40//83 44//83 41//83
f 40//84 57//84 58//84
f 41//85 44//85 42//85
f 42//86 44//86 43//86
f 44//87 59//87 60//87
f 44//88 60//88 45//88
f 45//89 60//89 58//89
f 45//90 58//90 46//90
f 46//91 58//91 62//91
f 46//92 62//92 78//92
f 46//92 78//92 61//92
f 47//93 63//93 64//93
f 47//94 49//94 65//94
f 47//95 65//95 63//95
f 48//96 61//96 66//96
f 48//97 66//97 49//97
f 49//98 66//98 65//98
f 50//99 67//99 68//99
f 50//100 68//100 69//100
f 50//101 69//101 51//101
f 51//102 69//102 68//102
f 51//103 68//103 91//103
f 51//103 91//103 113//103
f 51//103 113//103 130//103
f 51//103 130//103 140//103
f 51//104 140//104 142//104
f 51//103 142//103 141//103
f 51//103 141//103 135//103
f 51//103 135//103 133//103
f 51//103 133//103 132//103
f 51//103 132//103 131//103
f 51//103 131//103 134//103
f 51//103 134//103 117//103
f 51//103 117//103 119//103
f 51//103 119//103 100//103
f 51//103 100//103 99//103
f 51//103 99//103 92//103
f 51//103 92//103 70//103
f 53//105 71//105 72//105
f 53//106 72//106 54//106
f 54//107 73//107 56//107
f 54//107 56//107 55//107
f 54//108 72//108 74//108
f 54//109 74//109 75//109
f 54//110 75//110 73//110
f 56//111 73//111 96//111
f 56//111 96//111 76//111
f 56//112 76//112 58//112
f 56//113 58//113 57//113
f 58//114 60//114 59//114
f 58//115 76//115 77//115
f 58//116 77//116 78//116
f 58//116 78//116 62//116
f 61//117 78//117 79//117
f 61//118 79//118 66//118
f 63//119 65//119 80//119
f 63//120 80//120 64//120
f 64//121 80//121 81//121
f 64//122 81//122 82//122
f 65//123 83//123 80//123
f 65//124 66//124 84//124
f 65//125 84//125 85//125
f 65//126 85//126 86//126
f 65//127 86//127 83//127
f 66//128 85//128 84//128
f 66//129 79//129 87//129
f 66//130 87//130 85//130
f 67//131 88//131 89//131
f 67//132 89//132 90//132
f 67//133 90//133 68//133
f 68//134 90//134 91//134
f 70//135 92//135 93//135
f 71//136 93//136 72//136
f 72//137 93//137 94//137
f 72//138 94//138 74//138
f 73//139 95//139 96//139
f 73//140 75//140 97//140
f 73//141 97//141 98//141
f 73//139 98//139 95//139
f 74//142 94//142 92//142
f 74//143 92//143 99//143
f 74//144 99//144 100//144
f 74//145 100//145 101//145
f 74//146 101//146 102//146
f 74//147 102//147 75//147
f 75//148 102//148 103//148
f 75//149 103//149 97//149
f 76//150 96//150 104//150
f 76//151 104//151 87//151
f 76//152 87//152 77//152
f 77//153 87//153 79//153
f 77//154 79//154 78//154
f 80//155 83//155 81//155
f 81//156 83//156 82//156
f 82//157 83//157 105//157
f 83//127 86//127 106//127
f 83//158 106//158 105//158
f 85//159 107//159 108//159
f 85//159 108//159 109//159
f 85//160 109//160 110//160
f 85//161 110//161 106//161
f 85//162 106//162 86//162
f 85//163 87//163 111//163
f 85//164 111//164 107//164
f 87//165 104//165 112//165
f 87//166 112//166 111//166
f 88//167 91//167 90//167
f 88//168 90//168 89//168
f 92//169 94//169 93//169
f 95//170 98//170 118//170
f 95//170 118//170 114//170
f 95//171 114//171 115//171
f 95//172 115//172 96//172
f 96//173 115//173 116//173
f 96//174 116//174 104//174
f 97//175 103//175 117//175
f 97//176 117//176 118//176
f 97//177 118//177 98//177
f 100//178 119//178 101//178
f 101//179 119//179 102//179
f 102//180 119//180 103//180
f 103//181 119//181 117//181
f 104//182 116//182 120//182
f 104//183 120//183 121//183
f 104//184 121//184 112//184
f 105//185 106//185 122//185
f 106//186 123//186 122//186
f 106//187 110//187 109//187
f 106//188 109//188 123//188
f 107//189 111//189 124//189
f 107//190 124//190 108//190
f 108//191 124//191 109//191
f 109//192 124//192 125//192
f 109//193 125//193 126//193
f 109//194 126//194 127//194
f 109//195 127//195 128//195
f 109//196 128//196 123//196
f 111//197 112//197 124//197
f 112//198 121//198 124//198
f 113//199 129//199 128//199
f 113//199 128//199 127//199
f 113//199 127//199 126//199
f 113//199 126//199 139//199
f 113//199 139//199 130//199
f 114//200 118//200 134//200
f 114//201 134//201 131//201
f 114//202 131//202 132//202
f 114//202 132//202 115//202
f 115//203 132//203 133//203
f 115//204 133//204 135//204
f 115//204 135//204 120//204
f 115//205 120//205 116//205
f 117//206 134//206 118//206
f 120//207 135//207 141//207
f 120//208 141//208 136//208
f 120//209 136//209 121//209
f 121//210 136//210 124//210
f 122//211 123//211 128//211
f 122//212 128//212 129//212
f 124//213 136//213 137//213
f 124//214 137//214 125//214
f 125//215 138//215 126//215
f 125//216 137//216 138//216
f 126//217 138//217 139//217
f 130//218 139//218 140//218
f 136//219 141//219 142//219
f 136//219 142//219 137//219
f 137//220 142//220 140//220
f 137//221 140//221 138//221
f 138//222 140//222 139//222
