# Blender 4.4.0
# www.blender.org
o convex_10
v 0.815200 -0.506410 0.166619
v 0.811927 -0.506410 0.160082
v 0.811190 -0.506410 0.181957
v 0.807041 -0.531137 0.177035
v 0.799251 -0.541559 0.166619
v 0.796670 -0.510294 0.135369
v 0.799574 -0.506410 0.139249
v 0.807779 -0.506410 0.183364
v 0.805336 -0.527676 0.180499
v 0.791461 -0.544135 0.182244
v 0.744583 -0.614432 0.177035
v 0.786252 -0.551980 0.156202
v 0.736747 -0.624854 0.166619
v 0.773899 -0.506410 0.110655
v 0.781643 -0.506410 0.118415
v 0.794688 -0.506410 0.131488
v 0.755000 -0.572785 0.135369
v 0.755000 -0.510294 0.093702
v 0.791461 -0.506410 0.187452
v 0.791461 -0.520716 0.187452
v 0.728957 -0.627468 0.182244
v 0.715082 -0.652618 0.166619
v 0.723748 -0.635275 0.156202
v 0.739973 -0.506410 0.076748
v 0.710749 -0.645696 0.150994
v 0.671661 -0.676922 0.135369
v 0.713331 -0.572785 0.093702
v 0.734165 -0.510294 0.072894
v 0.770626 -0.506410 0.187452
v 0.728957 -0.604049 0.187452
v 0.645664 -0.687344 0.187452
v 0.666452 -0.689959 0.182244
v 0.673413 -0.694304 0.166619
v 0.733198 -0.506410 0.070941
v 0.630038 -0.614432 0.052087
v 0.652578 -0.715070 0.166619
v 0.648245 -0.708148 0.150994
v 0.546745 -0.781022 0.135369
v 0.546745 -0.760217 0.114535
v 0.546745 -0.739374 0.093702
v 0.567579 -0.697765 0.072894
v 0.588368 -0.656118 0.052087
v 0.671661 -0.531137 0.031253
v 0.692081 -0.506410 0.036904
v 0.763251 -0.506410 0.185812
v 0.344343 -0.862124 0.184275
v 0.344343 -0.874776 0.187452
v 0.624829 -0.731568 0.182244
v 0.603994 -0.728953 0.187452
v 0.567579 -0.614432 0.010420
v 0.609203 -0.572785 0.010420
v 0.640455 -0.718531 0.156202
v 0.614412 -0.744566 0.177035
v 0.569331 -0.777561 0.166619
v 0.531118 -0.807056 0.177035
v 0.506827 -0.819208 0.166619
v 0.494704 -0.822669 0.156202
v 0.485992 -0.826168 0.152738
v 0.442617 -0.843512 0.135369
v 0.484286 -0.801864 0.114535
v 0.484286 -0.781022 0.093702
v 0.463452 -0.697765 0.010420
v 0.546745 -0.635275 0.010420
v 0.484286 -0.656118 -0.010414
v 0.630038 -0.510294 -0.010414
v 0.686596 -0.506410 0.032555
v 0.753710 -0.506410 0.181046
v 0.348906 -0.843512 0.177035
v 0.344343 -0.855894 0.181749
v 0.344343 -0.888659 0.180499
v 0.374950 -0.874776 0.187452
v 0.541536 -0.794058 0.182244
v 0.520701 -0.791443 0.187452
v 0.505121 -0.572785 -0.052055
v 0.567579 -0.510294 -0.052055
v 0.426991 -0.869546 0.177035
v 0.402699 -0.881698 0.166619
v 0.390530 -0.885159 0.156202
v 0.381864 -0.888659 0.152738
v 0.359324 -0.843512 0.093702
v 0.442617 -0.801864 0.093702
v 0.400947 -0.760217 0.031253
v 0.442617 -0.760217 0.052087
v 0.442617 -0.656118 -0.031221
v 0.463452 -0.572785 -0.072888
v 0.629070 -0.506410 -0.012341
v 0.566611 -0.506410 -0.054008
v 0.743938 -0.506410 0.175733
v 0.344343 -0.515794 -0.078591
v 0.344343 -0.845358 0.175186
v 0.344343 -0.895581 0.173989
v 0.374950 -0.888659 0.180499
v 0.395738 -0.877353 0.182244
v 0.437408 -0.856548 0.182244
v 0.416573 -0.853933 0.187452
v 0.505121 -0.531137 -0.072888
v 0.484286 -0.551980 -0.072888
v 0.525910 -0.510294 -0.072888
v 0.385321 -0.890389 0.177035
v 0.388824 -0.888659 0.166619
v 0.374950 -0.895581 0.166619
v 0.344343 -0.892812 0.148546
v 0.344343 -0.842896 0.088181
v 0.344343 -0.807402 0.052712
v 0.359324 -0.801864 0.052087
v 0.344343 -0.737028 -0.008070
v 0.380112 -0.718531 -0.010414
v 0.359324 -0.697765 -0.031221
v 0.359324 -0.635275 -0.072888
v 0.400947 -0.614432 -0.072888
v 0.380112 -0.615393 -0.078591
v 0.442617 -0.573708 -0.078591
v 0.459626 -0.562363 -0.078591
v 0.460594 -0.561402 -0.078591
v 0.524942 -0.506410 -0.074815
v 0.363887 -0.506410 -0.078591
v 0.344343 -0.632314 -0.078591
v 0.344343 -0.899272 0.166619
v 0.515585 -0.506410 -0.078591
v 0.502263 -0.519755 -0.078591
v 0.480460 -0.541559 -0.078591
v 0.344343 -0.703726 -0.031534
v 0.361029 -0.722031 -0.013877
v 0.344343 -0.641274 -0.073201
vn -0.0000 1.0000 -0.0000
vn 0.9463 -0.2080 0.2474
vn 0.8797 -0.3992 -0.2585
vn 0.8286 -0.3760 -0.4149
vn 0.8137 -0.3759 -0.4433
vn 0.8526 -0.1324 -0.5055
vn 0.3760 -0.1660 0.9116
vn 0.7478 -0.2481 0.6159
vn 0.5805 -0.4151 0.7005
vn 0.5959 -0.4468 0.6673
vn 0.8001 -0.5999 0.0019
vn 0.7492 -0.4363 -0.4984
vn 0.7998 -0.6002 -0.0012
vn 0.7432 -0.5577 -0.3695
vn 0.6692 -0.3260 -0.6678
vn 0.6692 -0.3258 -0.6678
vn 0.8420 -0.1000 -0.5301
vn 0.6835 -0.4558 -0.5702
vn 0.6396 -0.4265 -0.6396
vn 0.6666 -0.3337 -0.6666
vn 0.2430 -0.0000 0.9700
vn 0.3740 -0.1659 0.9125
vn 0.3554 -0.2029 0.9124
vn 0.2780 -0.2085 0.9377
vn 0.5952 -0.4464 0.6682
vn 0.6600 -0.6240 0.4183
vn 0.7882 -0.6150 0.0224
vn 0.6857 -0.5146 -0.5148
vn 0.7398 -0.5773 -0.3457
vn 0.6667 -0.3323 -0.6671
vn 0.6398 -0.5113 -0.5738
vn 0.6383 -0.5108 -0.5759
vn 0.6154 -0.4925 -0.6154
vn 0.6660 -0.3341 -0.6669
vn 0.6392 -0.4262 -0.6401
vn -0.0000 -0.0000 1.0000
vn 0.2121 -0.2121 0.9539
vn 0.2123 -0.2123 0.9539
vn 0.6294 -0.6296 0.4555
vn 0.6301 -0.6298 0.4542
vn 0.6614 -0.6004 -0.4494
vn 0.6490 -0.6488 -0.3973
vn 0.6603 -0.6016 -0.4496
vn 0.6356 -0.2146 -0.7416
vn 0.5733 -0.4917 -0.6554
vn 0.6477 -0.6498 -0.3978
vn 0.5855 -0.6685 -0.4585
vn 0.5548 -0.6657 -0.4990
vn 0.5079 -0.6095 -0.6087
vn 0.5077 -0.6090 -0.6093
vn 0.5027 -0.5747 -0.6458
vn 0.5029 -0.5739 -0.6463
vn 0.5299 -0.5297 -0.6623
vn 0.5696 -0.4557 -0.6840
vn 0.5957 -0.4254 -0.6813
vn 0.5970 -0.3255 -0.7332
vn 0.6216 -0.2228 -0.7509
vn -0.2105 0.2438 0.9467
vn -0.2059 0.2383 0.9491
vn 0.2118 -0.2121 0.9540
vn 0.6299 -0.6320 0.4514
vn 0.4853 -0.4851 -0.7274
vn 0.4853 -0.4851 -0.7275
vn 0.4853 -0.4850 -0.7275
vn 0.5368 -0.4472 -0.7154
vn 0.5850 -0.6689 -0.4586
vn 0.6253 -0.6649 0.4085
vn 0.5991 -0.7981 -0.0648
vn 0.5675 -0.7559 -0.3264
vn 0.5659 -0.7074 -0.4235
vn 0.5550 -0.6662 -0.4981
vn 0.5316 -0.7934 -0.2964
vn 0.5265 -0.7956 -0.2997
vn 0.5077 -0.7975 -0.3259
vn 0.4731 -0.7881 -0.3938
vn 0.4729 -0.7880 -0.3941
vn 0.4245 -0.7074 -0.5651
vn 0.4267 -0.6399 -0.6391
vn 0.4264 -0.6395 -0.6397
vn 0.4264 -0.6395 -0.6398
vn 0.3981 -0.5970 -0.6965
vn 0.4242 -0.5659 -0.7070
vn 0.4248 -0.5653 -0.7071
vn 0.4246 -0.5654 -0.7071
vn 0.5273 -0.4217 -0.7377
vn 0.5877 -0.3157 -0.7450
vn 0.5893 -0.3168 -0.7432
vn -0.3955 0.4655 0.7918
vn -0.3819 0.4484 0.8081
vn -0.3069 0.3576 0.8820
vn -1.0000 -0.0000 -0.0000
vn -0.0000 -0.4478 0.8941
vn 0.2017 -0.2688 0.9418
vn 0.4696 -0.6259 0.6227
vn 0.4576 -0.4574 -0.7624
vn 0.4577 -0.4574 -0.7625
vn 0.4577 -0.4574 -0.7624
vn 0.5035 -0.4197 -0.7552
vn 0.5989 -0.7983 -0.0633
vn 0.3443 -0.5738 0.7431
vn 0.5046 -0.8408 -0.1959
vn 0.5046 -0.8408 -0.1958
vn 0.4909 -0.8181 -0.2995
vn 0.4905 -0.8177 -0.3013
vn 0.4742 -0.7905 -0.3876
vn 0.4731 -0.7883 -0.3935
vn 0.3250 -0.6873 -0.6497
vn 0.3334 -0.6669 -0.6664
vn 0.3333 -0.6666 -0.6667
vn 0.3334 -0.6665 -0.6668
vn 0.3333 -0.6664 -0.6669
vn 0.3335 -0.6663 -0.6670
vn 0.3974 -0.5973 -0.6966
vn 0.3584 -0.5979 -0.7169
vn 0.3306 -0.5794 -0.7449
vn 0.3710 -0.5572 -0.7429
vn 0.4183 -0.4875 -0.7664
vn 0.3900 -0.4880 -0.7809
vn 0.3904 -0.4878 -0.7808
vn 0.5986 -0.2314 -0.7669
vn 0.5341 -0.2698 -0.8012
vn 0.5352 -0.2646 -0.8022
vn -0.4162 0.4907 0.7655
vn -0.4938 0.5305 0.6890
vn -0.4872 0.4617 0.7413
vn -0.4602 0.5420 0.7031
vn -0.0000 -0.6851 0.7285
vn 0.1662 -0.4416 0.8817
vn 0.1831 -0.3667 0.9122
vn 0.1825 -0.3645 0.9132
vn 0.1918 -0.3196 0.9279
vn 0.4086 -0.4083 -0.8163
vn 0.4081 -0.4087 -0.8163
vn 0.4085 -0.4083 -0.8163
vn 0.4084 -0.4074 -0.8169
vn 0.4236 -0.3205 -0.8472
vn 0.2679 -0.5357 0.8008
vn 0.4474 -0.8944 0.0019
vn 0.4484 -0.8938 -0.0030
vn 0.4375 -0.8721 -0.2194
vn 0.4414 -0.8680 -0.2273
vn 0.4357 -0.8732 -0.2184
vn 0.1438 -0.9124 -0.3833
vn 0.1546 -0.7614 -0.6296
vn 0.2066 -0.7376 -0.6429
vn 0.2256 -0.6886 -0.6891
vn 0.2258 -0.6886 -0.6891
vn 0.3330 -0.6665 -0.6670
vn 0.3333 -0.6665 -0.6669
vn 0.2562 -0.6250 -0.7374
vn 0.2672 -0.6111 -0.7450
vn 0.3306 -0.5794 -0.7450
vn 0.2675 -0.5351 -0.8013
vn 0.2673 -0.5346 -0.8017
vn 0.2675 -0.5342 -0.8019
vn 0.3243 -0.4867 -0.8112
vn 0.2598 -0.3899 -0.8834
vn 0.2592 -0.3887 -0.8841
vn 0.2592 -0.3887 -0.8842
vn 0.3466 -0.3492 -0.8706
vn 0.3481 -0.3486 -0.8702
vn 0.4239 -0.3156 -0.8490
vn -0.3634 0.7569 0.5431
vn -0.0000 -0.0000 -1.0000
vn 0.0797 -0.8913 0.4464
vn 0.0594 -0.8106 0.5826
vn 0.1993 -0.4968 0.8447
vn 0.2664 -0.5336 0.8027
vn 0.3494 -0.3485 -0.8698
vn 0.3486 -0.3485 -0.8701
vn 0.3489 -0.3483 -0.8700
vn 0.3481 -0.3485 -0.8703
vn 0.3484 -0.3484 -0.8702
vn 0.3513 -0.3444 -0.8706
vn 0.1121 -0.9294 0.3517
vn 0.4464 -0.8948 0.0015
vn 0.1128 -0.9356 -0.3344
vn 0.2056 -0.6397 -0.7406
vn 0.2271 -0.5609 -0.7961
vn 0.2471 -0.5765 -0.7788
vn 0.2459 -0.5521 -0.7967
vn 0.2370 -0.5538 -0.7982
vn 0.2317 -0.5399 -0.8092
vn 0.2329 -0.5395 -0.8091
vn 0.2189 -0.5030 -0.8361
vn 0.2274 -0.4807 -0.8469
vn 0.2501 -0.4994 -0.8295
s 0
f 1//1 2//1 7//1
f 1//1 7//1 16//1
f 1//1 16//1 15//1
f 1//1 15//1 14//1
f 1//1 14//1 24//1
f 1//1 24//1 34//1
f 1//1 34//1 44//1
f 1//1 44//1 66//1
f 1//1 66//1 86//1
f 1//1 86//1 87//1
f 1//1 87//1 115//1
f 1//1 115//1 119//1
f 1//1 119//1 116//1
f 1//1 116//1 88//1
f 1//1 88//1 67//1
f 1//1 67//1 45//1
f 1//1 45//1 29//1
f 1//1 29//1 19//1
f 1//1 19//1 8//1
f 1//1 8//1 3//1
f 1//2 3//2 4//2
f 1//3 4//3 5//3
f 1//4 5//4 2//4
f 2//5 5//5 6//5
f 2//6 6//6 7//6
f 3//7 8//7 9//7
f 3//8 9//8 4//8
f 4//9 9//9 10//9
f 4//10 10//10 11//10
f 4//11 11//11 5//11
f 5//12 12//12 6//12
f 5//13 11//13 13//13
f 5//14 13//14 23//14
f 5//14 23//14 12//14
f 6//15 14//15 15//15
f 6//16 15//16 16//16
f 6//17 16//17 7//17
f 6//18 12//18 17//18
f 6//19 17//19 27//19
f 6//19 27//19 18//19
f 6//20 18//20 14//20
f 8//21 19//21 20//21
f 8//22 20//22 9//22
f 9//23 20//23 10//23
f 10//24 20//24 30//24
f 10//24 30//24 21//24
f 10//25 21//25 11//25
f 11//26 21//26 22//26
f 11//27 22//27 13//27
f 12//28 23//28 17//28
f 13//29 22//29 23//29
f 14//30 18//30 24//30
f 17//31 23//31 25//31
f 17//32 25//32 26//32
f 17//33 26//33 27//33
f 18//34 28//34 24//34
f 18//35 27//35 28//35
f 19//36 29//36 47//36
f 19//36 47//36 71//36
f 19//36 71//36 95//36
f 19//36 95//36 73//36
f 19//36 73//36 49//36
f 19//36 49//36 31//36
f 19//36 31//36 30//36
f 19//36 30//36 20//36
f 21//37 30//37 31//37
f 21//38 31//38 32//38
f 21//39 32//39 33//39
f 21//40 33//40 22//40
f 22//41 25//41 23//41
f 22//42 33//42 26//42
f 22//43 26//43 25//43
f 24//44 28//44 34//44
f 26//45 35//45 27//45
f 26//46 33//46 36//46
f 26//47 36//47 37//47
f 26//48 37//48 38//48
f 26//49 38//49 39//49
f 26//50 39//50 40//50
f 26//51 40//51 41//51
f 26//52 41//52 42//52
f 26//53 42//53 35//53
f 27//54 35//54 43//54
f 27//55 43//55 28//55
f 28//56 43//56 44//56
f 28//57 44//57 34//57
f 29//58 45//58 46//58
f 29//59 46//59 47//59
f 31//38 48//38 32//38
f 31//60 49//60 48//60
f 32//39 48//39 33//39
f 33//61 48//61 36//61
f 35//62 42//62 63//62
f 35//63 63//63 50//63
f 35//64 50//64 51//64
f 35//65 51//65 43//65
f 36//66 52//66 37//66
f 36//67 48//67 53//67
f 36//68 53//68 54//68
f 36//69 54//69 38//69
f 36//70 38//70 52//70
f 37//71 52//71 38//71
f 38//72 54//72 55//72
f 38//73 55//73 56//73
f 38//74 56//74 57//74
f 38//75 57//75 58//75
f 38//76 58//76 79//76
f 38//76 79//76 59//76
f 38//77 59//77 60//77
f 38//78 60//78 39//78
f 39//79 60//79 61//79
f 39//80 61//80 40//80
f 40//81 61//81 62//81
f 40//82 62//82 41//82
f 41//83 63//83 42//83
f 41//82 62//82 64//82
f 41//84 64//84 63//84
f 43//85 51//85 65//85
f 43//86 65//86 66//86
f 43//87 66//87 44//87
f 45//88 67//88 68//88
f 45//89 68//89 69//89
f 45//90 69//90 46//90
f 46//91 69//91 90//91
f 46//91 90//91 89//91
f 46//91 89//91 117//91
f 46//91 117//91 124//91
f 46//91 124//91 122//91
f 46//91 122//91 106//91
f 46//91 106//91 104//91
f 46//91 104//91 103//91
f 46//91 103//91 102//91
f 46//91 102//91 118//91
f 46//91 118//91 91//91
f 46//91 91//91 70//91
f 46//91 70//91 47//91
f 47//92 70//92 92//92
f 47//92 92//92 71//92
f 48//93 49//93 73//93
f 48//93 73//93 72//93
f 48//94 72//94 55//94
f 48//94 55//94 53//94
f 50//95 63//95 74//95
f 50//96 74//96 75//96
f 50//97 75//97 51//97
f 51//98 75//98 65//98
f 53//99 55//99 54//99
f 55//100 72//100 94//100
f 55//100 94//100 76//100
f 55//101 76//101 77//101
f 55//102 77//102 56//102
f 56//103 77//103 57//103
f 57//104 77//104 78//104
f 57//105 78//105 79//105
f 57//106 79//106 58//106
f 59//107 79//107 80//107
f 59//108 80//108 60//108
f 60//109 80//109 81//109
f 60//110 81//110 61//110
f 61//111 81//111 82//111
f 61//112 82//112 83//112
f 61//113 83//113 62//113
f 62//114 83//114 82//114
f 62//115 82//115 84//115
f 62//116 84//116 64//116
f 63//117 64//117 74//117
f 64//118 84//118 85//118
f 64//119 85//119 74//119
f 65//120 86//120 66//120
f 65//121 75//121 87//121
f 65//122 87//122 86//122
f 67//123 88//123 68//123
f 68//124 89//124 90//124
f 68//125 90//125 69//125
f 68//126 88//126 89//126
f 70//127 91//127 92//127
f 71//128 92//128 93//128
f 71//129 93//129 94//129
f 71//130 94//130 95//130
f 72//131 73//131 95//131
f 72//131 95//131 94//131
f 74//132 96//132 75//132
f 74//133 85//133 97//133
f 74//134 97//134 96//134
f 75//135 96//135 98//135
f 75//136 98//136 87//136
f 76//137 94//137 99//137
f 76//138 99//138 100//138
f 76//139 100//139 77//139
f 77//140 100//140 79//140
f 77//141 79//141 78//141
f 79//142 100//142 101//142
f 79//143 101//143 102//143
f 79//144 102//144 103//144
f 79//145 103//145 80//145
f 80//146 103//146 104//146
f 80//147 104//147 105//147
f 80//148 105//148 82//148
f 80//149 82//149 81//149
f 82//150 105//150 106//150
f 82//151 106//151 107//151
f 82//152 107//152 84//152
f 84//153 107//153 108//153
f 84//154 108//154 109//154
f 84//155 109//155 110//155
f 84//156 110//156 85//156
f 85//157 110//157 111//157
f 85//158 111//158 112//158
f 85//159 112//159 113//159
f 85//160 113//160 114//160
f 85//161 114//161 97//161
f 87//162 98//162 115//162
f 88//163 116//163 89//163
f 89//164 116//164 119//164
f 89//164 119//164 120//164
f 89//164 120//164 121//164
f 89//164 121//164 114//164
f 89//164 114//164 113//164
f 89//164 113//164 112//164
f 89//164 112//164 111//164
f 89//164 111//164 117//164
f 91//165 118//165 99//165
f 91//166 99//166 92//166
f 92//167 99//167 93//167
f 93//168 99//168 94//168
f 96//169 119//169 98//169
f 96//170 97//170 120//170
f 96//171 120//171 119//171
f 97//172 114//172 121//172
f 97//173 121//173 120//173
f 98//174 119//174 115//174
f 99//175 118//175 101//175
f 99//176 101//176 100//176
f 101//177 118//177 102//177
f 104//178 106//178 105//178
f 106//179 122//179 123//179
f 106//180 123//180 107//180
f 107//181 123//181 108//181
f 108//182 123//182 122//182
f 108//183 122//183 124//183
f 108//184 124//184 109//184
f 109//185 124//185 117//185
f 109//186 117//186 111//186
f 109//187 111//187 110//187
