# Blender 4.4.0
# www.blender.org
o convex_5
v 0.958089 -0.005483 0.166619
v 0.951109 -0.005483 0.180499
v 0.952854 -0.156227 0.177035
v 0.958089 -0.083356 0.166619
v 0.944188 -0.005483 0.138832
v 0.951109 -0.152745 0.180499
v 0.937208 -0.005483 0.187452
v 0.952854 -0.093752 0.156202
v 0.932031 -0.260336 0.177035
v 0.932031 -0.218702 0.156202
v 0.944188 -0.083356 0.138832
v 0.881719 -0.005483 0.076358
v 0.937208 -0.145831 0.187452
v 0.930286 -0.256854 0.180499
v 0.916385 -0.005483 0.187452
v 0.924237 -0.229147 0.145785
v 0.945060 -0.104148 0.145785
v 0.911208 -0.322811 0.177035
v 0.911208 -0.301969 0.156202
v 0.924237 -0.270732 0.166619
v 0.923365 -0.208306 0.138832
v 0.923365 -0.124990 0.118025
v 0.881719 -0.166672 0.076358
v 0.735900 -0.005483 -0.069425
v 0.916385 -0.249940 0.187452
v 0.909463 -0.319329 0.180499
v 0.902542 -0.005483 0.180499
v 0.753698 -0.506410 0.181046
v 0.763237 -0.506410 0.185812
v 0.770624 -0.499839 0.187452
v 0.902542 -0.291573 0.138832
v 0.902542 -0.229147 0.118025
v 0.888640 -0.361012 0.180499
v 0.846994 -0.444328 0.180499
v 0.890385 -0.364444 0.177035
v 0.867817 -0.409609 0.166619
v 0.869562 -0.406127 0.156202
v 0.903414 -0.333207 0.166619
v 0.860838 -0.249940 0.076358
v 0.840015 -0.249940 0.055524
v 0.819192 -0.249940 0.034717
v 0.819192 -0.166672 0.013909
v 0.756723 -0.104148 -0.048591
v 0.735900 -0.041673 -0.069425
v 0.717578 -0.005483 -0.078591
v 0.895562 -0.312414 0.187452
v 0.743927 -0.506410 0.175733
v 0.613463 -0.005483 -0.078591
v 0.363879 -0.506410 -0.078591
v 0.770624 -0.506410 0.187452
v 0.860838 -0.395731 0.138832
v 0.860838 -0.354048 0.118025
v 0.840015 -0.312414 0.076358
v 0.853916 -0.395731 0.187452
v 0.826171 -0.485961 0.180499
v 0.827858 -0.489443 0.177035
v 0.846994 -0.451242 0.166619
v 0.848739 -0.447761 0.156202
v 0.819192 -0.312414 0.055524
v 0.798369 -0.312414 0.034717
v 0.777546 -0.229147 -0.006924
v 0.715077 -0.166672 -0.069425
v 0.717578 -0.041673 -0.078591
v 0.515572 -0.506410 -0.078591
v 0.791447 -0.506410 0.187452
v 0.840015 -0.437364 0.138832
v 0.777546 -0.395731 0.055524
v 0.812270 -0.478998 0.187452
v 0.807791 -0.506410 0.183364
v 0.811165 -0.506410 0.181957
v 0.815178 -0.506410 0.166619
v 0.820064 -0.499839 0.166619
v 0.811921 -0.506410 0.160082
v 0.799532 -0.506410 0.139249
v 0.794704 -0.506410 0.131488
v 0.756723 -0.395731 0.034717
v 0.756723 -0.354048 0.013909
v 0.715077 -0.333207 -0.027758
v 0.756723 -0.291573 -0.006924
v 0.694254 -0.312414 -0.048591
v 0.694254 -0.229147 -0.069425
v 0.656563 -0.291573 -0.078591
v 0.677328 -0.229147 -0.078591
v 0.696755 -0.166672 -0.078591
v 0.515979 -0.506410 -0.078435
v 0.522145 -0.499839 -0.078591
v 0.798369 -0.478998 0.118025
v 0.756723 -0.478998 0.076358
v 0.756723 -0.437364 0.055524
v 0.773881 -0.506410 0.110655
v 0.735900 -0.437364 0.034717
v 0.694254 -0.416523 -0.006924
v 0.671686 -0.447761 -0.010414
v 0.692509 -0.364444 -0.031221
v 0.650921 -0.385286 -0.052055
v 0.631785 -0.374889 -0.069425
v 0.652666 -0.333207 -0.069425
v 0.673431 -0.291573 -0.069425
v 0.647664 -0.312414 -0.078591
v 0.542968 -0.478998 -0.078591
v 0.543898 -0.478066 -0.078591
v 0.546748 -0.489443 -0.072888
v 0.524995 -0.506410 -0.074815
v 0.739971 -0.506410 0.076748
v 0.713332 -0.468602 0.031253
v 0.630098 -0.468602 -0.031221
v 0.609275 -0.406127 -0.072888
v 0.606658 -0.395731 -0.078096
v 0.627248 -0.353067 -0.078591
v 0.544189 -0.478998 -0.078096
v 0.605437 -0.395731 -0.078591
v 0.566641 -0.506410 -0.054008
v 0.733166 -0.506410 0.070941
v 0.692044 -0.506410 0.036904
v 0.694254 -0.499839 0.034717
v 0.686634 -0.506410 0.032555
v 0.671686 -0.489443 0.010420
v 0.629110 -0.506410 -0.012341
vn 0.8934 -0.0000 0.4493
vn 0.8935 -0.0000 0.4491
vn 0.8943 -0.0000 -0.4474
vn -0.0000 1.0000 -0.0000
vn 0.8931 -0.0000 0.4499
vn 0.4473 -0.0000 0.8944
vn 0.9293 -0.1168 -0.3504
vn 0.8067 -0.1613 0.5685
vn 0.9130 -0.1826 -0.3649
vn 0.8847 -0.1474 -0.4422
vn 0.8943 -0.0020 -0.4474
vn 0.7071 -0.0000 -0.7071
vn 0.4127 -0.0825 0.9071
vn -0.0000 -0.0000 1.0000
vn 0.8558 -0.1426 -0.4973
vn 0.8555 -0.1425 -0.4978
vn 0.8527 -0.1332 -0.5051
vn 0.7423 -0.2474 0.6227
vn 0.9045 -0.3015 -0.3016
vn 0.8735 -0.2194 -0.4346
vn 0.8733 -0.2182 -0.4356
vn 0.8736 -0.2178 -0.4352
vn 0.8402 -0.1400 -0.5239
vn 0.8397 -0.1399 -0.5247
vn 0.8239 -0.1373 -0.5498
vn 0.7077 -0.0009 -0.7065
vn 0.7070 -0.0000 -0.7072
vn 0.3909 -0.1303 0.9112
vn -0.4448 0.1331 0.8857
vn -0.4430 0.1325 0.8867
vn -0.2871 0.0847 0.9541
vn 0.8729 -0.2186 -0.4363
vn 0.8127 -0.2224 -0.5386
vn 0.7718 -0.2011 -0.6032
vn 0.7765 -0.1700 -0.6068
vn 0.6650 -0.3322 0.6689
vn 0.6659 -0.3329 0.6676
vn 0.6690 -0.3346 0.6637
vn 0.8944 -0.4473 0.0019
vn 0.8944 -0.4473 0.0018
vn 0.8944 -0.4472 0.0004
vn 0.8825 -0.3678 -0.2932
vn 0.8837 -0.3309 -0.3310
vn 0.8565 -0.3425 -0.3861
vn 0.7659 -0.3062 -0.5654
vn 0.7714 -0.1545 -0.6172
vn 0.7717 -0.1541 -0.6171
vn 0.7393 -0.1854 -0.6474
vn 0.6964 -0.1746 -0.6961
vn 0.6960 -0.1743 -0.6965
vn 0.6959 -0.1741 -0.6967
vn 0.7067 -0.0012 -0.7076
vn 0.7069 -0.0002 -0.7073
vn 0.4474 -0.0000 -0.8943
vn 0.3656 -0.1827 0.9127
vn -0.4729 0.1415 0.8697
vn -0.6333 0.3156 0.7066
vn -0.5484 0.1659 0.8196
vn -0.0000 -1.0000 0.0001
vn -0.0000 -1.0000 -0.0000
vn -0.2167 -0.0000 0.9762
vn 0.7646 -0.3061 -0.5672
vn 0.7446 -0.2981 -0.5972
vn 0.7240 -0.2722 -0.6338
vn 0.7250 -0.2416 -0.6450
vn 0.7416 -0.2121 -0.6364
vn 0.3654 -0.1826 0.9128
vn 0.3651 -0.1826 0.9129
vn 0.8943 -0.4474 0.0023
vn 0.6697 -0.3350 0.6628
vn 0.8944 -0.4473 0.0003
vn 0.7269 -0.3635 -0.5827
vn 0.7269 -0.3636 -0.5827
vn 0.6884 -0.2295 -0.6881
vn 0.6880 -0.2293 -0.6885
vn 0.6360 -0.2120 -0.7420
vn 0.6472 -0.1848 -0.7396
vn 0.6174 -0.1543 -0.7714
vn 0.6174 -0.1542 -0.7714
vn 0.5526 -0.0921 -0.8284
vn 0.4462 -0.0743 -0.8918
vn -0.0000 -0.0000 -1.0000
vn 0.6667 -0.3335 -0.6666
vn 0.6667 -0.3333 -0.6666
vn 0.6669 -0.3331 -0.6665
vn 0.6679 -0.3324 -0.6659
vn 0.3590 -0.1948 0.9128
vn 0.3762 -0.2117 0.9020
vn 0.6051 -0.3947 0.6914
vn 0.8941 -0.4479 0.0001
vn 0.7268 -0.6599 0.1902
vn 0.8025 -0.5967 -0.0049
vn 0.8549 -0.4991 -0.1416
vn 0.7505 -0.4997 -0.4325
vn 0.7456 -0.4974 -0.4434
vn 0.7409 -0.4884 -0.4609
vn 0.7020 -0.3978 -0.5907
vn 0.6665 -0.3331 -0.6670
vn 0.6663 -0.3330 -0.6672
vn 0.6201 -0.2484 -0.7441
vn 0.6201 -0.2479 -0.7443
vn 0.6359 -0.2121 -0.7421
vn 0.5886 -0.1963 -0.7842
vn 0.5885 -0.1962 -0.7843
vn 0.4712 -0.1571 -0.8679
vn 0.4695 -0.1562 -0.8690
vn 0.4432 -0.1378 -0.8858
vn 0.3375 -0.3376 -0.8787
vn 0.2386 -0.1813 0.9540
vn 0.6930 -0.3903 -0.6061
vn 0.6667 -0.3339 -0.6664
vn 0.6664 -0.3333 -0.6669
vn 0.7451 -0.5540 -0.3712
vn 0.6470 -0.4041 -0.6466
vn 0.6661 -0.3331 -0.6674
vn 0.5796 -0.3308 -0.7447
vn 0.5792 -0.3310 -0.7449
vn 0.5737 -0.3308 -0.7493
vn 0.5726 -0.3305 -0.7503
vn 0.5448 -0.3071 -0.7803
vn 0.5438 -0.3052 -0.7818
vn 0.5349 -0.2680 -0.8013
vn 0.5351 -0.2672 -0.8015
vn 0.5350 -0.2668 -0.8016
vn 0.5884 -0.1963 -0.7844
vn 0.4715 -0.1573 -0.8677
vn 0.4679 -0.1998 -0.8609
vn 0.3424 -0.3421 -0.8750
vn 0.3685 -0.3668 -0.8542
vn 0.3490 -0.3486 -0.8698
vn 0.3492 -0.3489 -0.8697
vn 0.6467 -0.4044 -0.6467
vn 0.6181 -0.3875 -0.6839
vn 0.6236 -0.3744 -0.6862
vn 0.6663 -0.3337 -0.6668
vn 0.5775 -0.3347 -0.7446
vn 0.5776 -0.3341 -0.7448
vn 0.5496 -0.3291 -0.7679
vn 0.5575 -0.3709 -0.7427
vn 0.5493 -0.3293 -0.7680
vn 0.5491 -0.3293 -0.7682
vn 0.5115 -0.2785 -0.8129
vn 0.4933 -0.2477 -0.8339
vn 0.4951 -0.2480 -0.8327
vn 0.4962 -0.2475 -0.8322
vn 0.4089 -0.3247 -0.8529
vn 0.3616 -0.2703 -0.8923
vn 0.4238 -0.3179 -0.8481
vn 0.4043 -0.4264 -0.8092
vn 0.4245 -0.3186 -0.8475
vn 0.4688 -0.3519 -0.8102
vn 0.5902 -0.4164 -0.6916
vn 0.5761 -0.4284 -0.6961
vn 0.5691 -0.4256 -0.7035
vn 0.5663 -0.4242 -0.7067
vn 0.5659 -0.4240 -0.7071
vn 0.5574 -0.3715 -0.7426
vn 0.5098 -0.3950 -0.7643
vn 0.4979 -0.3602 -0.7889
vn 0.5497 -0.3847 -0.7415
vn 0.4240 -0.3181 -0.8480
vn 0.3688 -0.1886 -0.9102
vn 0.5670 -0.4255 -0.7053
vn 0.5533 -0.4374 -0.7089
s 0
f 1//1 2//1 3//1
f 1//2 3//2 4//2
f 1//3 4//3 11//3
f 1//3 11//3 5//3
f 1//4 5//4 12//4
f 1//4 12//4 24//4
f 1//4 24//4 45//4
f 1//4 45//4 48//4
f 1//4 48//4 27//4
f 1//4 27//4 15//4
f 1//4 15//4 7//4
f 1//4 7//4 2//4
f 2//5 6//5 3//5
f 2//6 7//6 13//6
f 2//6 13//6 6//6
f 3//7 8//7 4//7
f 3//8 6//8 14//8
f 3//8 14//8 9//8
f 3//9 9//9 10//9
f 3//10 10//10 8//10
f 4//11 8//11 11//11
f 5//12 11//12 23//12
f 5//12 23//12 12//12
f 6//13 13//13 25//13
f 6//13 25//13 14//13
f 7//14 15//14 30//14
f 7//14 30//14 50//14
f 7//14 50//14 65//14
f 7//14 65//14 68//14
f 7//14 68//14 54//14
f 7//14 54//14 46//14
f 7//14 46//14 25//14
f 7//14 25//14 13//14
f 8//15 10//15 16//15
f 8//16 16//16 17//16
f 8//17 17//17 11//17
f 9//18 14//18 26//18
f 9//18 26//18 18//18
f 9//19 18//19 19//19
f 9//20 19//20 20//20
f 9//21 20//21 16//21
f 9//22 16//22 10//22
f 11//23 17//23 16//23
f 11//24 16//24 21//24
f 11//25 21//25 22//25
f 11//26 22//26 23//26
f 12//27 23//27 44//27
f 12//27 44//27 24//27
f 14//28 25//28 46//28
f 14//28 46//28 26//28
f 15//29 27//29 28//29
f 15//30 28//30 29//30
f 15//31 29//31 30//31
f 16//32 20//32 19//32
f 16//33 19//33 31//33
f 16//34 31//34 32//34
f 16//35 32//35 21//35
f 18//36 26//36 33//36
f 18//37 33//37 34//37
f 18//38 34//38 55//38
f 18//38 55//38 35//38
f 18//39 35//39 57//39
f 18//40 57//40 36//40
f 18//41 36//41 37//41
f 18//42 37//42 38//42
f 18//43 38//43 19//43
f 19//44 38//44 37//44
f 19//45 37//45 31//45
f 21//46 32//46 23//46
f 21//47 23//47 22//47
f 23//48 32//48 39//48
f 23//49 39//49 40//49
f 23//50 40//50 41//50
f 23//51 41//51 42//51
f 23//52 42//52 43//52
f 23//53 43//53 44//53
f 24//54 44//54 63//54
f 24//54 63//54 45//54
f 26//55 46//55 33//55
f 27//56 47//56 28//56
f 27//57 48//57 49//57
f 27//58 49//58 47//58
f 28//59 47//59 49//59
f 28//60 49//60 64//60
f 28//60 64//60 85//60
f 28//60 85//60 103//60
f 28//60 103//60 112//60
f 28//60 112//60 118//60
f 28//60 118//60 116//60
f 28//60 116//60 114//60
f 28//60 114//60 113//60
f 28//60 113//60 104//60
f 28//60 104//60 90//60
f 28//60 90//60 75//60
f 28//60 75//60 74//60
f 28//60 74//60 73//60
f 28//60 73//60 71//60
f 28//60 71//60 70//60
f 28//60 70//60 69//60
f 28//60 69//60 65//60
f 28//60 65//60 50//60
f 28//60 50//60 29//60
f 29//61 50//61 30//61
f 31//62 37//62 51//62
f 31//63 51//63 52//63
f 31//64 52//64 53//64
f 31//65 53//65 39//65
f 31//66 39//66 32//66
f 33//67 46//67 54//67
f 33//67 54//67 34//67
f 34//68 54//68 68//68
f 34//68 68//68 55//68
f 35//69 56//69 57//69
f 35//70 55//70 56//70
f 36//71 57//71 58//71
f 36//71 58//71 37//71
f 37//72 58//72 66//72
f 37//73 66//73 51//73
f 39//74 53//74 59//74
f 39//74 59//74 40//74
f 40//75 59//75 60//75
f 40//75 60//75 41//75
f 41//76 60//76 61//76
f 41//77 61//77 42//77
f 42//78 61//78 62//78
f 42//79 62//79 43//79
f 43//80 62//80 44//80
f 44//81 62//81 84//81
f 44//81 84//81 63//81
f 45//82 63//82 84//82
f 45//82 84//82 83//82
f 45//82 83//82 82//82
f 45//82 82//82 99//82
f 45//82 99//82 109//82
f 45//82 109//82 111//82
f 45//82 111//82 101//82
f 45//82 101//82 100//82
f 45//82 100//82 86//82
f 45//82 86//82 64//82
f 45//82 64//82 49//82
f 45//82 49//82 48//82
f 51//83 66//83 89//83
f 51//83 89//83 67//83
f 51//84 67//84 59//84
f 51//85 59//85 53//85
f 51//86 53//86 52//86
f 55//87 68//87 69//87
f 55//88 69//88 70//88
f 55//89 70//89 56//89
f 56//90 58//90 57//90
f 56//91 70//91 71//91
f 56//92 71//92 72//92
f 56//93 72//93 58//93
f 58//94 72//94 73//94
f 58//95 73//95 74//95
f 58//96 74//96 75//96
f 58//97 75//97 66//97
f 59//98 67//98 76//98
f 59//98 76//98 60//98
f 60//99 76//99 77//99
f 60//100 77//100 78//100
f 60//101 78//101 79//101
f 60//102 79//102 61//102
f 61//103 79//103 78//103
f 61//103 78//103 80//103
f 61//104 80//104 81//104
f 61//104 81//104 62//104
f 62//105 81//105 82//105
f 62//106 82//106 83//106
f 62//107 83//107 84//107
f 64//108 86//108 85//108
f 65//109 69//109 68//109
f 66//110 75//110 87//110
f 66//111 87//111 88//111
f 66//83 88//83 89//83
f 67//112 89//112 91//112
f 67//112 91//112 76//112
f 71//113 73//113 72//113
f 75//114 90//114 88//114
f 75//114 88//114 87//114
f 76//115 91//115 77//115
f 77//116 91//116 78//116
f 78//117 91//117 92//117
f 78//118 92//118 93//118
f 78//119 93//119 94//119
f 78//120 94//120 95//120
f 78//121 95//121 107//121
f 78//121 107//121 96//121
f 78//122 96//122 97//122
f 78//123 97//123 80//123
f 80//124 97//124 98//124
f 80//125 98//125 81//125
f 81//126 98//126 82//126
f 82//127 98//127 99//127
f 85//128 86//128 100//128
f 85//129 100//129 101//129
f 85//130 101//130 102//130
f 85//131 102//131 103//131
f 88//132 90//132 104//132
f 88//133 104//133 105//133
f 88//134 105//134 91//134
f 88//135 91//135 89//135
f 91//136 105//136 93//136
f 91//137 93//137 92//137
f 93//138 95//138 94//138
f 93//139 105//139 106//139
f 93//140 106//140 95//140
f 95//141 106//141 107//141
f 96//142 107//142 108//142
f 96//143 108//143 109//143
f 96//143 109//143 99//143
f 96//144 99//144 97//144
f 97//145 99//145 98//145
f 101//146 110//146 102//146
f 101//147 111//147 108//147
f 101//148 108//148 110//148
f 102//149 112//149 103//149
f 102//150 110//150 107//150
f 102//151 107//151 112//151
f 104//152 113//152 105//152
f 105//153 113//153 114//153
f 105//154 114//154 115//154
f 105//155 115//155 116//155
f 105//156 116//156 117//156
f 105//157 117//157 106//157
f 106//158 118//158 112//158
f 106//159 112//159 107//159
f 106//160 117//160 118//160
f 107//161 110//161 108//161
f 108//162 111//162 109//162
f 114//163 116//163 115//163
f 116//164 118//164 117//164
