# Blender 4.4.0
# www.blender.org
o convex_4
v 0.817727 0.231874 0.077338
v 0.817727 -0.071112 0.077338
v 0.817727 0.231874 -0.090177
v -0.711115 0.231874 0.077338
v 0.813984 -0.078808 0.077338
v 0.817427 -0.072010 -0.090243
v 0.817727 -0.071112 -0.090243
v 0.817727 0.231137 -0.090243
v 0.817128 0.231874 -0.090243
v -0.711265 0.231874 0.071367
v -0.711115 -0.071112 0.077338
v 0.811888 -0.082945 0.077338
v 0.811888 -0.082945 -0.090243
v -0.711115 0.231874 -0.090243
v -0.711415 0.231874 0.052962
v -0.710517 -0.072459 -0.090243
v -0.705277 -0.082657 0.077338
v -0.711115 -0.071112 -0.090243
v 0.800061 -0.088878 0.077338
v 0.800061 -0.088878 -0.090243
v -0.711415 0.231874 -0.052596
v -0.705127 -0.082945 -0.090243
v -0.705127 -0.082945 0.077338
v 0.572351 -0.095741 0.077338
v 0.574298 -0.095741 0.071104
v 0.574298 -0.095741 -0.071116
v 0.566064 -0.095741 -0.087831
v 0.564866 -0.095741 -0.089964
v 0.564566 -0.095741 -0.090243
v -0.694647 -0.088205 -0.090243
v -0.704977 -0.083106 0.077338
v 0.051509 -0.095741 0.077338
v 0.055252 -0.095741 -0.090243
v -0.693300 -0.088878 -0.090243
v -0.693300 -0.088878 0.077338
v 0.047916 -0.095741 0.065642
v 0.047916 -0.095741 -0.076578
vn 1.0000 -0.0000 -0.0000
vn 1.0000 -0.0003 -0.0000
vn -0.0000 1.0000 -0.0000
vn -0.0000 -0.0000 1.0000
vn 0.8993 -0.4373 0.0007
vn 0.9485 -0.3169 -0.0000
vn 0.1084 0.0881 -0.9902
vn -0.9997 -0.0000 0.0251
vn 0.8920 -0.4519 -0.0000
vn 0.8921 -0.4519 -0.0000
vn -0.0000 -0.0000 -1.0000
vn -1.0000 -0.0003 0.0081
vn -0.8924 -0.4513 0.0004
vn -1.0000 -0.0010 -0.0000
vn -0.9140 -0.4058 -0.0000
vn 0.4484 -0.8938 -0.0000
vn -1.0000 -0.0000 -0.0080
vn -0.8894 -0.4572 -0.0000
vn -0.8874 -0.4610 -0.0000
vn 0.0301 -0.9995 0.0094
vn 0.0304 -0.9995 -0.0000
vn 0.0292 -0.9995 -0.0144
vn 0.0291 -0.9994 -0.0164
vn 0.0291 -0.9991 -0.0313
vn -0.4485 -0.8938 -0.0005
vn -0.7304 -0.6830 -0.0000
vn -0.0000 -1.0000 -0.0000
vn -0.4472 -0.8944 -0.0004
vn -0.4431 -0.8964 -0.0000
vn -0.0092 -1.0000 0.0028
vn -0.0092 -0.9999 -0.0049
vn -0.0093 -1.0000 -0.0000
s 0
f 1//1 2//1 7//1
f 1//1 7//1 8//1
f 1//2 8//2 3//2
f 1//3 3//3 9//3
f 1//3 9//3 14//3
f 1//3 14//3 21//3
f 1//3 21//3 15//3
f 1//3 15//3 10//3
f 1//3 10//3 4//3
f 1//4 4//4 11//4
f 1//4 11//4 17//4
f 1//4 17//4 23//4
f 1//4 23//4 31//4
f 1//4 31//4 35//4
f 1//4 35//4 32//4
f 1//4 32//4 24//4
f 1//4 24//4 19//4
f 1//4 19//4 12//4
f 1//4 12//4 5//4
f 1//4 5//4 2//4
f 2//5 5//5 6//5
f 2//6 6//6 7//6
f 3//7 8//7 9//7
f 4//8 10//8 11//8
f 5//9 12//9 13//9
f 5//10 13//10 6//10
f 6//11 13//11 20//11
f 6//11 20//11 29//11
f 6//11 29//11 33//11
f 6//11 33//11 34//11
f 6//11 34//11 30//11
f 6//11 30//11 22//11
f 6//11 22//11 16//11
f 6//11 16//11 18//11
f 6//11 18//11 14//11
f 6//11 14//11 9//11
f 6//11 9//11 8//11
f 6//11 8//11 7//11
f 10//12 15//12 11//12
f 11//13 16//13 17//13
f 11//14 15//14 21//14
f 11//14 21//14 18//14
f 11//15 18//15 16//15
f 12//16 19//16 20//16
f 12//16 20//16 13//16
f 14//17 18//17 21//17
f 16//18 22//18 17//18
f 17//19 22//19 23//19
f 19//20 24//20 25//20
f 19//21 25//21 26//21
f 19//21 26//21 20//21
f 20//22 26//22 27//22
f 20//23 27//23 28//23
f 20//24 28//24 29//24
f 22//25 30//25 31//25
f 22//26 31//26 23//26
f 24//27 32//27 36//27
f 24//27 36//27 37//27
f 24//27 37//27 33//27
f 24//27 33//27 29//27
f 24//27 29//27 28//27
f 24//27 28//27 27//27
f 24//27 27//27 26//27
f 24//27 26//27 25//27
f 30//28 34//28 31//28
f 31//29 34//29 35//29
f 32//30 35//30 36//30
f 33//31 37//31 34//31
f 34//32 37//32 36//32
f 34//32 36//32 35//32
