# Blender 4.4.0
# www.blender.org
o convex_3
v -0.711078 0.231874 -0.090243
v -0.711559 0.231874 -0.052596
v -0.799943 0.248926 -0.000006
v -0.797061 0.251894 -0.014802
v -0.805868 0.260783 -0.023693
v -0.788095 0.260783 -0.041475
v -0.711078 0.320029 -0.090243
v 0.817076 0.231874 -0.090243
v -0.711559 0.231874 0.052962
v -0.799943 0.248926 0.035557
v -0.811792 0.254849 0.005916
v -0.808910 0.257816 -0.008880
v -0.817876 0.266705 -0.000006
v -0.805868 0.278562 -0.023693
v -0.788095 0.278562 -0.041475
v -0.705634 0.330989 -0.090243
v -0.776246 0.290406 -0.047413
v 0.817876 0.247582 -0.090243
v 0.817876 0.231874 -0.090177
v -0.711239 0.231874 0.071367
v -0.799943 0.253371 0.055553
v -0.811792 0.254849 0.041479
v -0.711078 0.231874 0.077338
v -0.817876 0.266705 0.035557
v -0.817876 0.284484 -0.000006
v -0.811792 0.290406 -0.011849
v -0.705154 0.331885 -0.090243
v 0.817876 0.320029 -0.090243
v 0.817876 0.231874 0.077338
v -0.791137 0.257816 0.066659
v -0.805868 0.266705 0.059261
v -0.808910 0.257816 0.048894
v -0.716843 0.266705 0.077338
v -0.782170 0.266705 0.071104
v -0.813393 0.293373 0.044448
v -0.817876 0.284484 0.035557
v -0.811792 0.296328 -0.000006
v -0.808910 0.297806 -0.008880
v -0.694266 0.337360 -0.090243
v 0.811792 0.331885 -0.090243
v 0.817876 0.320029 0.077338
v -0.782170 0.284484 0.071104
v -0.805868 0.284484 0.059261
v -0.716843 0.284920 0.077338
v -0.811792 0.296328 0.035557
v -0.802185 0.297806 0.053339
v -0.799943 0.302250 0.035557
v -0.799943 0.302250 -0.000006
v -0.693305 0.337808 -0.090243
v 0.806188 0.334707 0.077338
v 0.811792 0.331885 0.077338
v 0.798662 0.338486 -0.090243
v -0.788095 0.296328 0.065182
v -0.795620 0.293373 0.062213
v -0.715402 0.308475 0.077338
v -0.711078 0.320029 0.077338
v -0.705154 0.331885 0.077338
v -0.693305 0.337808 0.077338
v -0.302140 0.355586 -0.090243
v 0.787614 0.344033 0.077338
v 0.780889 0.347375 -0.090243
v -0.302140 0.355586 0.077338
v 0.764397 0.355586 -0.090243
v 0.767119 0.354254 -0.090243
v 0.770642 0.352486 0.077338
v 0.764397 0.355586 0.077338
vn -0.1908 -0.9816 -0.0024
vn -0.4274 -0.8667 -0.2571
vn -0.4814 -0.8106 -0.3336
vn -0.5817 -0.5689 -0.5814
vn -0.5350 -0.0000 -0.8449
vn -0.0000 -0.0000 -1.0000
vn -0.0000 -1.0000 0.0006
vn -0.0000 -1.0000 -0.0000
vn -0.1894 -0.9819 -0.0000
vn -0.4471 -0.8945 -0.0000
vn -0.5338 -0.8030 -0.2650
vn -0.5351 -0.8004 -0.2702
vn -0.7997 -0.5355 -0.2715
vn -0.8919 -0.0000 -0.4522
vn -0.7073 -0.0000 -0.7069
vn -0.6035 0.2195 -0.7665
vn -0.6161 0.3060 -0.7258
vn 0.0817 -0.0042 -0.9966
vn -0.1901 -0.9818 0.0033
vn -0.3548 -0.9127 0.2029
vn -0.1908 -0.9816 0.0051
vn -0.2779 -0.9377 0.2084
vn -0.8897 -0.4566 -0.0000
vn -0.7982 -0.5415 -0.2640
vn -1.0000 -0.0000 -0.0000
vn -0.8911 0.0080 -0.4537
vn -0.6669 0.3330 -0.6666
vn -0.6215 0.3329 -0.7091
vn -0.6371 0.4344 -0.6368
vn 1.0000 -0.0000 -0.0000
vn -0.6027 -0.4509 0.6584
vn -0.6650 -0.4593 0.5889
vn -0.6504 -0.5835 0.4863
vn -0.3220 -0.7629 0.5607
vn -0.8718 -0.2318 0.4316
vn -0.0950 -0.0157 0.9954
vn -0.2099 -0.2597 0.9426
vn -0.0000 -0.0000 1.0000
vn -0.8709 -0.2165 0.4412
vn -0.8921 -0.0007 0.4519
vn -0.8929 -0.0000 0.4502
vn -0.8929 0.4503 -0.0000
vn -0.8895 0.4569 -0.0017
vn -0.8700 0.4469 -0.2081
vn -0.8715 0.4323 -0.2315
vn -0.6322 0.4878 -0.6020
vn -0.4406 0.8763 -0.1949
vn 0.8897 0.4565 -0.0000
vn 0.8897 0.4566 -0.0000
vn -0.4442 -0.0000 0.8959
vn -0.4470 0.0012 0.8945
vn -0.4488 -0.0000 0.8936
vn -0.8916 -0.0000 0.4529
vn -0.0950 -0.0000 0.9955
vn -0.8792 0.4764 -0.0000
vn -0.6574 0.4503 0.6042
vn -0.4901 0.8498 0.1942
vn -0.4563 0.8898 -0.0000
vn -0.4471 0.8945 0.0008
vn -0.4441 0.8960 -0.0000
vn -0.3767 0.9228 -0.0815
vn -0.4176 0.8957 -0.1530
vn 0.4498 0.8932 -0.0000
vn 0.4492 0.8934 -0.0000
vn -0.4318 0.2212 0.8744
vn -0.4368 0.2132 0.8739
vn -0.0950 0.0058 0.9955
vn -0.1072 0.0401 0.9934
vn -0.1159 0.0579 0.9916
vn -0.2700 0.3192 0.9084
vn -0.5894 0.4586 0.6651
vn -0.4409 0.8823 0.1649
vn -0.4859 0.5834 0.6508
vn -0.3944 0.7285 0.5601
vn -0.3938 0.7878 0.4735
vn -0.3740 0.9098 0.1802
vn -0.3163 0.9487 -0.0000
vn -0.0454 0.9990 -0.0000
vn 0.4487 0.8937 -0.0000
vn 0.4473 0.8944 -0.0001
vn -0.0000 1.0000 -0.0000
vn 0.4469 0.8946 -0.0001
vn 0.4458 0.8951 0.0001
vn 0.4395 0.8982 -0.0000
vn 0.4446 0.8957 0.0001
s 0
f 1//1 2//1 3//1
f 1//2 3//2 4//2
f 1//3 4//3 5//3
f 1//4 5//4 6//4
f 1//5 6//5 15//5
f 1//5 15//5 7//5
f 1//6 7//6 16//6
f 1//6 16//6 27//6
f 1//6 27//6 39//6
f 1//6 39//6 49//6
f 1//6 49//6 59//6
f 1//6 59//6 63//6
f 1//6 63//6 64//6
f 1//6 64//6 61//6
f 1//6 61//6 52//6
f 1//6 52//6 40//6
f 1//6 40//6 28//6
f 1//6 28//6 18//6
f 1//6 18//6 8//6
f 1//7 8//7 19//7
f 1//8 19//8 29//8
f 1//8 29//8 23//8
f 1//8 23//8 20//8
f 1//8 20//8 9//8
f 1//8 9//8 2//8
f 2//9 9//9 10//9
f 2//9 10//9 3//9
f 3//10 10//10 22//10
f 3//10 22//10 11//10
f 3//11 11//11 12//11
f 3//11 12//11 4//11
f 4//12 12//12 5//12
f 5//13 12//13 13//13
f 5//14 13//14 25//14
f 5//14 25//14 14//14
f 5//15 14//15 15//15
f 5//15 15//15 6//15
f 7//16 15//16 17//16
f 7//17 17//17 16//17
f 8//18 18//18 19//18
f 9//19 20//19 10//19
f 10//20 21//20 22//20
f 10//21 20//21 23//21
f 10//22 23//22 21//22
f 11//23 22//23 24//23
f 11//23 24//23 13//23
f 11//24 13//24 12//24
f 13//25 24//25 36//25
f 13//25 36//25 25//25
f 14//26 25//26 26//26
f 14//27 26//27 17//27
f 14//27 17//27 15//27
f 16//28 17//28 27//28
f 17//29 26//29 27//29
f 18//30 28//30 41//30
f 18//30 41//30 29//30
f 18//30 29//30 19//30
f 21//31 30//31 31//31
f 21//32 31//32 32//32
f 21//33 32//33 22//33
f 21//34 23//34 30//34
f 22//35 32//35 24//35
f 23//36 33//36 34//36
f 23//37 34//37 30//37
f 23//38 29//38 41//38
f 23//38 41//38 51//38
f 23//38 51//38 50//38
f 23//38 50//38 60//38
f 23//38 60//38 65//38
f 23//38 65//38 66//38
f 23//38 66//38 62//38
f 23//38 62//38 58//38
f 23//38 58//38 57//38
f 23//38 57//38 56//38
f 23//38 56//38 55//38
f 23//38 55//38 44//38
f 23//38 44//38 33//38
f 24//39 32//39 31//39
f 24//40 31//40 35//40
f 24//41 35//41 36//41
f 25//42 36//42 35//42
f 25//43 35//43 37//43
f 25//44 37//44 38//44
f 25//45 38//45 26//45
f 26//46 38//46 27//46
f 27//47 38//47 39//47
f 28//48 40//48 51//48
f 28//49 51//49 41//49
f 30//50 34//50 42//50
f 30//51 42//51 43//51
f 30//52 43//52 31//52
f 31//53 43//53 35//53
f 33//54 44//54 42//54
f 33//54 42//54 34//54
f 35//55 45//55 37//55
f 35//56 43//56 46//56
f 35//57 46//57 45//57
f 37//58 45//58 38//58
f 38//59 45//59 47//59
f 38//60 47//60 48//60
f 38//61 48//61 49//61
f 38//62 49//62 39//62
f 40//63 50//63 51//63
f 40//64 52//64 50//64
f 42//65 53//65 54//65
f 42//66 54//66 43//66
f 42//67 44//67 55//67
f 42//68 55//68 56//68
f 42//69 56//69 57//69
f 42//70 57//70 53//70
f 43//71 54//71 46//71
f 45//72 46//72 47//72
f 46//73 54//73 53//73
f 46//74 53//74 57//74
f 46//75 57//75 58//75
f 46//76 58//76 47//76
f 47//77 58//77 49//77
f 47//77 49//77 48//77
f 49//78 58//78 62//78
f 49//78 62//78 59//78
f 50//79 52//79 60//79
f 52//80 61//80 60//80
f 59//81 62//81 66//81
f 59//81 66//81 63//81
f 60//82 61//82 64//82
f 60//83 64//83 65//83
f 63//84 66//84 64//84
f 64//85 66//85 65//85
