# Blender 4.4.0
# www.blender.org
o convex_15
v 0.470891 -0.365979 0.138551
v 0.470891 -0.532977 0.138551
v 0.470891 -0.353240 0.138528
v 0.470745 -0.353240 0.138551
v 0.413981 -0.532977 0.138551
v 0.470891 -0.532977 0.117714
v 0.470891 -0.353240 0.134468
v 0.437256 -0.353240 0.138551
v 0.422431 -0.466871 0.138551
v 0.283223 -0.532977 -0.089356
v 0.470891 -0.369991 0.117714
v 0.454064 -0.532977 0.067252
v 0.470873 -0.353240 0.117669
v 0.330011 -0.353240 -0.067315
v 0.309731 -0.369991 -0.089356
v 0.358944 -0.532977 -0.089356
v 0.454064 -0.369991 0.067252
v 0.420429 -0.532977 -0.016808
v 0.454046 -0.353240 0.067229
v 0.320238 -0.353240 -0.089356
v 0.358944 -0.353240 -0.089356
v 0.375606 -0.532977 -0.072870
v 0.420429 -0.369991 -0.016808
v 0.420410 -0.353240 -0.016852
v 0.416553 -0.532977 -0.024571
v 0.375569 -0.353240 -0.072892
v 0.375606 -0.369991 -0.072870
v 0.409223 -0.532977 -0.039228
v 0.414826 -0.532977 -0.028029
v 0.414826 -0.353240 -0.028029
v 0.409186 -0.353240 -0.039250
v 0.409223 -0.369991 -0.039228
vn 1.0000 -0.0000 -0.0000
vn 0.1557 0.0018 0.9878
vn -0.0000 -0.0000 1.0000
vn -0.0000 -1.0000 -0.0000
vn -0.0000 1.0000 -0.0000
vn -0.8621 0.1102 0.4946
vn 0.9486 -0.0000 -0.3163
vn 1.0000 0.0011 -0.0011
vn -0.8039 0.4222 0.4188
vn -0.8683 0.1412 0.4755
vn -0.8622 0.1125 0.4940
vn -0.0000 -0.0000 -1.0000
vn 0.9486 0.0002 -0.3163
vn 0.9284 -0.0000 -0.3715
vn 0.9486 0.0006 -0.3165
vn -0.7930 0.4974 0.3516
vn 0.7033 -0.0000 -0.7108
vn 0.9284 0.0001 -0.3715
vn 0.9285 0.0005 -0.3714
vn 0.8947 -0.0000 -0.4467
vn 0.9201 -0.0000 -0.3917
vn 0.7037 0.0006 -0.7105
vn 0.7074 -0.0000 -0.7068
vn 0.8946 -0.0000 -0.4468
vn 0.8946 -0.0000 -0.4469
vn 0.7074 0.0006 -0.7068
vn 0.8943 -0.0000 -0.4474
vn 0.8935 0.0014 -0.4491
s 0
f 1//1 2//1 6//1
f 1//1 6//1 11//1
f 1//1 11//1 7//1
f 1//1 7//1 3//1
f 1//2 3//2 4//2
f 1//3 4//3 8//3
f 1//3 8//3 9//3
f 1//3 9//3 5//3
f 1//3 5//3 2//3
f 2//4 5//4 10//4
f 2//4 10//4 16//4
f 2//4 16//4 22//4
f 2//4 22//4 28//4
f 2//4 28//4 29//4
f 2//4 29//4 25//4
f 2//4 25//4 18//4
f 2//4 18//4 12//4
f 2//4 12//4 6//4
f 3//5 7//5 13//5
f 3//5 13//5 19//5
f 3//5 19//5 24//5
f 3//5 24//5 30//5
f 3//5 30//5 31//5
f 3//5 31//5 26//5
f 3//5 26//5 21//5
f 3//5 21//5 20//5
f 3//5 20//5 14//5
f 3//5 14//5 8//5
f 3//5 8//5 4//5
f 5//6 9//6 10//6
f 6//7 12//7 17//7
f 6//7 17//7 11//7
f 7//8 11//8 13//8
f 8//9 14//9 15//9
f 8//10 15//10 10//10
f 8//11 10//11 9//11
f 10//12 15//12 20//12
f 10//12 20//12 21//12
f 10//12 21//12 16//12
f 11//13 17//13 13//13
f 12//14 18//14 23//14
f 12//14 23//14 17//14
f 13//15 17//15 19//15
f 14//16 20//16 15//16
f 16//17 21//17 27//17
f 16//17 27//17 22//17
f 17//18 23//18 24//18
f 17//19 24//19 19//19
f 18//20 25//20 24//20
f 18//21 24//21 23//21
f 21//22 26//22 27//22
f 22//23 27//23 32//23
f 22//23 32//23 28//23
f 24//24 25//24 29//24
f 24//25 29//25 30//25
f 26//26 31//26 32//26
f 26//26 32//26 27//26
f 28//27 32//27 30//27
f 28//27 30//27 29//27
f 30//28 32//28 31//28
