# Blender 4.4.0
# www.blender.org
o convex_13
v -0.389457 -0.538058 0.499221
v -0.381194 -0.538058 0.515744
v -0.380314 -0.384174 0.517508
v -0.389457 -0.384174 0.499221
v -0.308398 -0.538058 0.499221
v -0.375571 -0.538058 0.526955
v -0.375571 -0.384174 0.526955
v -0.343553 -0.384174 0.499221
v -0.330623 -0.437006 0.499221
v 0.001339 -0.538058 0.639231
v -0.308321 -0.538058 0.594224
v -0.308321 -0.384174 0.594224
v -0.343361 -0.384747 0.499221
v 0.001339 -0.384174 0.672683
v 0.001339 -0.452582 0.656200
v 0.001339 -0.454089 0.655876
v -0.341028 -0.392731 0.499221
v 0.001339 -0.538058 0.706337
v -0.341831 -0.389372 0.499221
v -0.342673 -0.386811 0.499221
v -0.257865 -0.538058 0.627837
v -0.257865 -0.384174 0.627837
v 0.001339 -0.384174 0.706337
v -0.016831 -0.538058 0.706337
v -0.246657 -0.538058 0.633453
v -0.256106 -0.384174 0.628729
v -0.016831 -0.384174 0.706337
v -0.117743 -0.538058 0.689510
v -0.179408 -0.538058 0.667087
v -0.188856 -0.384174 0.662364
v -0.117743 -0.384174 0.689510
v -0.168199 -0.538058 0.672683
v -0.179408 -0.384174 0.667087
v -0.168199 -0.384174 0.672683
vn -0.8944 -0.0000 0.4473
vn -0.8944 -0.0000 0.4472
vn -0.0000 -0.0000 -1.0000
vn -0.0002 -0.0000 -1.0000
vn -0.0000 -1.0000 -0.0000
vn -0.8939 -0.0000 0.4483
vn -0.8937 -0.0000 0.4487
vn -0.0000 1.0000 -0.0000
vn 0.4102 0.0902 -0.9075
vn -0.7072 -0.0000 0.7070
vn 0.4393 0.2104 -0.8734
vn 0.4376 0.1890 -0.8791
vn 0.4364 0.1750 -0.8826
vn 0.4264 0.1429 -0.8932
vn 0.4116 0.0967 -0.9062
vn 1.0000 -0.0000 -0.0000
vn 0.4122 0.0985 -0.9057
vn 0.4254 0.1399 -0.8941
vn 0.4261 0.1420 -0.8935
vn -0.5544 -0.0000 0.8322
vn -0.0000 -0.0000 1.0000
vn -0.4480 -0.0001 0.8940
vn -0.4523 -0.0000 0.8919
vn -0.1645 -0.0000 0.9864
vn -0.4473 -0.0000 0.8944
vn -0.3164 -0.0000 0.9486
vn -0.4467 -0.0000 0.8947
vn -0.4471 -0.0000 0.8945
s 0
f 1//1 2//1 3//1
f 1//2 3//2 4//2
f 1//3 4//3 8//3
f 1//4 8//4 13//4
f 1//3 13//3 20//3
f 1//3 20//3 19//3
f 1//3 19//3 17//3
f 1//3 17//3 9//3
f 1//3 9//3 5//3
f 1//5 5//5 10//5
f 1//5 10//5 18//5
f 1//5 18//5 24//5
f 1//5 24//5 28//5
f 1//5 28//5 32//5
f 1//5 32//5 29//5
f 1//5 29//5 25//5
f 1//5 25//5 21//5
f 1//5 21//5 11//5
f 1//5 11//5 6//5
f 1//5 6//5 2//5
f 2//6 6//6 3//6
f 3//7 6//7 7//7
f 3//8 7//8 12//8
f 3//8 12//8 22//8
f 3//8 22//8 26//8
f 3//8 26//8 30//8
f 3//8 30//8 33//8
f 3//8 33//8 34//8
f 3//8 34//8 31//8
f 3//8 31//8 27//8
f 3//8 27//8 23//8
f 3//8 23//8 14//8
f 3//8 14//8 8//8
f 3//8 8//8 4//8
f 5//9 9//9 10//9
f 6//10 11//10 12//10
f 6//10 12//10 7//10
f 8//11 14//11 15//11
f 8//12 15//12 16//12
f 8//13 16//13 10//13
f 8//14 10//14 13//14
f 9//15 17//15 10//15
f 10//16 16//16 15//16
f 10//16 15//16 14//16
f 10//16 14//16 23//16
f 10//16 23//16 18//16
f 10//17 17//17 19//17
f 10//18 19//18 20//18
f 10//19 20//19 13//19
f 11//20 21//20 22//20
f 11//20 22//20 12//20
f 18//21 23//21 27//21
f 18//21 27//21 24//21
f 21//22 25//22 26//22
f 21//23 26//23 22//23
f 24//24 27//24 31//24
f 24//24 31//24 28//24
f 25//25 29//25 30//25
f 25//25 30//25 26//25
f 28//26 31//26 34//26
f 28//26 34//26 32//26
f 29//27 32//27 34//27
f 29//27 34//27 33//27
f 29//28 33//28 30//28
