# Blender 4.4.0
# www.blender.org
o convex_11
v 0.403789 -0.538058 0.138551
v 0.437244 -0.384174 0.138551
v 0.469557 -0.538058 0.138551
v 0.319781 -0.538058 0.454278
v 0.319396 -0.384174 0.546635
v 0.470877 -0.384174 0.138551
v 0.470877 -0.534141 0.138551
v 0.470877 -0.538058 0.138637
v 0.319396 -0.538058 0.487917
v 0.319396 -0.420585 0.529815
v 0.319396 -0.384174 0.580275
v 0.470877 -0.384174 0.336366
v 0.470877 -0.538058 0.336366
v 0.319396 -0.538058 0.580275
v 0.325149 -0.384174 0.577378
v 0.470847 -0.538058 0.336453
v 0.437244 -0.384174 0.420422
v 0.319633 -0.538058 0.580145
v 0.325149 -0.532544 0.577378
v 0.352850 -0.384174 0.559563
v 0.437244 -0.538058 0.420422
v 0.435939 -0.384174 0.423060
v 0.344724 -0.538058 0.555067
v 0.364388 -0.442866 0.549359
v 0.353325 -0.384174 0.559217
v 0.375599 -0.532544 0.526918
v 0.420516 -0.538058 0.453889
v 0.410714 -0.384174 0.473519
v 0.378357 -0.538058 0.521427
v 0.364388 -0.384174 0.549359
v 0.409217 -0.532544 0.476459
v 0.411975 -0.538058 0.470968
v 0.409217 -0.384174 0.476459
vn -0.0000 -0.0000 -1.0000
vn -0.0000 -1.0000 0.0004
vn -0.0000 -1.0000 -0.0000
vn -0.0000 -1.0000 -0.0002
vn -0.9554 0.1502 -0.2542
vn -0.9404 0.2045 -0.2716
vn -0.0000 1.0000 -0.0000
vn 0.0650 -0.0219 -0.9976
vn -0.9999 0.0041 -0.0114
vn -0.9998 0.0084 -0.0181
vn -1.0000 -0.0000 -0.0000
vn 1.0000 -0.0000 -0.0000
vn 0.4498 -0.0000 0.8931
vn 0.9454 -0.0000 0.3258
vn 0.9284 -0.0000 0.3715
vn 0.4806 -0.0410 0.8760
vn 0.5409 -0.0000 0.8411
vn 0.8963 -0.0000 0.4434
vn 0.6668 -0.3322 0.6671
vn 0.6087 -0.0185 0.7932
vn 0.5886 -0.0129 0.8083
vn 0.6674 -0.3306 0.6673
vn 0.6674 -0.3307 0.6673
vn 0.7044 -0.0882 0.7043
vn 0.8945 -0.0001 0.4471
vn 0.8945 -0.0001 0.4472
vn 0.6653 -0.0000 0.7466
vn 0.8317 -0.0347 0.5541
vn 0.8518 -0.0000 0.5238
vn 0.8246 -0.1347 0.5494
vn 0.8944 -0.0001 0.4473
vn 0.8911 -0.0000 0.4538
vn 0.8936 -0.0001 0.4489
s 0
f 1//1 2//1 6//1
f 1//1 6//1 7//1
f 1//1 7//1 3//1
f 1//2 3//2 8//2
f 1//3 8//3 13//3
f 1//4 13//4 16//4
f 1//3 16//3 21//3
f 1//3 21//3 27//3
f 1//3 27//3 32//3
f 1//3 32//3 29//3
f 1//3 29//3 23//3
f 1//3 23//3 18//3
f 1//3 18//3 14//3
f 1//3 14//3 9//3
f 1//3 9//3 4//3
f 1//5 4//5 5//5
f 1//6 5//6 2//6
f 2//7 5//7 11//7
f 2//7 11//7 15//7
f 2//7 15//7 20//7
f 2//7 20//7 25//7
f 2//7 25//7 30//7
f 2//7 30//7 33//7
f 2//7 33//7 28//7
f 2//7 28//7 22//7
f 2//7 22//7 17//7
f 2//7 17//7 12//7
f 2//7 12//7 6//7
f 3//8 7//8 8//8
f 4//9 9//9 10//9
f 4//10 10//10 5//10
f 5//11 10//11 9//11
f 5//11 9//11 14//11
f 5//11 14//11 11//11
f 6//12 12//12 13//12
f 6//12 13//12 8//12
f 6//12 8//12 7//12
f 11//13 14//13 19//13
f 11//13 19//13 15//13
f 12//14 16//14 13//14
f 12//15 17//15 16//15
f 14//16 18//16 19//16
f 15//17 19//17 20//17
f 16//15 17//15 21//15
f 17//18 22//18 21//18
f 18//19 23//19 19//19
f 19//20 24//20 25//20
f 19//21 25//21 20//21
f 19//22 23//22 29//22
f 19//23 29//23 26//23
f 19//24 26//24 24//24
f 21//25 22//25 27//25
f 22//26 28//26 27//26
f 24//27 30//27 25//27
f 24//28 26//28 31//28
f 24//29 31//29 33//29
f 24//29 33//29 30//29
f 26//30 29//30 32//30
f 26//30 32//30 31//30
f 27//31 28//31 32//31
f 28//32 33//32 31//32
f 28//33 31//33 32//33
