# Blender 4.4.0
# www.blender.org
o convex_6
v 0.067434 -0.538168 -0.262991
v 0.072884 -0.616639 -0.212995
v 0.067434 -0.616639 -0.212995
v 0.067434 -0.532977 -0.261576
v 0.151395 -0.532977 -0.235438
v 0.151395 -0.538168 -0.235438
v 0.156964 -0.549379 -0.229818
v 0.140180 -0.616639 -0.196172
v 0.134572 -0.622249 -0.184970
v 0.067434 -0.622083 -0.202107
v 0.067434 -0.532977 -0.195347
v 0.210911 -0.532977 -0.205684
v 0.197641 -0.546574 -0.210204
v 0.163994 -0.546574 -0.227027
v 0.241083 -0.538168 -0.190591
v 0.224260 -0.616639 -0.162566
v 0.257907 -0.549379 -0.179350
v 0.067434 -0.622249 -0.201636
v 0.067434 -0.622206 -0.201793
v 0.218652 -0.622249 -0.151325
v 0.067434 -0.538168 0.138551
v 0.413983 -0.532977 0.138551
v 0.241083 -0.532977 -0.190591
v 0.252299 -0.538168 -0.184970
v 0.264898 -0.546574 -0.176559
v 0.231250 -0.613834 -0.159736
v 0.298506 -0.613834 -0.109308
v 0.304785 -0.618038 -0.100897
v 0.237569 -0.618038 -0.151325
v 0.067434 -0.622249 -0.167991
v 0.285868 -0.622249 -0.100897
v 0.067434 -0.605428 0.138551
v 0.470891 -0.532977 0.138551
v 0.252299 -0.532977 -0.184970
v 0.274652 -0.538168 -0.173768
v 0.341948 -0.538168 -0.123301
v 0.332114 -0.546574 -0.126131
v 0.338433 -0.550777 -0.117719
v 0.321609 -0.618038 -0.084074
v 0.084100 -0.622249 -0.151325
v 0.319516 -0.622249 -0.067251
v 0.386772 -0.622249 0.138551
v 0.470891 -0.538168 0.138551
v 0.470891 -0.532977 0.117719
v 0.274652 -0.532977 -0.173768
v 0.341948 -0.532977 -0.123301
v 0.409204 -0.538168 -0.039266
v 0.416234 -0.546574 -0.025234
v 0.348938 -0.546574 -0.109308
v 0.332114 -0.613834 -0.075663
v 0.372081 -0.618038 -0.016823
v 0.369948 -0.622249 -0.000000
v 0.420420 -0.622249 0.138551
v 0.432978 -0.613965 0.138551
v 0.470891 -0.538168 0.117719
v 0.454068 -0.532977 0.067251
v 0.409204 -0.532977 -0.039266
v 0.410942 -0.532977 -0.035807
v 0.416550 -0.532977 -0.024605
v 0.420420 -0.538168 -0.016823
v 0.454068 -0.538168 0.067251
v 0.449842 -0.546574 0.058840
v 0.399410 -0.613834 0.025194
v 0.382586 -0.613834 -0.008411
v 0.388905 -0.618038 0.016783
v 0.386772 -0.622249 0.033606
v 0.420420 -0.622249 0.117719
v 0.423105 -0.620913 0.138551
v 0.431636 -0.616639 0.138551
v 0.431636 -0.616639 0.117719
v 0.465284 -0.549379 0.117719
v 0.466666 -0.546574 0.109307
v 0.420420 -0.532977 -0.016823
v 0.433018 -0.613834 0.109307
v 0.422513 -0.618038 0.100896
vn -0.0000 -0.5373 -0.8434
vn -1.0000 -0.0000 -0.0000
vn 0.2877 0.2519 -0.9240
vn 0.3118 -0.0000 -0.9501
vn 0.2968 -0.3060 -0.9046
vn 0.2506 -0.4824 -0.8393
vn 0.2078 -0.5153 -0.8314
vn 0.1009 -0.9091 -0.4041
vn -0.0000 -0.8944 -0.4472
vn 0.1011 -0.9089 -0.4046
vn -0.0000 1.0000 -0.0000
vn -0.0000 1.0000 0.0001
vn 0.4472 -0.0000 -0.8945
vn 0.4363 -0.2192 -0.8727
vn 0.4349 -0.2215 -0.8728
vn 0.4472 -0.0010 -0.8944
vn 0.4364 -0.2190 -0.8727
vn 0.3242 -0.4867 -0.8112
vn 0.4357 -0.2249 -0.8715
vn 0.4358 -0.2247 -0.8716
vn 0.4083 -0.4080 -0.8166
vn 0.1521 -0.9121 -0.3806
vn 0.0655 -0.9623 -0.2639
vn 0.0904 -0.9273 -0.3631
vn 0.1519 -0.9126 -0.3796
vn -0.0000 -1.0000 -0.0000
vn -0.0150 0.9998 0.0155
vn 0.4474 -0.0000 -0.8943
vn 0.4364 -0.2199 -0.8725
vn 0.4480 -0.0000 -0.8940
vn 0.4373 -0.2177 -0.8726
vn 0.4365 -0.2198 -0.8725
vn 0.4943 -0.5667 -0.6592
vn 0.4909 -0.5754 -0.6541
vn 0.4874 -0.5834 -0.6497
vn 0.2032 -0.9128 -0.3542
vn 0.4783 -0.4303 -0.7656
vn 0.4820 -0.4318 -0.7624
vn 0.2087 -0.9376 -0.2782
vn -0.0000 -0.0000 1.0000
vn 0.5511 -0.3955 -0.7348
vn 0.5508 -0.3972 -0.7341
vn 0.5368 -0.4472 -0.7155
vn 0.5365 -0.4474 -0.7156
vn 0.5846 -0.4594 -0.6687
vn 0.5859 -0.4600 -0.6672
vn 0.6246 -0.4687 -0.6246
vn 0.2123 -0.9538 -0.2124
vn 0.2123 -0.9538 -0.2123
vn -0.0547 -0.9970 0.0547
vn -0.0525 -0.9971 0.0548
vn 1.0000 -0.0000 -0.0000
vn 0.6000 -0.0000 -0.8000
vn 0.7807 -0.0000 -0.6249
vn 0.7807 -0.0000 -0.6248
vn 0.7273 -0.3634 -0.5821
vn 0.7271 -0.3642 -0.5820
vn 0.6609 -0.4501 -0.6005
vn 0.5849 -0.4591 -0.6687
vn 0.6596 -0.4617 -0.5931
vn 0.6253 -0.6235 -0.4693
vn 0.6253 -0.6236 -0.4693
vn 0.2694 -0.9416 -0.2022
vn 0.2689 -0.9418 -0.2017
vn 0.8944 -0.4474 -0.0000
vn 0.9487 -0.0000 -0.3162
vn 0.8935 -0.0000 -0.4490
vn 0.8939 -0.0006 -0.4482
vn 0.8942 -0.0001 -0.4477
vn 0.8953 -0.0002 -0.4454
vn 0.9246 -0.0902 -0.3701
vn 0.9244 -0.0950 -0.3695
vn 0.8270 -0.4547 -0.3306
vn 0.7804 -0.4881 -0.3907
vn 0.7007 -0.4821 -0.5259
vn 0.6961 -0.4528 -0.5572
vn 0.5351 -0.8012 -0.2679
vn 0.3643 -0.9132 -0.1824
vn 0.4455 -0.8953 -0.0000
vn 0.8938 -0.4485 -0.0000
vn 0.8943 -0.4474 -0.0002
vn 0.8944 -0.4473 0.0002
vn 0.8944 -0.4473 -0.0022
vn 0.9367 -0.1583 -0.3123
vn 0.9367 -0.1585 -0.3122
vn 0.9284 -0.0000 -0.3716
vn 0.8954 -0.0000 -0.4453
vn 0.8571 -0.4288 -0.2857
vn 0.8270 -0.4548 -0.3304
vn 0.4988 -0.8435 -0.1993
vn 0.4971 -0.8446 -0.1988
vn 0.4935 -0.8471 -0.1972
vn 0.4248 -0.8892 -0.1697
vn 0.4230 -0.8902 -0.1692
vn 0.4411 -0.8820 -0.1659
vn 0.4473 -0.8944 -0.0003
vn 0.4479 -0.8941 -0.0000
vn 0.8943 -0.4474 -0.0023
s 0
f 1//1 2//1 3//1
f 1//2 3//2 10//2
f 1//2 10//2 19//2
f 1//2 19//2 18//2
f 1//2 18//2 30//2
f 1//2 30//2 32//2
f 1//2 32//2 21//2
f 1//2 21//2 11//2
f 1//2 11//2 4//2
f 1//3 4//3 5//3
f 1//4 5//4 6//4
f 1//5 6//5 7//5
f 1//6 7//6 8//6
f 1//7 8//7 2//7
f 2//8 9//8 10//8
f 2//9 10//9 3//9
f 2//10 8//10 9//10
f 4//11 11//11 22//11
f 4//11 22//11 33//11
f 4//11 33//11 44//11
f 4//11 44//11 56//11
f 4//11 56//11 73//11
f 4//11 73//11 59//11
f 4//11 59//11 58//11
f 4//12 58//12 57//12
f 4//11 57//11 46//11
f 4//11 46//11 45//11
f 4//11 45//11 34//11
f 4//11 34//11 23//11
f 4//11 23//11 12//11
f 4//11 12//11 5//11
f 5//13 12//13 6//13
f 6//14 13//14 14//14
f 6//15 14//15 7//15
f 6//16 12//16 15//16
f 6//17 15//17 13//17
f 7//18 16//18 8//18
f 7//19 14//19 13//19
f 7//20 13//20 17//20
f 7//21 17//21 16//21
f 8//22 16//22 9//22
f 9//23 18//23 19//23
f 9//24 19//24 10//24
f 9//25 16//25 20//25
f 9//26 20//26 31//26
f 9//26 31//26 41//26
f 9//26 41//26 52//26
f 9//26 52//26 66//26
f 9//26 66//26 67//26
f 9//26 67//26 53//26
f 9//26 53//26 42//26
f 9//26 42//26 40//26
f 9//26 40//26 30//26
f 9//26 30//26 18//26
f 11//27 21//27 22//27
f 12//28 23//28 15//28
f 13//29 15//29 17//29
f 15//30 23//30 34//30
f 15//30 34//30 24//30
f 15//31 24//31 25//31
f 15//32 25//32 17//32
f 16//33 26//33 27//33
f 16//34 27//34 28//34
f 16//35 28//35 29//35
f 16//36 29//36 20//36
f 16//37 17//37 25//37
f 16//38 25//38 26//38
f 20//39 29//39 28//39
f 20//39 28//39 31//39
f 21//40 32//40 42//40
f 21//40 42//40 53//40
f 21//40 53//40 68//40
f 21//40 68//40 69//40
f 21//40 69//40 54//40
f 21//40 54//40 43//40
f 21//40 43//40 33//40
f 21//40 33//40 22//40
f 24//30 34//30 45//30
f 24//30 45//30 35//30
f 24//31 35//31 25//31
f 25//41 35//41 36//41
f 25//42 36//42 37//42
f 25//43 37//43 27//43
f 25//44 27//44 26//44
f 27//45 37//45 38//45
f 27//46 38//46 28//46
f 28//47 38//47 39//47
f 28//48 39//48 41//48
f 28//49 41//49 31//49
f 30//50 40//50 32//50
f 32//51 40//51 42//51
f 33//52 43//52 55//52
f 33//52 55//52 44//52
f 35//53 45//53 46//53
f 35//53 46//53 36//53
f 36//54 46//54 57//54
f 36//55 57//55 47//55
f 36//56 47//56 48//56
f 36//57 48//57 49//57
f 36//58 49//58 38//58
f 36//59 38//59 37//59
f 38//60 49//60 50//60
f 38//60 50//60 39//60
f 39//61 50//61 64//61
f 39//62 64//62 51//62
f 39//63 51//63 41//63
f 41//64 51//64 52//64
f 43//65 54//65 55//65
f 44//66 55//66 61//66
f 44//66 61//66 56//66
f 47//67 57//67 58//67
f 47//68 58//68 48//68
f 48//69 58//69 59//69
f 48//70 59//70 60//70
f 48//71 60//71 61//71
f 48//72 61//72 62//72
f 48//73 62//73 63//73
f 48//74 63//74 64//74
f 48//75 64//75 50//75
f 48//76 50//76 49//76
f 51//77 64//77 63//77
f 51//77 63//77 65//77
f 51//78 65//78 66//78
f 51//78 66//78 52//78
f 53//79 67//79 68//79
f 54//80 69//80 70//80
f 54//81 70//81 71//81
f 54//82 71//82 55//82
f 55//83 71//83 72//83
f 55//84 72//84 62//84
f 55//85 62//85 61//85
f 56//86 61//86 60//86
f 56//86 60//86 73//86
f 59//87 73//87 60//87
f 62//88 72//88 74//88
f 62//89 74//89 63//89
f 63//90 74//90 70//90
f 63//91 70//91 65//91
f 65//92 70//92 75//92
f 65//93 75//93 67//93
f 65//94 67//94 66//94
f 67//95 75//95 70//95
f 67//96 70//96 68//96
f 68//97 70//97 69//97
f 70//98 74//98 72//98
f 70//98 72//98 71//98
