# Blender 4.4.0
# www.blender.org
o convex_3
v 0.050453 0.560610 -0.577353
v -0.050453 0.560610 -0.577353
v 0.050624 0.560500 -0.577353
v 0.061660 0.532542 -0.611041
v 0.058855 0.529738 -0.618050
v 0.050453 0.526933 -0.627868
v -0.050558 0.560544 -0.577353
v -0.050453 0.526933 -0.627868
v -0.058855 0.533955 -0.613852
v 0.063056 0.551512 -0.577353
v 0.063056 0.521324 -0.624355
v 0.063056 0.504519 -0.641182
v 0.050453 0.510128 -0.644677
v -0.063056 0.551512 -0.577353
v -0.050453 0.510128 -0.644677
v -0.063056 0.523444 -0.622265
v 0.066032 0.538151 -0.577353
v 0.067270 0.521324 -0.605438
v 0.063056 0.470886 -0.674800
v 0.050453 0.493300 -0.661504
v 0.067270 0.504519 -0.622265
v 0.067270 0.437275 -0.689519
v -0.065874 0.538836 -0.577353
v -0.067270 0.521324 -0.605438
v -0.050453 0.493300 -0.661504
v -0.063056 0.489811 -0.655901
v -0.067270 0.504519 -0.622265
v -0.067270 0.437275 -0.689519
v 0.065874 0.531902 -0.577353
v 0.067270 0.335030 -0.739963
v 0.063056 0.454058 -0.691609
v 0.050453 0.459667 -0.695122
v 0.067270 0.386815 -0.723154
v 0.063056 0.403642 -0.725244
v -0.065677 0.531791 -0.577353
v -0.067270 0.336355 -0.739963
v -0.050453 0.459667 -0.695122
v -0.063056 0.456156 -0.689519
v -0.063056 0.405740 -0.723154
v -0.067270 0.386815 -0.723154
v 0.062121 0.524393 -0.577353
v 0.044842 0.335030 -0.695122
v 0.061950 0.335030 -0.727580
v 0.061660 0.335030 -0.751169
v 0.067270 0.336355 -0.739963
v 0.058855 0.445667 -0.702130
v 0.050453 0.409229 -0.728757
v 0.061660 0.386815 -0.734360
v 0.058855 0.395229 -0.735765
v -0.062424 0.523863 -0.577353
v -0.066928 0.335030 -0.739788
v -0.050110 0.335030 -0.706152
v -0.044948 0.335030 -0.695842
v -0.061660 0.341964 -0.751169
v -0.061660 0.335030 -0.751169
v -0.066585 0.335030 -0.741316
v -0.058855 0.449862 -0.697914
v -0.050453 0.409229 -0.728757
v -0.061660 0.442884 -0.700725
v -0.061660 0.392424 -0.734360
v 0.045303 0.490761 -0.577353
v 0.038640 0.335030 -0.689694
v 0.042985 0.486830 -0.577353
v 0.060764 0.335030 -0.751626
v 0.061660 0.336355 -0.751169
v 0.058855 0.344768 -0.752575
v 0.050453 0.336355 -0.756790
v 0.050453 0.386815 -0.739963
v -0.050453 0.386815 -0.739963
v -0.050453 0.398033 -0.734360
v -0.045606 0.490231 -0.577353
v -0.044395 0.335030 -0.694893
v -0.050453 0.336355 -0.756790
v -0.050453 0.335030 -0.756790
v -0.058855 0.399424 -0.731550
v 0.033635 0.335030 -0.686691
v 0.039180 0.482789 -0.577353
v 0.033635 0.477908 -0.577353
v 0.050453 0.335030 -0.756790
v -0.036387 0.482104 -0.577353
v -0.034978 0.335030 -0.684882
v 0.020466 0.335030 -0.682686
v 0.028077 0.477224 -0.577353
v 0.016818 0.465277 -0.583009
v 0.016818 0.335030 -0.681773
v -0.033635 0.480536 -0.577353
v -0.033635 0.336355 -0.683213
v -0.033635 0.335030 -0.684214
v 0.016818 0.476517 -0.577353
v -0.016818 0.465277 -0.583009
v -0.016818 0.335030 -0.681773
v -0.026115 0.478394 -0.577353
v -0.029592 0.335030 -0.683371
v -0.016818 0.476517 -0.577353
vn -0.0000 -0.0000 1.0000
vn 0.4791 0.7462 -0.4621
vn 0.4462 0.7550 -0.4806
vn 0.3473 0.7802 -0.5202
vn -0.0000 0.8320 -0.5547
vn -0.2241 0.8109 -0.5406
vn -0.4758 0.7588 -0.4448
vn 0.5281 0.7304 -0.4332
vn 0.8491 0.4445 -0.2855
vn 0.5738 0.6550 -0.4917
vn 0.4603 0.6680 -0.5847
vn 0.4556 0.6298 -0.6290
vn 0.4549 0.6298 -0.6296
vn -0.0000 0.7072 -0.7070
vn -0.5327 0.7371 -0.4159
vn -0.4544 0.6300 -0.6298
vn -0.4500 0.6607 -0.6008
vn -0.7275 0.5818 -0.3636
vn 0.9724 0.2166 -0.0869
vn 0.9245 0.3207 -0.2060
vn 0.9537 0.2127 -0.2125
vn 0.4551 0.6295 -0.6298
vn 0.4549 0.6297 -0.6297
vn 0.9538 0.2125 -0.2125
vn 0.9536 0.2128 -0.2129
vn -0.0000 0.7071 -0.7071
vn -0.9306 0.3104 -0.1940
vn -0.9725 0.2162 -0.0865
vn -0.4544 0.6299 -0.6299
vn -0.4545 0.6299 -0.6298
vn -0.9539 0.2124 -0.2121
vn -0.9538 0.2124 -0.2124
vn 0.9979 -0.0252 0.0591
vn 0.9965 -0.0491 0.0680
vn 1.0000 -0.0000 -0.0000
vn 0.4555 0.6291 -0.6298
vn 0.9535 0.2129 -0.2131
vn -0.0000 0.7069 -0.7073
vn 0.9346 0.1973 -0.2960
vn 0.9344 0.1977 -0.2964
vn -0.9974 -0.0280 0.0670
vn -1.0000 -0.0000 -0.0000
vn -0.9954 -0.0563 0.0775
vn -0.4544 0.6297 -0.6300
vn -0.4553 0.6292 -0.6299
vn -0.9536 0.2128 -0.2131
vn -0.9280 0.2066 -0.3100
vn -0.9278 0.2071 -0.3104
vn 0.7712 -0.3855 0.5066
vn 0.8287 -0.3498 0.4368
vn 0.8752 -0.3044 0.3760
vn -0.0000 -1.0000 -0.0000
vn 0.8942 -0.0000 -0.4477
vn 0.4513 0.6010 -0.6596
vn 0.6980 0.3974 -0.5957
vn 0.2246 0.5406 -0.8107
vn -0.0000 0.5548 -0.8320
vn 0.8818 0.1660 -0.4415
vn 0.8844 0.1475 -0.4428
vn 0.8450 0.1988 -0.4964
vn 0.6972 0.3977 -0.5964
vn -0.9425 -0.2092 0.2606
vn -0.8406 -0.3416 0.4203
vn -0.8403 -0.3419 0.4208
vn -0.8378 -0.3437 0.4242
vn -0.9111 0.1302 -0.3910
vn -0.8942 -0.0000 -0.4477
vn -0.8945 -0.0057 -0.4471
vn -0.9394 -0.2705 -0.2105
vn -0.4600 0.5845 -0.6684
vn -0.3477 0.5202 -0.7801
vn -0.3478 0.5202 -0.7800
vn -0.5710 0.4937 -0.6559
vn -0.8140 0.3224 -0.4832
vn -0.9125 0.2032 -0.3551
vn -0.8115 0.3241 -0.4862
vn 0.7710 -0.3856 0.5068
vn 0.7162 -0.4223 0.5556
vn 0.5707 -0.4990 0.6522
vn 0.4544 -0.0000 -0.8908
vn -0.0000 0.4476 -0.8942
vn 0.8183 0.1817 -0.5454
vn 0.8182 0.1817 -0.5454
vn 0.1575 0.3121 -0.9369
vn 0.1553 0.3125 -0.9371
vn -0.0000 0.4464 -0.8948
vn -0.0000 0.4468 -0.8946
vn -0.0000 0.4475 -0.8943
vn -0.8033 -0.3681 0.4682
vn -0.7732 -0.3867 0.5026
vn -0.4483 -0.0000 -0.8939
vn -0.3028 0.3012 -0.9042
vn -0.4795 0.4869 -0.7301
vn -0.2186 0.4367 -0.8726
vn -0.2225 0.4387 -0.8707
vn -0.4823 0.4859 -0.7289
vn -0.3013 0.3016 -0.9046
vn -0.2182 0.4361 -0.8731
vn 0.5416 -0.5101 0.6683
vn 0.4710 -0.5350 0.7014
vn 0.4302 -0.5486 0.7169
vn 0.4478 -0.0000 -0.8941
vn 0.4478 0.0007 -0.8941
vn 0.4523 0.0018 -0.8919
vn -0.0000 -0.0000 -1.0000
vn -0.0000 0.3163 -0.9486
vn -0.6451 -0.4645 0.6067
vn -0.4636 -0.5258 0.7132
vn 0.2348 -0.5907 0.7720
vn 0.0580 -0.4713 0.8801
vn 0.1827 -0.5940 0.7834
vn 0.1954 -0.5936 0.7807
vn -0.3840 -0.5474 0.7436
vn -0.3195 -0.5608 0.7638
vn -0.3688 -0.5603 0.7417
vn 0.0282 -0.4493 0.8929
vn -0.0000 -0.4495 0.8933
vn -0.0000 -0.6042 0.7968
vn -0.2570 -0.5720 0.7790
vn -0.1342 -0.4710 0.8718
vn -0.1641 -0.5946 0.7871
vn -0.1632 -0.5921 0.7892
vn -0.0904 -0.4477 0.8896
vn -0.0992 -0.6012 0.7929
s 0
f 1//1 2//1 7//1
f 1//1 7//1 14//1
f 1//1 14//1 23//1
f 1//1 23//1 35//1
f 1//1 35//1 50//1
f 1//1 50//1 71//1
f 1//1 71//1 80//1
f 1//1 80//1 86//1
f 1//1 86//1 92//1
f 1//1 92//1 94//1
f 1//1 94//1 89//1
f 1//1 89//1 83//1
f 1//1 83//1 78//1
f 1//1 78//1 77//1
f 1//1 77//1 63//1
f 1//1 63//1 61//1
f 1//1 61//1 41//1
f 1//1 41//1 29//1
f 1//1 29//1 17//1
f 1//1 17//1 10//1
f 1//1 10//1 3//1
f 1//2 3//2 4//2
f 1//3 4//3 5//3
f 1//4 5//4 6//4
f 1//5 6//5 8//5
f 1//5 8//5 2//5
f 2//6 8//6 9//6
f 2//7 9//7 7//7
f 3//8 10//8 4//8
f 4//9 10//9 11//9
f 4//10 11//10 5//10
f 5//11 11//11 6//11
f 6//12 11//12 12//12
f 6//13 12//13 13//13
f 6//14 13//14 15//14
f 6//14 15//14 8//14
f 7//15 9//15 14//15
f 8//16 15//16 16//16
f 8//17 16//17 9//17
f 9//18 16//18 14//18
f 10//19 17//19 18//19
f 10//20 18//20 11//20
f 11//21 18//21 21//21
f 11//21 21//21 12//21
f 12//22 19//22 32//22
f 12//22 32//22 20//22
f 12//23 20//23 13//23
f 12//24 21//24 22//24
f 12//25 22//25 19//25
f 13//26 20//26 25//26
f 13//26 25//26 15//26
f 14//27 16//27 24//27
f 14//28 24//28 23//28
f 15//29 25//29 26//29
f 15//30 26//30 16//30
f 16//31 27//31 24//31
f 16//32 26//32 28//32
f 16//32 28//32 27//32
f 17//33 29//33 18//33
f 18//34 29//34 30//34
f 18//35 30//35 45//35
f 18//35 45//35 33//35
f 18//35 33//35 22//35
f 18//35 22//35 21//35
f 19//36 31//36 32//36
f 19//37 22//37 31//37
f 20//38 32//38 37//38
f 20//38 37//38 25//38
f 22//39 33//39 34//39
f 22//40 34//40 31//40
f 23//41 24//41 35//41
f 24//42 27//42 28//42
f 24//42 28//42 40//42
f 24//42 40//42 36//42
f 24//43 36//43 35//43
f 25//44 37//44 26//44
f 26//45 37//45 38//45
f 26//46 38//46 28//46
f 28//47 39//47 40//47
f 28//48 38//48 39//48
f 29//49 41//49 42//49
f 29//50 42//50 43//50
f 29//51 43//51 30//51
f 30//52 43//52 42//52
f 30//52 42//52 62//52
f 30//52 62//52 76//52
f 30//52 76//52 82//52
f 30//52 82//52 85//52
f 30//52 85//52 91//52
f 30//52 91//52 93//52
f 30//52 93//52 88//52
f 30//52 88//52 81//52
f 30//52 81//52 72//52
f 30//52 72//52 53//52
f 30//52 53//52 52//52
f 30//52 52//52 51//52
f 30//52 51//52 56//52
f 30//52 56//52 55//52
f 30//52 55//52 74//52
f 30//52 74//52 79//52
f 30//52 79//52 64//52
f 30//52 64//52 44//52
f 30//53 44//53 65//53
f 30//53 65//53 45//53
f 31//54 46//54 32//54
f 31//55 34//55 46//55
f 32//56 46//56 49//56
f 32//56 49//56 47//56
f 32//57 47//57 58//57
f 32//57 58//57 37//57
f 33//58 48//58 34//58
f 33//59 45//59 65//59
f 33//59 65//59 48//59
f 34//60 48//60 49//60
f 34//61 49//61 46//61
f 35//62 36//62 51//62
f 35//63 51//63 52//63
f 35//64 52//64 53//64
f 35//65 53//65 50//65
f 36//66 40//66 60//66
f 36//66 60//66 54//66
f 36//67 54//67 55//67
f 36//68 55//68 56//68
f 36//69 56//69 51//69
f 37//70 57//70 38//70
f 37//71 58//71 75//71
f 37//72 75//72 57//72
f 38//73 57//73 59//73
f 38//74 59//74 39//74
f 39//75 60//75 40//75
f 39//76 59//76 60//76
f 41//77 61//77 42//77
f 42//78 61//78 63//78
f 42//79 63//79 62//79
f 44//80 64//80 65//80
f 47//81 49//81 58//81
f 48//82 65//82 66//82
f 48//83 66//83 49//83
f 49//84 66//84 67//84
f 49//85 67//85 68//85
f 49//86 68//86 69//86
f 49//87 69//87 70//87
f 49//88 70//88 58//88
f 50//89 53//89 72//89
f 50//90 72//90 71//90
f 54//91 73//91 74//91
f 54//91 74//91 55//91
f 54//92 60//92 73//92
f 57//93 75//93 59//93
f 58//94 70//94 60//94
f 58//95 60//95 75//95
f 59//96 75//96 60//96
f 60//97 69//97 73//97
f 60//98 70//98 69//98
f 62//99 63//99 77//99
f 62//100 77//100 78//100
f 62//101 78//101 76//101
f 64//102 79//102 67//102
f 64//103 67//103 66//103
f 64//104 66//104 65//104
f 67//105 79//105 74//105
f 67//105 74//105 73//105
f 67//106 73//106 69//106
f 67//106 69//106 68//106
f 71//107 72//107 81//107
f 71//108 81//108 80//108
f 76//109 78//109 82//109
f 78//110 83//110 84//110
f 78//111 84//111 85//111
f 78//112 85//112 82//112
f 80//113 81//113 87//113
f 80//114 87//114 86//114
f 81//115 88//115 87//115
f 83//116 89//116 84//116
f 84//117 89//117 94//117
f 84//117 94//117 90//117
f 84//118 90//118 91//118
f 84//118 91//118 85//118
f 86//119 87//119 90//119
f 86//120 90//120 92//120
f 87//121 88//121 93//121
f 87//122 93//122 90//122
f 90//123 94//123 92//123
f 90//124 93//124 91//124
