# Blender 4.4.0
# www.blender.org
o convex_12
v 0.302926 -0.538058 0.487946
v 0.319364 -0.420585 0.529824
v 0.319364 -0.538058 0.487946
v 0.001370 -0.538058 0.639234
v 0.001370 -0.454089 0.655865
v 0.001370 -0.452582 0.656207
v 0.001370 -0.384174 0.672689
v 0.319364 -0.384174 0.546648
v 0.319364 -0.538058 0.580275
v 0.001370 -0.538058 0.706337
v 0.001370 -0.384174 0.706337
v 0.319364 -0.384174 0.580275
v 0.308312 -0.532544 0.594234
v 0.311052 -0.538058 0.588719
v 0.016844 -0.538058 0.706337
v 0.016844 -0.384174 0.706337
v 0.308312 -0.384174 0.594234
v 0.302802 -0.538058 0.596992
v 0.257845 -0.532544 0.627839
v 0.117746 -0.538058 0.689513
v 0.117746 -0.384174 0.689513
v 0.257845 -0.384174 0.627839
v 0.252335 -0.538058 0.630597
v 0.254888 -0.384174 0.629336
v 0.235523 -0.538058 0.639020
v 0.168151 -0.538058 0.672689
v 0.168151 -0.384174 0.672689
v 0.190598 -0.532544 0.661487
v 0.190598 -0.384174 0.661487
v 0.201619 -0.538058 0.655972
v 0.168244 -0.538058 0.672646
v 0.170797 -0.384174 0.671385
vn -0.0000 0.3358 -0.9419
vn -0.0000 -1.0000 -0.0000
vn -0.0000 -1.0000 -0.0001
vn -0.4416 0.1743 -0.8801
vn -0.4337 0.1994 -0.8787
vn -0.4298 0.2115 -0.8778
vn -0.3483 0.3576 -0.8665
vn 1.0000 -0.0000 -0.0000
vn -0.3386 0.3947 -0.8542
vn -1.0000 -0.0000 -0.0000
vn -0.0000 1.0000 -0.0000
vn 0.6732 -0.3282 0.6626
vn 0.7840 -0.0000 0.6207
vn -0.0000 -0.0000 1.0000
vn 0.6674 -0.3340 0.6656
vn 0.5542 -0.0000 0.8324
vn 0.5491 -0.1362 0.8246
vn 0.1645 -0.0000 0.9864
vn 0.4517 -0.0000 0.8922
vn 0.4479 -0.0001 0.8941
vn 0.4479 -0.0004 0.8941
vn 0.3166 -0.0000 0.9486
vn 0.4473 -0.0000 0.8944
vn 0.4472 -0.0007 0.8944
vn 0.4196 -0.0000 0.9077
vn 0.4421 -0.0000 0.8970
vn 0.4467 -0.0001 0.8947
vn 0.4469 -0.0015 0.8946
vn 0.4471 -0.0000 0.8945
s 0
f 1//1 2//1 3//1
f 1//2 3//2 9//2
f 1//2 9//2 14//2
f 1//2 14//2 18//2
f 1//2 18//2 23//2
f 1//2 23//2 25//2
f 1//2 25//2 30//2
f 1//2 30//2 31//2
f 1//3 31//3 26//3
f 1//2 26//2 20//2
f 1//2 20//2 15//2
f 1//2 15//2 10//2
f 1//2 10//2 4//2
f 1//4 4//4 5//4
f 1//5 5//5 6//5
f 1//6 6//6 7//6
f 1//7 7//7 2//7
f 2//8 8//8 12//8
f 2//8 12//8 9//8
f 2//8 9//8 3//8
f 2//9 7//9 8//9
f 4//10 10//10 11//10
f 4//10 11//10 7//10
f 4//10 7//10 6//10
f 4//10 6//10 5//10
f 7//11 11//11 16//11
f 7//11 16//11 21//11
f 7//11 21//11 27//11
f 7//11 27//11 32//11
f 7//11 32//11 29//11
f 7//11 29//11 24//11
f 7//11 24//11 22//11
f 7//11 22//11 17//11
f 7//11 17//11 12//11
f 7//11 12//11 8//11
f 9//12 13//12 14//12
f 9//13 12//13 17//13
f 9//13 17//13 13//13
f 10//14 15//14 16//14
f 10//14 16//14 11//14
f 13//15 18//15 14//15
f 13//16 17//16 22//16
f 13//16 22//16 19//16
f 13//17 19//17 23//17
f 13//17 23//17 18//17
f 15//18 20//18 21//18
f 15//18 21//18 16//18
f 19//19 22//19 24//19
f 19//20 24//20 25//20
f 19//21 25//21 23//21
f 20//22 26//22 27//22
f 20//22 27//22 21//22
f 24//23 28//23 25//23
f 24//23 29//23 28//23
f 25//24 28//24 30//24
f 26//25 31//25 27//25
f 27//26 31//26 32//26
f 28//27 32//27 31//27
f 28//28 31//28 30//28
f 28//29 29//29 32//29
