# Blender 4.4.0
# www.blender.org
o convex_19
v -0.470874 0.622249 0.138550
v -0.352102 0.621984 -0.101122
v -0.353174 0.622249 -0.100887
v -0.521329 0.622249 0.138550
v -0.459659 0.616583 0.138550
v -0.336577 0.616848 -0.101122
v -0.353174 0.622249 -0.101122
v -0.521329 0.622249 0.117718
v -0.532544 0.616583 0.138550
v -0.454063 0.605426 0.138550
v -0.330766 0.611004 -0.095280
v -0.344768 0.613838 -0.075667
v -0.329587 0.612155 -0.101122
v -0.403629 0.622249 -0.101122
v -0.504518 0.622249 0.050433
v -0.529735 0.617999 0.109295
v -0.532544 0.616583 0.117718
v -0.538162 0.605426 0.138550
v -0.347577 0.594181 -0.061661
v -0.439246 -0.271073 0.138550
v -0.327850 0.605160 -0.101122
v -0.319101 -0.235656 -0.101122
v -0.420440 0.622161 -0.101122
v -0.420440 0.622249 -0.100887
v -0.454063 0.622249 -0.050447
v -0.496112 0.617999 0.008415
v -0.512923 0.617999 0.042034
v -0.533938 0.607463 0.100896
v -0.538162 0.605426 0.117718
v -0.538162 0.487662 0.138550
v -0.439138 -0.282319 0.138550
v -0.319101 -0.282319 -0.101122
v -0.420676 0.622072 -0.101122
v -0.462468 0.617999 -0.058846
v -0.496112 0.609588 -0.008406
v -0.515732 0.611004 0.039219
v -0.538162 0.588603 0.084075
v -0.538162 0.487662 0.134539
v -0.470874 -0.282319 0.138550
v -0.369899 -0.282319 -0.101122
v -0.431569 0.616671 -0.101122
v -0.462468 0.609588 -0.075667
v -0.500315 0.607463 0.000016
v -0.465277 0.594181 -0.078459
v -0.482089 0.594181 -0.044840
v -0.498900 0.594181 -0.011198
v -0.504518 0.588603 0.000016
v -0.538162 0.571779 0.084075
v -0.538162 0.538132 0.100896
v -0.470874 -0.282319 0.117718
v -0.409247 -0.282319 -0.039233
v -0.378305 -0.218832 -0.101122
v -0.441261 0.603478 -0.101122
v -0.445657 0.609588 -0.092488
v -0.459659 0.582936 -0.089673
v -0.465277 0.577358 -0.078459
v -0.476492 0.582936 -0.056054
v -0.487707 0.588603 -0.033626
v -0.504518 0.571779 0.000016
v -0.521329 0.454015 0.067254
v -0.521329 0.386722 0.084075
v -0.454063 -0.282319 0.067254
v -0.420440 -0.282319 -0.016805
v -0.476492 0.532554 -0.056054
v -0.395116 -0.084245 -0.101122
v -0.445550 0.588337 -0.101122
v -0.459659 0.566112 -0.089673
v -0.487707 0.538132 -0.033626
v -0.442848 0.364320 -0.089673
v -0.428739 0.319251 -0.101122
v -0.445550 0.521043 -0.101122
vn 0.2647 0.9555 0.1301
vn -0.0000 1.0000 -0.0000
vn -0.0000 -0.0000 1.0000
vn 0.0001 -0.0000 1.0000
vn 0.4392 0.8694 0.2265
vn 0.3104 0.9382 0.1528
vn 0.2400 0.9708 -0.0000
vn -0.0000 -0.0000 -1.0000
vn -0.4509 0.8926 -0.0000
vn 0.8052 0.4039 0.4342
vn 0.5690 0.7674 0.2954
vn 0.5034 0.8242 0.2594
vn 0.5364 0.8005 0.2673
vn 0.5373 0.8003 0.2661
vn -0.3732 0.9230 -0.0933
vn -0.4509 0.8926 -0.0003
vn -0.8932 0.4497 -0.0000
vn 0.8829 0.0505 0.4668
vn 0.8831 0.0149 0.4689
vn 0.9430 0.2342 0.2364
vn 0.8924 0.0099 0.4512
vn 0.8934 0.0092 0.4492
vn 0.8984 0.0093 0.4391
vn -0.0049 0.9365 -0.3506
vn -0.3154 0.9358 -0.1578
vn -0.3155 0.9357 -0.1578
vn -0.3734 0.9230 -0.0933
vn -0.8391 0.5019 -0.2097
vn -0.8455 0.4957 -0.1986
vn -0.8806 0.4434 -0.1674
vn -1.0000 -0.0000 -0.0000
vn 0.8934 0.0086 0.4491
vn 0.8941 -0.0000 0.4478
vn -0.3329 0.8829 -0.3313
vn -0.3758 0.8814 -0.2862
vn -0.2851 0.9395 -0.1901
vn -0.6665 0.6668 -0.3334
vn -0.6666 0.6667 -0.3334
vn -0.8128 0.4667 -0.3487
vn -0.8673 0.4411 -0.2307
vn -0.8815 0.4086 -0.2367
vn -0.9112 0.3684 -0.1842
vn -0.9962 -0.0871 -0.0000
vn -0.0000 -1.0000 -0.0000
vn -0.4189 0.8449 -0.3327
vn -0.4975 0.7759 -0.3880
vn -0.8864 0.2737 -0.3733
vn -0.8688 0.2372 -0.4346
vn -0.8690 0.2367 -0.4346
vn -0.8693 0.2360 -0.4344
vn -0.8925 0.2316 -0.3870
vn -0.9009 0.2199 -0.3742
vn -0.9124 0.1835 -0.3658
vn -0.9128 0.1824 -0.3653
vn -0.9284 -0.0000 -0.3716
vn -0.9886 -0.0836 -0.1255
vn -0.8387 -0.1110 -0.5332
vn -0.6203 0.4557 -0.6383
vn -0.6210 0.4787 -0.6207
vn -0.6352 0.4400 -0.6348
vn -0.7072 0.2690 -0.6538
vn -0.7434 0.2481 -0.6212
vn -0.8941 -0.0000 -0.4479
vn -0.8942 -0.0000 -0.4476
vn -0.8943 0.0006 -0.4474
vn -0.8944 0.0016 -0.4473
vn -0.8945 0.0023 -0.4470
vn -0.8945 -0.0000 -0.4470
vn -0.9255 -0.0794 -0.3704
vn -0.9363 -0.0852 -0.3407
vn -0.9518 -0.0866 -0.2943
vn -0.9822 -0.0840 -0.1680
vn -0.9451 -0.0871 -0.3149
vn -0.8917 -0.0828 -0.4450
vn -0.8816 -0.0823 -0.4648
vn -0.8421 -0.1052 -0.5289
vn -0.6612 0.1873 -0.7265
vn -0.6301 -0.0000 -0.7765
vn -0.8941 -0.0001 -0.4478
vn -0.8944 -0.0000 -0.4472
vn -0.9223 -0.0834 -0.3775
vn -0.9226 -0.0834 -0.3767
vn -0.9252 -0.0845 -0.3701
vn -0.9358 -0.0855 -0.3420
vn -0.8994 -0.0825 -0.4292
vn -0.8614 -0.0718 -0.5029
vn -0.8782 -0.0814 -0.4714
vn -0.7403 -0.0617 -0.6694
vn -0.7403 -0.0617 -0.6695
s 0
f 1//1 2//1 3//1
f 1//2 3//2 7//2
f 1//2 7//2 14//2
f 1//2 14//2 24//2
f 1//2 24//2 25//2
f 1//2 25//2 15//2
f 1//2 15//2 8//2
f 1//2 8//2 4//2
f 1//3 4//3 9//3
f 1//3 9//3 18//3
f 1//3 18//3 30//3
f 1//3 30//3 39//3
f 1//3 39//3 31//3
f 1//4 31//4 20//4
f 1//3 20//3 10//3
f 1//3 10//3 5//3
f 1//5 5//5 6//5
f 1//6 6//6 2//6
f 2//7 7//7 3//7
f 2//8 6//8 13//8
f 2//8 13//8 21//8
f 2//8 21//8 22//8
f 2//8 22//8 32//8
f 2//8 32//8 40//8
f 2//8 40//8 52//8
f 2//8 52//8 65//8
f 2//8 65//8 70//8
f 2//8 70//8 71//8
f 2//8 71//8 66//8
f 2//8 66//8 53//8
f 2//8 53//8 41//8
f 2//8 41//8 33//8
f 2//8 33//8 23//8
f 2//8 23//8 14//8
f 2//8 14//8 7//8
f 4//9 8//9 17//9
f 4//9 17//9 9//9
f 5//10 10//10 11//10
f 5//11 11//11 12//11
f 5//12 12//12 6//12
f 6//13 12//13 11//13
f 6//14 11//14 13//14
f 8//15 15//15 16//15
f 8//16 16//16 17//16
f 9//17 17//17 29//17
f 9//17 29//17 18//17
f 10//18 19//18 11//18
f 10//19 20//19 19//19
f 11//20 21//20 13//20
f 11//21 19//21 20//21
f 11//22 20//22 22//22
f 11//23 22//23 21//23
f 14//24 23//24 24//24
f 15//25 25//25 26//25
f 15//26 26//26 27//26
f 15//27 27//27 16//27
f 16//28 27//28 28//28
f 16//29 28//29 17//29
f 17//30 28//30 29//30
f 18//31 29//31 37//31
f 18//31 37//31 48//31
f 18//31 48//31 49//31
f 18//31 49//31 38//31
f 18//31 38//31 30//31
f 20//32 31//32 22//32
f 22//33 31//33 32//33
f 23//34 33//34 24//34
f 24//35 33//35 34//35
f 24//36 34//36 25//36
f 25//26 34//26 26//26
f 26//37 34//37 42//37
f 26//37 42//37 35//37
f 26//38 35//38 27//38
f 27//39 35//39 36//39
f 27//40 36//40 28//40
f 28//41 36//41 37//41
f 28//42 37//42 29//42
f 30//43 38//43 50//43
f 30//43 50//43 39//43
f 31//44 39//44 50//44
f 31//44 50//44 62//44
f 31//44 62//44 63//44
f 31//44 63//44 51//44
f 31//44 51//44 40//44
f 31//44 40//44 32//44
f 33//45 41//45 34//45
f 34//46 41//46 42//46
f 35//47 43//47 36//47
f 35//48 42//48 44//48
f 35//49 44//49 45//49
f 35//50 45//50 46//50
f 35//51 46//51 43//51
f 36//52 43//52 46//52
f 36//53 46//53 47//53
f 36//54 47//54 37//54
f 37//55 47//55 59//55
f 37//55 59//55 48//55
f 38//56 49//56 50//56
f 40//57 51//57 52//57
f 41//58 53//58 54//58
f 41//59 54//59 42//59
f 42//60 54//60 53//60
f 42//61 53//61 55//61
f 42//62 55//62 44//62
f 44//63 55//63 67//63
f 44//63 67//63 56//63
f 44//64 56//64 64//64
f 44//64 64//64 57//64
f 44//65 57//65 58//65
f 44//66 58//66 45//66
f 45//67 58//67 47//67
f 45//67 47//67 46//67
f 47//68 58//68 68//68
f 47//68 68//68 59//68
f 48//69 59//69 60//69
f 48//70 60//70 61//70
f 48//71 61//71 50//71
f 48//72 50//72 49//72
f 50//73 61//73 62//73
f 51//74 63//74 64//74
f 51//75 64//75 65//75
f 51//76 65//76 52//76
f 53//77 66//77 55//77
f 55//78 66//78 71//78
f 55//78 71//78 67//78
f 56//79 67//79 64//79
f 57//80 64//80 68//80
f 57//80 68//80 58//80
f 59//81 68//81 63//81
f 59//82 63//82 60//82
f 60//83 63//83 62//83
f 60//84 62//84 61//84
f 63//85 68//85 64//85
f 64//86 67//86 69//86
f 64//87 69//87 65//87
f 65//88 69//88 70//88
f 67//89 71//89 70//89
f 67//89 70//89 69//89
